<?xml version="1.0" encoding="UTF-8" standalone="no"?>
<!-- Created using Karbon14, part of koffice: http://www.koffice.org/karbon -->

<svg
   xmlns:dc="http://purl.org/dc/elements/1.1/"
   xmlns:cc="http://creativecommons.org/ns#"
   xmlns:rdf="http://www.w3.org/1999/02/22-rdf-syntax-ns#"
   xmlns:svg="http://www.w3.org/2000/svg"
   xmlns="http://www.w3.org/2000/svg"
   xmlns:xlink="http://www.w3.org/1999/xlink"
   xmlns:sodipodi="http://sodipodi.sourceforge.net/DTD/sodipodi-0.dtd"
   xmlns:inkscape="http://www.inkscape.org/namespaces/inkscape"
   width="19.2pt"
   height="19.2pt"
   id="svg2"
   version="1.1"
   inkscape:version="0.48.3.1 r9886"
   sodipodi:docname="amarok.svg">
  <metadata
     id="metadata30">
    <rdf:RDF>
      <cc:Work
         rdf:about="">
        <dc:format>image/svg+xml</dc:format>
        <dc:type
           rdf:resource="http://purl.org/dc/dcmitype/StillImage" />
        <dc:title />
      </cc:Work>
    </rdf:RDF>
  </metadata>
  <sodipodi:namedview
     pagecolor="#000000"
     bordercolor="#666666"
     borderopacity="1"
     objecttolerance="10"
     gridtolerance="10"
     guidetolerance="10"
     inkscape:pageopacity="0.23137255"
     inkscape:pageshadow="2"
     inkscape:window-width="1360"
     inkscape:window-height="701"
     id="namedview28"
     showgrid="false"
     inkscape:zoom="22.627417"
     inkscape:cx="0.53191259"
     inkscape:cy="3.2206709"
     inkscape:window-x="-2"
     inkscape:window-y="-3"
     inkscape:window-maximized="1"
     inkscape:current-layer="svg2" />
  <defs
     id="defs4">
    <linearGradient
       id="linearGradient3792">
      <stop
         style="stop-color:#000000;stop-opacity:1;"
         offset="0"
         id="stop3794" />
      <stop
         style="stop-color:#363636;stop-opacity:1;"
         offset="1"
         id="stop3796" />
    </linearGradient>
    <linearGradient
       id="defitem7"
       gradientUnits="objectBoundingBox"
       x1="0.8288"
       y1="1.05108"
       x2="0.825401"
       y2="-0.0383638"
       spreadMethod="pad">
      <stop
         stop-color="#acacac"
         offset="0.0159363"
         stop-opacity="1"
         id="stop7" />
      <stop
         stop-color="#ececec"
         offset="1"
         stop-opacity="1"
         id="stop9" />
    </linearGradient>
    <linearGradient
       id="defitem8"
       gradientUnits="objectBoundingBox"
       x1="0.519511"
       y1="1.05108"
       x2="0.512713"
       y2="-0.0335218"
       spreadMethod="pad">
      <stop
         stop-color="#ababab"
         offset="0"
         stop-opacity="1"
         id="stop12" />
      <stop
         stop-color="#ededed"
         offset="1"
         stop-opacity="1"
         id="stop14" />
    </linearGradient>
    <linearGradient
       id="defitem9"
       gradientUnits="objectBoundingBox"
       x1="0.561404"
       y1="0.0119173"
       x2="0.548246"
       y2="1.01056"
       spreadMethod="pad">
      <stop
         stop-color="#989b9c"
         offset="0"
         stop-opacity="1"
         id="stop17" />
      <stop
         stop-color="#ffffff"
         offset="1"
         stop-opacity="1"
         id="stop19" />
    </linearGradient>
    <linearGradient
       inkscape:collect="always"
       xlink:href="#linearGradient4249"
       id="linearGradient3385"
       gradientUnits="userSpaceOnUse"
       x1="-208.5"
       y1="221.36218"
       x2="-208.5"
       y2="224.36218" />
    <linearGradient
       id="linearGradient4249">
      <stop
         id="stop4251"
         offset="0"
         style="stop-color:#ffffff;stop-opacity:1;" />
      <stop
         style="stop-color:#ffffff;stop-opacity:0.78431374;"
         offset="0.47000003"
         id="stop4253" />
      <stop
         id="stop4255"
         offset="0.75125003"
         style="stop-color:#ffffff;stop-opacity:0.58823532;" />
      <stop
         id="stop4257"
         offset="1"
         style="stop-color:#ffffff;stop-opacity:1;" />
    </linearGradient>
    <linearGradient
       id="linearGradient3245">
      <stop
         id="stop3247"
         offset="0"
         style="stop-color:#ffffff;stop-opacity:1;" />
      <stop
         style="stop-color:#ffffff;stop-opacity:0.78431374;"
         offset="0.47000003"
         id="stop3249" />
      <stop
         id="stop3251"
         offset="0.75125003"
         style="stop-color:#ffffff;stop-opacity:0.39215687;" />
      <stop
         id="stop3253"
         offset="1"
         style="stop-color:#ffffff;stop-opacity:1;" />
    </linearGradient>
    <linearGradient
       id="linearGradient3256">
      <stop
         id="stop3258"
         offset="0"
         style="stop-color:#ffffff;stop-opacity:1;" />
      <stop
         style="stop-color:#ffffff;stop-opacity:0.78431374;"
         offset="0.47000003"
         id="stop3260" />
      <stop
         id="stop3262"
         offset="0.75125003"
         style="stop-color:#ffffff;stop-opacity:0.39215687;" />
      <stop
         id="stop3264"
         offset="1"
         style="stop-color:#ffffff;stop-opacity:1;" />
    </linearGradient>
    <linearGradient
       inkscape:collect="always"
       xlink:href="#linearGradient4249"
       id="linearGradient3391"
       gradientUnits="userSpaceOnUse"
       gradientTransform="translate(-28.492036,123.45079)"
       x1="-185.875"
       y1="208.82812"
       x2="-166.3125"
       y2="208.82812" />
    <linearGradient
       id="linearGradient3267">
      <stop
         id="stop3269"
         offset="0"
         style="stop-color:#ffffff;stop-opacity:1;" />
      <stop
         style="stop-color:#ffffff;stop-opacity:0.78431374;"
         offset="0.47000003"
         id="stop3271" />
      <stop
         id="stop3273"
         offset="0.75125003"
         style="stop-color:#ffffff;stop-opacity:0.39215687;" />
      <stop
         id="stop3275"
         offset="1"
         style="stop-color:#ffffff;stop-opacity:1;" />
    </linearGradient>
    <linearGradient
       inkscape:collect="always"
       xlink:href="#linearGradient4249"
       id="linearGradient3970"
       gradientUnits="userSpaceOnUse"
       x1="-46.034351"
       y1="15.221315"
       x2="-32.368435"
       y2="15.221315"
       gradientTransform="translate(-50.160193,0.7280144)" />
    <linearGradient
       inkscape:collect="always"
       xlink:href="#linearGradient4249"
       id="linearGradient3992"
       gradientUnits="userSpaceOnUse"
       x1="-46.034351"
       y1="15.221315"
       x2="-32.368435"
       y2="15.221315" />
    <linearGradient
       inkscape:collect="always"
       xlink:href="#linearGradient4249"
       id="linearGradient4006"
       x1="2.7450652"
       y1="12.168246"
       x2="21.529514"
       y2="12.168246"
       gradientUnits="userSpaceOnUse" />
    <linearGradient
       inkscape:collect="always"
       xlink:href="#linearGradient4249"
       id="linearGradient3020"
       gradientUnits="userSpaceOnUse"
       x1="2.7450652"
       y1="12.168246"
       x2="21.529514"
       y2="12.168246" />
    <linearGradient
       inkscape:collect="always"
       xlink:href="#linearGradient3792"
       id="linearGradient3798"
       x1="24.13814"
       y1="-0.10338194"
       x2="24.15349"
       y2="24.115025"
       gradientUnits="userSpaceOnUse" />
    <linearGradient
       inkscape:collect="always"
       xlink:href="#linearGradient3792"
       id="linearGradient3806"
       gradientUnits="userSpaceOnUse"
       x1="24.13814"
       y1="-0.10338194"
       x2="24.15349"
       y2="24.115025" />
    <linearGradient
       id="linearGradient4314">
      <stop
         style="stop-color:#000000;stop-opacity:1;"
         offset="0"
         id="stop4316" />
      <stop
         style="stop-color:#363636;stop-opacity:1;"
         offset="1"
         id="stop4318" />
    </linearGradient>
  </defs>
  <path
     transform="matrix(1.3333333,0,0,1.3333333,207.28914,-271.34889)"
     d="m -207,222.86218 a 1.5,1.5 0 1 1 -3,0 1.5,1.5 0 1 1 3,0 z"
     sodipodi:ry="1.5"
     sodipodi:rx="1.5"
     sodipodi:cy="222.86218"
     sodipodi:cx="-208.5"
     id="path4305"
     style="fill:url(#linearGradient3385);fill-opacity:1;stroke:none"
     sodipodi:type="arc" />
  <g
     id="g3050"
     inkscape:label="#g3810"
     transform="translate(-53.25,0.875)">
    <rect
       y="0"
       x="0"
       height="24"
       width="24"
       id="rect3808"
       style="fill:#ffffff;fill-opacity:0.00392157;fill-rule:evenodd;stroke:none" />
    <g
       transform="translate(-0.125,-0.859125)"
       id="g3802">
      <path
         sodipodi:nodetypes="sssssccccccccscsssccccscc"
         inkscape:connector-curvature="0"
         id="path3800"
         d="m 12.125,2.90575 c -5.762538,0 -10.4375,4.6749613 -10.4375,10.4375 0,5.762539 4.674962,10.46875 10.4375,10.46875 5.762539,0 10.4375,-4.706211 10.4375,-10.46875 0,-5.7625387 -4.674961,-10.4375 -10.4375,-10.4375 z m 4.40625,5.25 0.4375,0.625 c -0.495333,1.1910601 -1.217442,2.855509 -1.6875,4 l -0.25,0.625 c 1.226362,-0.04193 2.314633,-0.274019 3.1875,-0.65625 -1.694028,0.944519 -3.612115,2.311965 -3.9375,3.9375 -0.425624,1.620576 -0.357208,3.472845 -0.46875,5 l 0,0.03125 c -0.01028,0.509136 -0.155118,0.738506 -0.3125,0.875 -0.06925,0.06006 -0.177424,0.09205 -0.28125,0.125 -0.04277,0.0049 -0.08206,0.0269 -0.125,0.03125 -0.133367,0.01351 -0.271287,0.02333 -0.40625,0.03125 -0.186616,0.01095 -0.373097,0.03125 -0.5625,0.03125 -2.961365,0 -5.582122,-1.372305 -7.3125,-3.5 0.02349,-0.03133 0.05809,-0.06401 0.09375,-0.09375 0.499872,-0.383647 0.949757,-0.819281 1.40625,-1.25 -0.726867,-0.792653 -1.495814,-1.54595 -2.25,-2.3125 0.880797,-0.374549 1.64038,-0.867066 2.5,-1.6875 0.85962,-0.820434 2.284783,-1.333481 3.3125,-1.71875 2.60268,-0.860724 4.608282,-2.5777383 6.65625,-4.09375 z"
         style="font-size:medium;font-style:normal;font-variant:normal;font-weight:normal;font-stretch:normal;text-indent:0;text-align:start;text-decoration:none;line-height:normal;letter-spacing:normal;word-spacing:normal;text-transform:none;direction:ltr;block-progression:tb;writing-mode:lr-tb;text-anchor:start;baseline-shift:baseline;opacity:0.6;color:#000000;fill:#ffffff;fill-opacity:1;stroke:none;stroke-width:1.03246748px;marker:none;visibility:visible;display:inline;overflow:visible;enable-background:accumulate;font-family:Sans;-inkscape-font-specification:Sans" />
      <path
         style="font-size:medium;font-style:normal;font-variant:normal;font-weight:normal;font-stretch:normal;text-indent:0;text-align:start;text-decoration:none;line-height:normal;letter-spacing:normal;word-spacing:normal;text-transform:none;direction:ltr;block-progression:tb;writing-mode:lr-tb;text-anchor:start;baseline-shift:baseline;opacity:0.7;color:#000000;fill:url(#linearGradient3806);fill-opacity:1;stroke:none;stroke-width:1.03246748px;marker:none;visibility:visible;display:inline;overflow:visible;enable-background:accumulate;font-family:Sans;-inkscape-font-specification:Sans"
         d="m 12.125,1.90625 c -5.762538,0 -10.4375,4.6749613 -10.4375,10.4375 0,5.762539 4.674962,10.46875 10.4375,10.46875 5.762539,0 10.4375,-4.706211 10.4375,-10.46875 0,-5.7625387 -4.674961,-10.4375 -10.4375,-10.4375 z m 4.40625,5.25 0.4375,0.625 c -0.495333,1.1910601 -1.217442,2.855509 -1.6875,4 l -0.25,0.625 c 1.226362,-0.04193 2.314633,-0.274019 3.1875,-0.65625 -1.694028,0.944519 -3.612115,2.311965 -3.9375,3.9375 -0.425624,1.620576 -0.357208,3.472845 -0.46875,5 l 0,0.03125 c -0.01028,0.509136 -0.155118,0.738506 -0.3125,0.875 -0.06925,0.06006 -0.177424,0.09205 -0.28125,0.125 -0.04277,0.0049 -0.08206,0.0269 -0.125,0.03125 -0.133367,0.01351 -0.271287,0.02333 -0.40625,0.03125 -0.186616,0.01095 -0.373097,0.03125 -0.5625,0.03125 -2.961365,0 -5.582122,-1.372305 -7.3125,-3.5 0.02349,-0.03133 0.05809,-0.06401 0.09375,-0.09375 0.499872,-0.383647 0.949757,-0.819281 1.40625,-1.25 -0.726867,-0.792653 -1.495814,-1.54595 -2.25,-2.3125 0.880797,-0.374549 1.64038,-0.867066 2.5,-1.6875 C 7.42212,12.148316 8.847283,11.635269 9.875,11.25 12.47768,10.389276 14.483282,8.6722617 16.53125,7.15625 z"
         id="meh"
         inkscape:connector-curvature="0"
         sodipodi:nodetypes="sssssccccccccscsssccccscc" />
    </g>
  </g>
  <g
     id="amarok">
    <g
       transform="translate(-1.3064263e-7,-0.5)"
       id="g4326">
      <path
         inkscape:connector-curvature="0"
         style="opacity:0.45;fill:#ffffff;fill-opacity:1;stroke:none"
         id="path4310"
         d="m 18.985395,3.2507466 c -3.165284,0.506183 -6.339334,1.487648 -9.5021363,2.006761 -0.860851,0.431998 -0.552803,1.529169 -0.608269,2.303119 0,3.3485364 0,5.6432594 0,8.9917954 -2.210236,-0.492603 -4.7610526,1.231793 -4.7799507,3.57422 -0.099513,1.504264 1.3518672,2.750695 2.8119677,2.612932 1.97922,-0.101504 3.7909943,-2.018768 3.5790723,-4.065998 0,-3.348901 0,-6.165877 0,-9.5147774 2.610326,-0.376389 5.215072,-1.317276 7.825291,-1.694375 0,2.5815584 0,5.1581104 0,7.7396684 -2.117935,-0.610157 -4.666136,0.788555 -5.017091,3.024555 -0.293452,1.317704 0.627348,2.642121 1.885102,3.018713 2.354374,0.771759 4.987872,-1.50445 4.710197,-3.938558 -0.0066,-4.565686 0.01981,-8.5518534 0,-13.1175254 -0.05533,-0.453822 -0.409881,-0.963476 -0.904183,-0.94053 z" />
      <path
         d="m 18.985395,2.250747 c -3.165284,0.506183 -6.339334,1.487648 -9.5021363,2.006761 -0.860851,0.431998 -0.552803,1.529169 -0.608269,2.303119 0,3.348536 0,5.643259 0,8.991795 -2.210236,-0.492603 -4.7610526,1.231793 -4.7799507,3.57422 -0.099513,1.504264 1.3518672,2.750695 2.8119677,2.612932 1.97922,-0.101504 3.7909943,-2.018768 3.5790723,-4.065998 0,-3.348901 0,-6.165877 0,-9.514777 2.610326,-0.376389 5.215072,-1.317276 7.825291,-1.694375 0,2.581558 0,5.15811 0,7.739668 -2.117935,-0.610157 -4.666136,0.788555 -5.017091,3.024555 -0.293452,1.317704 0.627348,2.642121 1.885102,3.018713 2.354374,0.771759 4.987872,-1.50445 4.710197,-3.938558 -0.0066,-4.565686 0.01981,-8.551853 0,-13.117525 -0.05533,-0.453822 -0.409881,-0.963476 -0.904183,-0.94053 z"
         id="path3406"
         style="opacity:1;fill:#4a4a4a;fill-opacity:1;stroke:none"
         inkscape:connector-curvature="0" />
    </g>
    <rect
       ry="0"
       y="0"
       x="0"
       height="24"
       width="24"
       id="rect4324"
       style="opacity:0;fill:#ffffff;fill-opacity:1;stroke:none" />
  </g>
</svg>
