<?xml version="1.0" encoding="UTF-8" standalone="no"?>
<!-- Created with Inkscape (http://www.inkscape.org/) -->

<svg
   xmlns:dc="http://purl.org/dc/elements/1.1/"
   xmlns:cc="http://creativecommons.org/ns#"
   xmlns:rdf="http://www.w3.org/1999/02/22-rdf-syntax-ns#"
   xmlns:svg="http://www.w3.org/2000/svg"
   xmlns="http://www.w3.org/2000/svg"
   xmlns:xlink="http://www.w3.org/1999/xlink"
   xmlns:sodipodi="http://sodipodi.sourceforge.net/DTD/sodipodi-0.dtd"
   xmlns:inkscape="http://www.inkscape.org/namespaces/inkscape"
   width="24"
   height="24"
   id="svg4575"
   version="1.1"
   inkscape:version="0.48.3.1 r9886"
   sodipodi:docname="bangarang.svg">
  <defs
     id="defs4577">
    <linearGradient
       id="linearGradient4511">
      <stop
         style="stop-color:#000000;stop-opacity:1;"
         offset="0"
         id="stop4513" />
      <stop
         style="stop-color:#363636;stop-opacity:1;"
         offset="1"
         id="stop4515" />
    </linearGradient>
    <linearGradient
       id="linearGradient4600">
      <stop
         style="stop-color:#000000;stop-opacity:1;"
         offset="0"
         id="stop4602" />
      <stop
         style="stop-color:#363636;stop-opacity:1;"
         offset="1"
         id="stop4604" />
    </linearGradient>
    <linearGradient
       id="linearGradient4607">
      <stop
         style="stop-color:#000000;stop-opacity:1;"
         offset="0"
         id="stop4609" />
      <stop
         style="stop-color:#363636;stop-opacity:1;"
         offset="1"
         id="stop4611" />
    </linearGradient>
    <linearGradient
       id="linearGradient4511-5">
      <stop
         style="stop-color:#4a4a4a;stop-opacity:1;"
         offset="0"
         id="stop4513-4" />
      <stop
         style="stop-color:#4a4a4a;stop-opacity:1;"
         offset="1"
         id="stop4515-7" />
    </linearGradient>
    <linearGradient
       id="linearGradient4025">
      <stop
         style="stop-color:#000000;stop-opacity:1;"
         offset="0"
         id="stop4027" />
      <stop
         style="stop-color:#363636;stop-opacity:1;"
         offset="1"
         id="stop4029" />
    </linearGradient>
    <linearGradient
       inkscape:collect="always"
       xlink:href="#linearGradient4511-5"
       id="linearGradient3984"
       gradientUnits="userSpaceOnUse"
       gradientTransform="matrix(0.51282051,0,0,0.51282051,5.283653,3.34615)"
       x1="36.314064"
       y1="-6.327035"
       x2="36.314064"
       y2="32.672966" />
    <linearGradient
       id="linearGradient4032">
      <stop
         style="stop-color:#000000;stop-opacity:1;"
         offset="0"
         id="stop4034" />
      <stop
         style="stop-color:#363636;stop-opacity:1;"
         offset="1"
         id="stop4036" />
    </linearGradient>
    <linearGradient
       inkscape:collect="always"
       xlink:href="#linearGradient4511-5"
       id="linearGradient3867"
       gradientUnits="userSpaceOnUse"
       x1="57.92841"
       y1="219.86833"
       x2="57.92841"
       y2="239.86833" />
    <linearGradient
       inkscape:collect="always"
       xlink:href="#linearGradient4511-5"
       id="linearGradient3877"
       gradientUnits="userSpaceOnUse"
       gradientTransform="matrix(0.5853279,0,0,0.51329963,37.580179,223.36388)"
       x1="34.763813"
       y1="-6.809947"
       x2="34.763813"
       y2="32.153648" />
    <linearGradient
       inkscape:collect="always"
       xlink:href="#linearGradient4511-5"
       id="linearGradient3885"
       gradientUnits="userSpaceOnUse"
       gradientTransform="matrix(0.51282051,0,0,0.51282051,5.283653,3.34615)"
       x1="36.314064"
       y1="-6.327035"
       x2="36.314064"
       y2="32.672966" />
    <linearGradient
       inkscape:collect="always"
       xlink:href="#linearGradient4511-5"
       id="linearGradient4668"
       x1="424"
       y1="600.36218"
       x2="424"
       y2="620.36218"
       gradientUnits="userSpaceOnUse" />
    <linearGradient
       inkscape:collect="always"
       xlink:href="#linearGradient4511-5"
       id="linearGradient4674"
       gradientUnits="userSpaceOnUse"
       x1="424"
       y1="600.36218"
       x2="424"
       y2="620.36218" />
    <linearGradient
       inkscape:collect="always"
       xlink:href="#linearGradient4511-5"
       id="linearGradient4682"
       gradientUnits="userSpaceOnUse"
       x1="424"
       y1="600.36218"
       x2="424"
       y2="620.36218" />
    <linearGradient
       inkscape:collect="always"
       xlink:href="#linearGradient4511-5"
       id="linearGradient4690"
       gradientUnits="userSpaceOnUse"
       x1="424"
       y1="600.36218"
       x2="424"
       y2="620.36218" />
    <linearGradient
       inkscape:collect="always"
       xlink:href="#linearGradient4511-5"
       id="linearGradient4694"
       gradientUnits="userSpaceOnUse"
       x1="424"
       y1="600.36218"
       x2="424"
       y2="620.36218" />
    <linearGradient
       inkscape:collect="always"
       xlink:href="#linearGradient4511-4"
       id="linearGradient3960"
       gradientUnits="userSpaceOnUse"
       gradientTransform="matrix(0.5853279,0,0,0.51329963,81.086429,194.8404)"
       x1="20.443094"
       y1="1.7591"
       x2="20.443094"
       y2="21.7591" />
    <linearGradient
       id="linearGradient4511-4">
      <stop
         style="stop-color:#000000;stop-opacity:1;"
         offset="0"
         id="stop4513-9" />
      <stop
         style="stop-color:#363636;stop-opacity:1;"
         offset="1"
         id="stop4515-1" />
    </linearGradient>
    <linearGradient
       y2="21.7591"
       x2="20.443094"
       y1="1.7591"
       x1="20.443094"
       gradientTransform="matrix(0.32193034,0,0,0.28231481,412.77466,603.59673)"
       gradientUnits="userSpaceOnUse"
       id="linearGradient3063"
       xlink:href="#linearGradient4511-4"
       inkscape:collect="always" />
    <linearGradient
       inkscape:collect="always"
       xlink:href="#linearGradient4511-4"
       id="linearGradient4714"
       gradientUnits="userSpaceOnUse"
       gradientTransform="matrix(0.32193034,0,0,0.28231481,412.77466,603.59673)"
       x1="37.975109"
       y1="-11.457245"
       x2="37.975109"
       y2="59.385654" />
    <linearGradient
       inkscape:collect="always"
       xlink:href="#linearGradient4511-4"
       id="linearGradient4724"
       gradientUnits="userSpaceOnUse"
       gradientTransform="matrix(0.32193034,0,0,0.28231481,412.77466,603.59673)"
       x1="37.975109"
       y1="-11.457245"
       x2="37.975109"
       y2="59.385654" />
    <linearGradient
       inkscape:collect="always"
       xlink:href="#linearGradient4511-2"
       id="linearGradient3176"
       gradientUnits="userSpaceOnUse"
       gradientTransform="matrix(0.28205128,0,0,0.28205128,413.40319,486.35581)"
       x1="36.314064"
       y1="-6.327035"
       x2="36.314064"
       y2="32.672966" />
    <linearGradient
       id="linearGradient4511-2">
      <stop
         style="stop-color:#000000;stop-opacity:1;"
         offset="0"
         id="stop4513-5" />
      <stop
         style="stop-color:#363636;stop-opacity:1;"
         offset="1"
         id="stop4515-76" />
    </linearGradient>
    <linearGradient
       inkscape:collect="always"
       xlink:href="#linearGradient4511-2"
       id="linearGradient3179"
       gradientUnits="userSpaceOnUse"
       gradientTransform="matrix(0.51282051,0,0,0.51282051,88.377401,-21.052336)"
       x1="36.314064"
       y1="-6.327035"
       x2="36.314064"
       y2="32.672966" />
    <linearGradient
       id="linearGradient3221">
      <stop
         style="stop-color:#000000;stop-opacity:1;"
         offset="0"
         id="stop3223" />
      <stop
         style="stop-color:#363636;stop-opacity:1;"
         offset="1"
         id="stop3225" />
    </linearGradient>
    <linearGradient
       y2="32.672966"
       x2="36.314064"
       y1="-6.327035"
       x1="36.314064"
       gradientTransform="matrix(0.28205128,0,0,0.28205128,413.40319,486.35581)"
       gradientUnits="userSpaceOnUse"
       id="linearGradient3229"
       xlink:href="#linearGradient4511-2"
       inkscape:collect="always" />
    <linearGradient
       inkscape:collect="always"
       xlink:href="#linearGradient4511-2"
       id="linearGradient4767"
       gradientUnits="userSpaceOnUse"
       gradientTransform="matrix(0.28205128,0,0,0.28205128,413.40319,486.35581)"
       x1="36.314064"
       y1="-6.327035"
       x2="36.314064"
       y2="32.672966" />
    <linearGradient
       inkscape:collect="always"
       xlink:href="#linearGradient4511-2"
       id="linearGradient4769"
       gradientUnits="userSpaceOnUse"
       gradientTransform="matrix(0.28205128,0,0,0.28205128,413.40319,486.35581)"
       x1="36.314064"
       y1="-6.327035"
       x2="36.314064"
       y2="32.672966" />
    <linearGradient
       inkscape:collect="always"
       xlink:href="#linearGradient4511-5"
       id="linearGradient4786"
       x1="443.53226"
       y1="604.13098"
       x2="443.53226"
       y2="624.13098"
       gradientUnits="userSpaceOnUse" />
    <linearGradient
       inkscape:collect="always"
       xlink:href="#linearGradient4511-5"
       id="linearGradient4800"
       gradientUnits="userSpaceOnUse"
       x1="443.53226"
       y1="604.13098"
       x2="443.53226"
       y2="624.13098" />
    <linearGradient
       inkscape:collect="always"
       xlink:href="#linearGradient4511-5"
       id="linearGradient4810"
       gradientUnits="userSpaceOnUse"
       x1="443.53226"
       y1="604.13098"
       x2="443.53226"
       y2="624.13098" />
    <linearGradient
       inkscape:collect="always"
       xlink:href="#linearGradient4511-5"
       id="linearGradient4816"
       gradientUnits="userSpaceOnUse"
       x1="424"
       y1="600.36218"
       x2="424"
       y2="620.36218" />
  </defs>
  <sodipodi:namedview
     id="base"
     pagecolor="#000000"
     bordercolor="#666666"
     borderopacity="1.0"
     inkscape:pageopacity="0.46666667"
     inkscape:pageshadow="2"
     inkscape:zoom="5.6"
     inkscape:cx="35.500278"
     inkscape:cy="28.127004"
     inkscape:document-units="px"
     inkscape:current-layer="layer1"
     showgrid="true"
     fit-margin-top="0"
     fit-margin-left="0"
     fit-margin-right="0"
     fit-margin-bottom="0"
     inkscape:window-width="1360"
     inkscape:window-height="701"
     inkscape:window-x="-2"
     inkscape:window-y="-3"
     inkscape:window-maximized="1">
    <inkscape:grid
       type="xygrid"
       id="grid4684"
       empspacing="5"
       visible="true"
       enabled="true"
       snapvisiblegridlinesonly="true"
       originx="-402.99274px"
       originy="-430.46883px" />
  </sodipodi:namedview>
  <metadata
     id="metadata4580">
    <rdf:RDF>
      <cc:Work
         rdf:about="">
        <dc:format>image/svg+xml</dc:format>
        <dc:type
           rdf:resource="http://purl.org/dc/dcmitype/StillImage" />
        <dc:title />
      </cc:Work>
    </rdf:RDF>
  </metadata>
  <g
     inkscape:label="Capa 1"
     inkscape:groupmode="layer"
     id="layer1"
     transform="translate(-402.99274,-597.89335)">
    <g
       id="bangarang-notifier">
      <g
         transform="translate(9.5319422e-7,-0.49999408)"
         id="g4676">
        <path
           sodipodi:nodetypes="ccscccsscccccssssscscsssssssccccccccccccccccscscccccccccccccccccccscsccscscccccccccccccccccccccccccccccccccccc"
           inkscape:connector-curvature="0"
           id="path4670"
           d="m 417.56641,601.14333 c -5.37056,0.0322 -6.11699,0.0959 -6.34547,0.24563 -0.54836,0.3594 -0.5322,0.31159 -0.5322,7.73738 l 0,6.87768 -0.81877,0.0819 c -1.41804,0.0821 -2.74304,0.86851 -3.27509,2.00598 -0.30172,0.64504 -0.30948,0.90645 -0.0409,1.43285 0.56556,1.10859 2.07381,1.44296 3.47978,0.77783 0.69193,-0.32733 1.46028,-1.06883 1.76035,-1.67848 0.17601,-0.35745 0.2155,-0.67287 0.24563,-2.16974 l 0.0409,-1.76035 5.77233,0 5.77233,0 0,-0.36845 c 0,-0.203 -0.0238,-0.36845 -0.0819,-0.36845 -0.0637,0 -0.12275,-0.4784 -0.12275,-1.14628 0,-0.66787 0.0592,-1.10534 0.12275,-1.10534 0.058,0 0.0819,-0.16544 0.0819,-0.36844 l 0,-0.36845 -0.49126,0 c -0.27841,0 -0.54451,-0.0532 -0.61408,-0.12275 -0.0924,-0.0924 -0.16375,-0.89279 -0.16375,-3.02945 0,-3.30274 -0.0186,-3.15227 0.85971,-3.15227 0.38701,0 0.40938,-0.0486 0.40938,-0.28657 0,-0.14495 -0.0238,-0.24563 -0.0819,-0.24563 -0.0637,0 -0.12275,-0.43746 -0.12275,-1.10534 0,-0.66788 0.0592,-1.10534 0.12275,-1.10534 0.058,0 0.0819,-0.19188 0.0819,-0.40939 l 0,-0.36844 z m -5.40389,0.77783 1.06441,0 1.0644,0.0409 0,1.0644 0,1.0644 -1.0644,0 -1.06441,0.0409 0,-1.10534 z m 5.56765,0 1.10534,0 1.10534,0 0,1.10534 0,1.10534 -1.02347,0 c -0.57033,0 -1.06669,-0.0432 -1.10534,-0.0819 -0.0386,-0.0387 -0.0819,-0.53501 -0.0819,-1.10534 z m 2.86569,0 1.10534,0 1.10534,0 0,1.10534 0,1.10534 -1.10534,0 -1.10534,0 0,-1.10534 z m -5.64952,0.0409 1.10535,0 1.10534,0 0,1.0644 0,1.0644 -1.06441,0 c -0.83848,0.0233 -1.10357,0.0295 -1.14628,-0.0819 -0.0309,-0.0791 -0.0578,-0.58794 -0.0409,-1.10534 z m 1.92412,2.70194 c 4.32841,0 4.45649,-0.005 4.66699,0.20469 0.20825,0.20831 0.23482,0.32179 0.20469,3.07039 -0.0262,2.3919 -0.0718,2.8636 -0.20469,2.94758 -0.24874,0.15706 -9.21686,0.11711 -9.37493,-0.0409 -0.0923,-0.0923 -0.12275,-0.89278 -0.12275,-3.02945 0,-2.78681 0.0105,-2.92556 0.2047,-3.02945 0.13133,-0.0702 1.76987,-0.12275 4.62605,-0.12275 z m -4.70794,7.04143 1.10535,0 1.10534,0 -0.0409,1.10534 -0.0409,1.0644 -1.0644,0.0409 -1.0644,0.0409 0,-1.10534 z m 5.56765,0 1.10534,0 1.10534,0 0,1.10534 0,1.14628 -1.10534,0 -1.10534,0 0,-1.14628 z m 2.86569,0 1.10534,0 1.10534,0 0,1.10534 0,1.14628 -1.10534,0 -1.10534,0 0,-1.14628 z m -5.64952,0.0819 1.10535,0 1.10534,0 0,1.02347 0,1.0644 -1.06441,0.0409 c -0.83848,0.0233 -1.10357,-0.0118 -1.14628,-0.12275 -0.0309,-0.0791 -0.0578,-0.54699 -0.0409,-1.0644 z"
           style="opacity:0.45;fill:#ffffff;fill-opacity:1;stroke:none" />
        <path
           style="opacity:1;fill:url(#linearGradient4816);fill-opacity:1;stroke:none"
           d="m 417.56641,600.14334 c -5.37056,0.0322 -6.11699,0.0959 -6.34547,0.24563 -0.54836,0.3594 -0.5322,0.31159 -0.5322,7.73738 l 0,6.87768 -0.81877,0.0819 c -1.41804,0.0821 -2.74304,0.86851 -3.27509,2.00598 -0.30172,0.64504 -0.30948,0.90645 -0.0409,1.43285 0.56556,1.10859 2.07381,1.44296 3.47978,0.77783 0.69193,-0.32733 1.46028,-1.06883 1.76035,-1.67848 0.17601,-0.35745 0.2155,-0.67287 0.24563,-2.16974 l 0.0409,-1.76035 5.77233,0 5.77233,0 0,-0.36845 c 0,-0.203 -0.0238,-0.36845 -0.0819,-0.36845 -0.0637,0 -0.12275,-0.4784 -0.12275,-1.14628 0,-0.66787 0.0592,-1.10534 0.12275,-1.10534 0.058,0 0.0819,-0.16544 0.0819,-0.36844 l 0,-0.36845 -0.49126,0 c -0.27841,0 -0.54451,-0.0532 -0.61408,-0.12275 -0.0924,-0.0924 -0.16375,-0.89279 -0.16375,-3.02945 0,-3.30274 -0.0186,-3.15227 0.85971,-3.15227 0.38701,0 0.40938,-0.0486 0.40938,-0.28657 0,-0.14495 -0.0238,-0.24563 -0.0819,-0.24563 -0.0637,0 -0.12275,-0.43746 -0.12275,-1.10534 0,-0.66788 0.0592,-1.10534 0.12275,-1.10534 0.058,0 0.0819,-0.19188 0.0819,-0.40939 l 0,-0.36844 z m -5.40389,0.77783 1.06441,0 1.0644,0.0409 0,1.0644 0,1.0644 -1.0644,0 -1.06441,0.0409 0,-1.10534 z m 5.56765,0 1.10534,0 1.10534,0 0,1.10534 0,1.10534 -1.02347,0 c -0.57033,0 -1.06669,-0.0432 -1.10534,-0.0819 -0.0386,-0.0387 -0.0819,-0.53501 -0.0819,-1.10534 z m 2.86569,0 1.10534,0 1.10534,0 0,1.10534 0,1.10534 -1.10534,0 -1.10534,0 0,-1.10534 z m -5.64952,0.0409 1.10535,0 1.10534,0 0,1.0644 0,1.0644 -1.06441,0 c -0.83848,0.0233 -1.10357,0.0295 -1.14628,-0.0819 -0.0309,-0.0791 -0.0578,-0.58794 -0.0409,-1.10534 z m 1.92412,2.70194 c 4.32841,0 4.45649,-0.005 4.66699,0.20469 0.20825,0.20831 0.23482,0.32179 0.20469,3.07039 -0.0262,2.3919 -0.0718,2.8636 -0.20469,2.94758 -0.24874,0.15706 -9.21686,0.11711 -9.37493,-0.0409 -0.0923,-0.0923 -0.12275,-0.89278 -0.12275,-3.02945 0,-2.78681 0.0105,-2.92556 0.2047,-3.02945 0.13133,-0.0702 1.76987,-0.12275 4.62605,-0.12275 z m -4.70794,7.04143 1.10535,0 1.10534,0 -0.0409,1.10534 -0.0409,1.0644 -1.0644,0.0409 -1.0644,0.0409 0,-1.10534 z m 5.56765,0 1.10534,0 1.10534,0 0,1.10534 0,1.14628 -1.10534,0 -1.10534,0 0,-1.14628 z m 2.86569,0 1.10534,0 1.10534,0 0,1.10534 0,1.14628 -1.10534,0 -1.10534,0 0,-1.14628 z m -5.64952,0.0819 1.10535,0 1.10534,0 0,1.02347 0,1.0644 -1.06441,0.0409 c -0.83848,0.0233 -1.10357,-0.0118 -1.14628,-0.12275 -0.0309,-0.0791 -0.0578,-0.54699 -0.0409,-1.0644 z"
           id="rect4656"
           inkscape:connector-curvature="0"
           sodipodi:nodetypes="ccscccsscccccssssscscsssssssccccccccccccccccscscccccccccccccccccccscsccscscccccccccccccccccccccccccccccccccccc" />
      </g>
      <rect
         y="597.89337"
         x="402.99274"
         height="24"
         width="24"
         id="rect4680"
         style="opacity:0;fill:#ffffff;fill-opacity:1;stroke:none" />
    </g>
    <g
       id="bangarang-notifier-active"
       transform="translate(52.007263,-2.1582031e-5)">
      <rect
         y="597.89337"
         x="402.99274"
         height="24"
         width="24"
         id="rect4726"
         style="opacity:0;fill:#ffffff;fill-opacity:1;stroke:none" />
      <g
         transform="translate(9.5319422e-7,-0.49999408)"
         id="g4720">
        <path
           d="m 415.49274,610.59334 3.94889,-2.7243 -3.94889,-2.7757 m 2.07367,-3.95001 c -5.37056,0.0322 -6.11699,0.0959 -6.34547,0.24563 -0.54836,0.3594 -0.5322,0.31159 -0.5322,7.73738 l 0,6.87768 -0.81877,0.0819 c -1.41804,0.0821 -2.74304,0.86851 -3.27509,2.00598 -0.30172,0.64504 -0.30948,0.90645 -0.0409,1.43285 0.56556,1.10859 2.07381,1.44296 3.47978,0.77783 0.69193,-0.32733 1.46028,-1.06883 1.76035,-1.67848 0.17601,-0.35745 0.2155,-0.67287 0.24563,-2.16974 l 0.0409,-1.76035 5.77233,0 5.77233,0 0,-0.36845 c 0,-0.203 -0.0238,-0.36845 -0.0819,-0.36845 -0.0637,0 -0.12275,-0.4784 -0.12275,-1.14628 0,-0.66787 0.0592,-1.10534 0.12275,-1.10534 0.058,0 0.0819,-0.16544 0.0819,-0.36844 l 0,-0.36845 -0.49126,0 c -0.27841,0 -0.54451,-0.0532 -0.61408,-0.12275 -0.0924,-0.0924 -0.16375,-0.89279 -0.16375,-3.02945 0,-3.30274 -0.0186,-3.15227 0.85971,-3.15227 0.38701,0 0.40938,-0.0486 0.40938,-0.28657 0,-0.14495 -0.0238,-0.24563 -0.0819,-0.24563 -0.0637,0 -0.12275,-0.43746 -0.12275,-1.10534 0,-0.66788 0.0592,-1.10534 0.12275,-1.10534 0.058,0 0.0819,-0.19188 0.0819,-0.40939 l 0,-0.36844 z m -5.40389,0.77783 1.06441,0 1.0644,0.0409 0,1.0644 0,1.0644 -1.0644,0 -1.06441,0.0409 0,-1.10534 z m 5.56765,0 1.10534,0 1.10534,0 0,1.10534 0,1.10534 -1.02347,0 c -0.57033,0 -1.06669,-0.0432 -1.10534,-0.0819 -0.0386,-0.0387 -0.0819,-0.53501 -0.0819,-1.10534 z m 2.86569,0 1.10534,0 1.10534,0 0,1.10534 0,1.10534 -1.10534,0 -1.10534,0 0,-1.10534 z m -5.64952,0.0409 1.10535,0 1.10534,0 0,1.0644 0,1.0644 -1.06441,0 c -0.83848,0.0233 -1.10357,0.0295 -1.14628,-0.0819 -0.0309,-0.0791 -0.0578,-0.58794 -0.0409,-1.10534 z m 1.92412,2.70194 c 4.32841,0 4.45649,-0.005 4.66699,0.20469 0.20825,0.20831 0.23482,0.32179 0.20469,3.07039 -0.0262,2.3919 -0.0718,2.8636 -0.20469,2.94758 -0.24874,0.15706 -9.21686,0.11711 -9.37493,-0.0409 -0.0923,-0.0923 -0.12275,-0.89278 -0.12275,-3.02945 0,-2.78681 0.0105,-2.92556 0.2047,-3.02945 0.13133,-0.0702 1.76987,-0.12275 4.62605,-0.12275 z m -4.70794,7.04143 1.10535,0 1.10534,0 -0.0409,1.10534 -0.0409,1.0644 -1.0644,0.0409 -1.0644,0.0409 0,-1.10534 z m 5.56765,0 1.10534,0 1.10534,0 0,1.10534 0,1.14628 -1.10534,0 -1.10534,0 0,-1.14628 z m 2.86569,0 1.10534,0 1.10534,0 0,1.10534 0,1.14628 -1.10534,0 -1.10534,0 0,-1.14628 z m -5.64952,0.0819 1.10535,0 1.10534,0 0,1.02347 0,1.0644 -1.06441,0.0409 c -0.83848,0.0233 -1.10357,-0.0118 -1.14628,-0.12275 -0.0309,-0.0791 -0.0578,-0.54699 -0.0409,-1.0644 z"
           style="opacity:0.45;fill:#ffffff;fill-opacity:1;stroke:none"
           id="path4716"
           inkscape:connector-curvature="0" />
        <path
           inkscape:connector-curvature="0"
           id="path3958"
           style="opacity:1;fill:#4a4a4a;fill-opacity:1;stroke:none"
           d="m 415.49274,609.59335 3.94889,-2.7243 -3.94889,-2.7757 m 2.07367,-3.95001 c -5.37056,0.0322 -6.11699,0.0959 -6.34547,0.24563 -0.54836,0.3594 -0.5322,0.31159 -0.5322,7.73738 l 0,6.87768 -0.81877,0.0819 c -1.41804,0.0821 -2.74304,0.86851 -3.27509,2.00598 -0.30172,0.64504 -0.30948,0.90645 -0.0409,1.43285 0.56556,1.10859 2.07381,1.44296 3.47978,0.77783 0.69193,-0.32733 1.46028,-1.06883 1.76035,-1.67848 0.17601,-0.35745 0.2155,-0.67287 0.24563,-2.16974 l 0.0409,-1.76035 5.77233,0 5.77233,0 0,-0.36845 c 0,-0.203 -0.0238,-0.36845 -0.0819,-0.36845 -0.0637,0 -0.12275,-0.4784 -0.12275,-1.14628 0,-0.66787 0.0592,-1.10534 0.12275,-1.10534 0.058,0 0.0819,-0.16544 0.0819,-0.36844 l 0,-0.36845 -0.49126,0 c -0.27841,0 -0.54451,-0.0532 -0.61408,-0.12275 -0.0924,-0.0924 -0.16375,-0.89279 -0.16375,-3.02945 0,-3.30274 -0.0186,-3.15227 0.85971,-3.15227 0.38701,0 0.40938,-0.0486 0.40938,-0.28657 0,-0.14495 -0.0238,-0.24563 -0.0819,-0.24563 -0.0637,0 -0.12275,-0.43746 -0.12275,-1.10534 0,-0.66788 0.0592,-1.10534 0.12275,-1.10534 0.058,0 0.0819,-0.19188 0.0819,-0.40939 l 0,-0.36844 z m -5.40389,0.77783 1.06441,0 1.0644,0.0409 0,1.0644 0,1.0644 -1.0644,0 -1.06441,0.0409 0,-1.10534 z m 5.56765,0 1.10534,0 1.10534,0 0,1.10534 0,1.10534 -1.02347,0 c -0.57033,0 -1.06669,-0.0432 -1.10534,-0.0819 -0.0386,-0.0387 -0.0819,-0.53501 -0.0819,-1.10534 z m 2.86569,0 1.10534,0 1.10534,0 0,1.10534 0,1.10534 -1.10534,0 -1.10534,0 0,-1.10534 z m -5.64952,0.0409 1.10535,0 1.10534,0 0,1.0644 0,1.0644 -1.06441,0 c -0.83848,0.0233 -1.10357,0.0295 -1.14628,-0.0819 -0.0309,-0.0791 -0.0578,-0.58794 -0.0409,-1.10534 z m 1.92412,2.70194 c 4.32841,0 4.45649,-0.005 4.66699,0.20469 0.20825,0.20831 0.23482,0.32179 0.20469,3.07039 -0.0262,2.3919 -0.0718,2.8636 -0.20469,2.94758 -0.24874,0.15706 -9.21686,0.11711 -9.37493,-0.0409 -0.0923,-0.0923 -0.12275,-0.89278 -0.12275,-3.02945 0,-2.78681 0.0105,-2.92556 0.2047,-3.02945 0.13133,-0.0702 1.76987,-0.12275 4.62605,-0.12275 z m -4.70794,7.04143 1.10535,0 1.10534,0 -0.0409,1.10534 -0.0409,1.0644 -1.0644,0.0409 -1.0644,0.0409 0,-1.10534 z m 5.56765,0 1.10534,0 1.10534,0 0,1.10534 0,1.14628 -1.10534,0 -1.10534,0 0,-1.14628 z m 2.86569,0 1.10534,0 1.10534,0 0,1.10534 0,1.14628 -1.10534,0 -1.10534,0 0,-1.14628 z m -5.64952,0.0819 1.10535,0 1.10534,0 0,1.02347 0,1.0644 -1.06441,0.0409 c -0.83848,0.0233 -1.10357,-0.0118 -1.14628,-0.12275 -0.0309,-0.0791 -0.0578,-0.54699 -0.0409,-1.0644 z" />
      </g>
    </g>
    <g
       id="bangarang-notifier-active-pause"
       transform="translate(28.007263,-2.1582031e-5)">
      <g
         transform="translate(9.5319422e-7,-0.49999498)"
         id="g4792">
        <g
           transform="translate(-18.53226,-2.7688382)"
           id="g4788"
           style="fill:#ffffff">
          <path
             d="m 435.84375,607.86218 0,5.5 1.03125,0 0,-5.5 -1.03125,0 z m -1.71875,0 0,5.5 1.03125,0 0,-5.5 -1.03125,0 z m 1.97367,-3.95001 c -5.37056,0.0322 -6.11699,0.0959 -6.34547,0.24563 -0.54836,0.3594 -0.5322,0.31159 -0.5322,7.73738 l 0,6.87768 -0.81877,0.0819 c -1.41804,0.0821 -2.74304,0.86851 -3.27509,2.00598 -0.30172,0.64504 -0.30948,0.90645 -0.0409,1.43285 0.56556,1.10859 2.07381,1.44296 3.47978,0.77783 0.69193,-0.32733 1.46028,-1.06883 1.76035,-1.67848 0.17601,-0.35745 0.2155,-0.67287 0.24563,-2.16974 l 0.0409,-1.76035 5.77233,0 5.77233,0 0,-0.36845 c 0,-0.203 -0.0238,-0.36845 -0.0819,-0.36845 -0.0637,0 -0.12275,-0.4784 -0.12275,-1.14628 0,-0.66787 0.0592,-1.10534 0.12275,-1.10534 0.058,0 0.0819,-0.16544 0.0819,-0.36844 l 0,-0.36845 -0.49126,0 c -0.27841,0 -0.54451,-0.0532 -0.61408,-0.12275 -0.0924,-0.0924 -0.16375,-0.89279 -0.16375,-3.02945 0,-3.30274 -0.0186,-3.15227 0.85971,-3.15227 0.38701,0 0.40938,-0.0486 0.40938,-0.28657 0,-0.14495 -0.0238,-0.24563 -0.0819,-0.24563 -0.0637,0 -0.12275,-0.43746 -0.12275,-1.10534 0,-0.66788 0.0592,-1.10534 0.12275,-1.10534 0.058,0 0.0819,-0.19188 0.0819,-0.40939 l 0,-0.36844 z m -5.40389,0.77783 1.06441,0 1.0644,0.0409 0,1.0644 0,1.0644 -1.0644,0 -1.06441,0.0409 0,-1.10534 z m 5.56765,0 1.10534,0 1.10534,0 0,1.10534 0,1.10534 -1.02347,0 c -0.57033,0 -1.06669,-0.0432 -1.10534,-0.0819 -0.0386,-0.0387 -0.0819,-0.53501 -0.0819,-1.10534 z m 2.86569,0 1.10534,0 1.10534,0 0,1.10534 0,1.10534 -1.10534,0 -1.10534,0 0,-1.10534 z m -5.64952,0.0409 1.10535,0 1.10534,0 0,1.0644 0,1.0644 -1.06441,0 c -0.83848,0.0233 -1.10357,0.0295 -1.14628,-0.0819 -0.0309,-0.0791 -0.0578,-0.58794 -0.0409,-1.10534 z m 1.92412,2.70194 c 4.32841,0 4.45649,-0.005 4.66699,0.20469 0.20825,0.20831 0.23482,0.32179 0.20469,3.07039 -0.0262,2.3919 -0.0718,2.8636 -0.20469,2.94758 -0.24874,0.15706 -9.21686,0.11711 -9.37493,-0.0409 -0.0923,-0.0923 -0.12275,-0.89278 -0.12275,-3.02945 0,-2.78681 0.0105,-2.92556 0.2047,-3.02945 0.13133,-0.0702 1.76987,-0.12275 4.62605,-0.12275 z m -4.70794,7.04143 1.10535,0 1.10534,0 -0.0409,1.10534 -0.0409,1.0644 -1.0644,0.0409 -1.0644,0.0409 0,-1.10534 z m 5.56765,0 1.10534,0 1.10534,0 0,1.10534 0,1.14628 -1.10534,0 -1.10534,0 0,-1.14628 z m 2.86569,0 1.10534,0 1.10534,0 0,1.10534 0,1.14628 -1.10534,0 -1.10534,0 0,-1.14628 z m -5.64952,0.0819 1.10535,0 1.10534,0 0,1.02347 0,1.0644 -1.06441,0.0409 c -0.83848,0.0233 -1.10357,-0.0118 -1.14628,-0.12275 -0.0309,-0.0791 -0.0578,-0.54699 -0.0409,-1.0644 z"
             style="opacity:0.45;fill:#ffffff;fill-opacity:1;stroke:none"
             id="path4790"
             inkscape:connector-curvature="0" />
        </g>
        <g
           id="g4763"
           transform="translate(-18.53226,-3.76883)">
          <path
             inkscape:connector-curvature="0"
             id="path3085"
             style="opacity:1;fill:url(#linearGradient4810);fill-opacity:1;stroke:none"
             d="m 435.84375,607.86218 0,5.5 1.03125,0 0,-5.5 -1.03125,0 z m -1.71875,0 0,5.5 1.03125,0 0,-5.5 -1.03125,0 z m 1.97367,-3.95001 c -5.37056,0.0322 -6.11699,0.0959 -6.34547,0.24563 -0.54836,0.3594 -0.5322,0.31159 -0.5322,7.73738 l 0,6.87768 -0.81877,0.0819 c -1.41804,0.0821 -2.74304,0.86851 -3.27509,2.00598 -0.30172,0.64504 -0.30948,0.90645 -0.0409,1.43285 0.56556,1.10859 2.07381,1.44296 3.47978,0.77783 0.69193,-0.32733 1.46028,-1.06883 1.76035,-1.67848 0.17601,-0.35745 0.2155,-0.67287 0.24563,-2.16974 l 0.0409,-1.76035 5.77233,0 5.77233,0 0,-0.36845 c 0,-0.203 -0.0238,-0.36845 -0.0819,-0.36845 -0.0637,0 -0.12275,-0.4784 -0.12275,-1.14628 0,-0.66787 0.0592,-1.10534 0.12275,-1.10534 0.058,0 0.0819,-0.16544 0.0819,-0.36844 l 0,-0.36845 -0.49126,0 c -0.27841,0 -0.54451,-0.0532 -0.61408,-0.12275 -0.0924,-0.0924 -0.16375,-0.89279 -0.16375,-3.02945 0,-3.30274 -0.0186,-3.15227 0.85971,-3.15227 0.38701,0 0.40938,-0.0486 0.40938,-0.28657 0,-0.14495 -0.0238,-0.24563 -0.0819,-0.24563 -0.0637,0 -0.12275,-0.43746 -0.12275,-1.10534 0,-0.66788 0.0592,-1.10534 0.12275,-1.10534 0.058,0 0.0819,-0.19188 0.0819,-0.40939 l 0,-0.36844 z m -5.40389,0.77783 1.06441,0 1.0644,0.0409 0,1.0644 0,1.0644 -1.0644,0 -1.06441,0.0409 0,-1.10534 z m 5.56765,0 1.10534,0 1.10534,0 0,1.10534 0,1.10534 -1.02347,0 c -0.57033,0 -1.06669,-0.0432 -1.10534,-0.0819 -0.0386,-0.0387 -0.0819,-0.53501 -0.0819,-1.10534 z m 2.86569,0 1.10534,0 1.10534,0 0,1.10534 0,1.10534 -1.10534,0 -1.10534,0 0,-1.10534 z m -5.64952,0.0409 1.10535,0 1.10534,0 0,1.0644 0,1.0644 -1.06441,0 c -0.83848,0.0233 -1.10357,0.0295 -1.14628,-0.0819 -0.0309,-0.0791 -0.0578,-0.58794 -0.0409,-1.10534 z m 1.92412,2.70194 c 4.32841,0 4.45649,-0.005 4.66699,0.20469 0.20825,0.20831 0.23482,0.32179 0.20469,3.07039 -0.0262,2.3919 -0.0718,2.8636 -0.20469,2.94758 -0.24874,0.15706 -9.21686,0.11711 -9.37493,-0.0409 -0.0923,-0.0923 -0.12275,-0.89278 -0.12275,-3.02945 0,-2.78681 0.0105,-2.92556 0.2047,-3.02945 0.13133,-0.0702 1.76987,-0.12275 4.62605,-0.12275 z m -4.70794,7.04143 1.10535,0 1.10534,0 -0.0409,1.10534 -0.0409,1.0644 -1.0644,0.0409 -1.0644,0.0409 0,-1.10534 z m 5.56765,0 1.10534,0 1.10534,0 0,1.10534 0,1.14628 -1.10534,0 -1.10534,0 0,-1.14628 z m 2.86569,0 1.10534,0 1.10534,0 0,1.10534 0,1.14628 -1.10534,0 -1.10534,0 0,-1.14628 z m -5.64952,0.0819 1.10535,0 1.10534,0 0,1.02347 0,1.0644 -1.06441,0.0409 c -0.83848,0.0233 -1.10357,-0.0118 -1.14628,-0.12275 -0.0309,-0.0791 -0.0578,-0.54699 -0.0409,-1.0644 z" />
        </g>
      </g>
      <rect
         y="597.89337"
         x="402.99274"
         height="24"
         width="24"
         id="rect4798"
         style="opacity:0;fill:#ffffff;fill-opacity:1;stroke:none" />
    </g>
  </g>
</svg>
