<?xml version="1.0" encoding="UTF-8" standalone="no"?>
<!-- Created with Inkscape (http://www.inkscape.org/) -->

<svg
   xmlns:dc="http://purl.org/dc/elements/1.1/"
   xmlns:cc="http://creativecommons.org/ns#"
   xmlns:rdf="http://www.w3.org/1999/02/22-rdf-syntax-ns#"
   xmlns:svg="http://www.w3.org/2000/svg"
   xmlns="http://www.w3.org/2000/svg"
   xmlns:xlink="http://www.w3.org/1999/xlink"
   xmlns:sodipodi="http://sodipodi.sourceforge.net/DTD/sodipodi-0.dtd"
   xmlns:inkscape="http://www.inkscape.org/namespaces/inkscape"
   width="24"
   height="24"
   id="svg2"
   version="1.1"
   inkscape:version="0.48.3.1 r9886"
   sodipodi:docname="kaffeine.svg">
  <defs
     id="defs4">
    <linearGradient
       inkscape:collect="always"
       xlink:href="#ButtonColor"
       id="linearGradient3875"
       gradientUnits="userSpaceOnUse"
       gradientTransform="translate(-5.9999995,-6)"
       x1="48"
       y1="90"
       x2="48"
       y2="5.9877172" />
    <linearGradient
       x1="58.650177"
       y1="122"
       x2="58.650177"
       y2="5.4252338"
       id="ButtonColor"
       gradientUnits="userSpaceOnUse"
       gradientTransform="matrix(1.0172414,0,0,1.0172414,-1.1034483,-1.1034483)">
      <stop
         id="stop3189"
         style="stop-color:#363636;stop-opacity:1;"
         offset="0" />
      <stop
         id="stop3191"
         style="stop-color:#000000;stop-opacity:1;"
         offset="1" />
    </linearGradient>
    <linearGradient
       id="linearGradient3767">
      <stop
         style="stop-color:#000000;stop-opacity:1;"
         offset="0"
         id="stop3769" />
      <stop
         style="stop-color:#363636;stop-opacity:1;"
         offset="1"
         id="stop3771" />
    </linearGradient>
    <linearGradient
       inkscape:collect="always"
       xlink:href="#linearGradient3784"
       id="linearGradient3968"
       gradientUnits="userSpaceOnUse"
       x1="18"
       y1="6"
       x2="18"
       y2="19" />
    <linearGradient
       id="linearGradient3784">
      <stop
         style="stop-color:#000000;stop-opacity:1;"
         offset="0"
         id="stop3786" />
      <stop
         style="stop-color:#363636;stop-opacity:1;"
         offset="1"
         id="stop3788" />
    </linearGradient>
    <linearGradient
       inkscape:collect="always"
       xlink:href="#linearGradient3784"
       id="linearGradient3970"
       gradientUnits="userSpaceOnUse"
       gradientTransform="translate(244,643.36218)"
       x1="18"
       y1="6"
       x2="18"
       y2="19" />
    <linearGradient
       id="linearGradient3049">
      <stop
         style="stop-color:#000000;stop-opacity:1;"
         offset="0"
         id="stop3051" />
      <stop
         style="stop-color:#363636;stop-opacity:1;"
         offset="1"
         id="stop3053" />
    </linearGradient>
    <linearGradient
       y2="19"
       x2="18"
       y1="6"
       x1="18"
       gradientTransform="translate(244,643.36218)"
       gradientUnits="userSpaceOnUse"
       id="linearGradient3059"
       xlink:href="#linearGradient3784"
       inkscape:collect="always" />
  </defs>
  <sodipodi:namedview
     id="base"
     pagecolor="#000000"
     bordercolor="#666666"
     borderopacity="1.0"
     inkscape:pageopacity="0.45098039"
     inkscape:pageshadow="2"
     inkscape:zoom="16"
     inkscape:cx="3.1796579"
     inkscape:cy="9.617985"
     inkscape:document-units="px"
     inkscape:current-layer="layer1"
     showgrid="true"
     fit-margin-top="0"
     fit-margin-left="0"
     fit-margin-right="0"
     fit-margin-bottom="0"
     inkscape:window-width="1360"
     inkscape:window-height="701"
     inkscape:window-x="-2"
     inkscape:window-y="-3"
     inkscape:window-maximized="1">
    <inkscape:grid
       type="xygrid"
       id="grid3002"
       empspacing="5"
       visible="true"
       enabled="true"
       snapvisiblegridlinesonly="true" />
  </sodipodi:namedview>
  <metadata
     id="metadata7">
    <rdf:RDF>
      <cc:Work
         rdf:about="">
        <dc:format>image/svg+xml</dc:format>
        <dc:type
           rdf:resource="http://purl.org/dc/dcmitype/StillImage" />
        <dc:title />
      </cc:Work>
    </rdf:RDF>
  </metadata>
  <g
     inkscape:label="Capa 1"
     inkscape:groupmode="layer"
     id="layer1"
     transform="translate(-398,-524.6479)">
    <g
       id="kaffeine">
      <rect
         ry="0"
         transform="translate(398,524.6479)"
         y="0"
         x="0"
         height="24"
         width="24"
         id="rect3857"
         style="opacity:0.001;fill:#ffffff;fill-opacity:1;stroke:none" />
      <g
         id="g3847">
        <g
           id="g3835"
           transform="translate(0,1)"
           style="fill:#ffffff">
          <path
             style="opacity:0.45;fill:#ffffff;fill-opacity:1;fill-rule:nonzero;stroke:none"
             d="m 400,526.6479 0,20 3.33333,0 0,-2.35863 c 0,-0.277 0.21238,-0.49851 0.47619,-0.49851 l 12.38096,0 c 0.26381,0 0.47619,0.22151 0.47619,0.49851 l 0,2.35863 3.33333,0 0,-20 -3.33333,0 0,2.35863 c 0,0.277 -0.21238,0.49851 -0.47619,0.49851 l -12.38096,0 c -0.26381,0 -0.47619,-0.22151 -0.47619,-0.49851 l 0,-2.35863 m -2.38095,0.95238 1.42857,0 0,0.95238 -1.42857,0 z m 16.66667,0 1.42857,0 0,0.95238 -1.42857,0 z m -16.66667,1.90476 1.42857,0 0,0.95238 -1.42857,0 z m 16.66667,0 1.42857,0 0,0.95238 -1.42857,0 z m -13.80953,1.42857 12.38096,0 c 0.26381,0 0.47619,0.22152 0.47619,0.49852 l 0,10.43154 c 0,0.277 -0.21238,0.49852 -0.47619,0.49852 l -12.38096,0 c -0.26381,0 -0.47619,-0.22152 -0.47619,-0.49852 l 0,-10.43154 c 0,-0.277 0.21238,-0.49852 0.47619,-0.49852 z m -2.85714,0.47619 1.42857,0 0,0.95239 -1.42857,0 z m 16.66667,0 1.42857,0 0,0.95239 -1.42857,0 z m -16.66667,1.90477 1.42857,0 0,0.95238 -1.42857,0 z m 16.66667,0 1.42857,0 0,0.95238 -1.42857,0 z m -16.66667,1.90476 1.42857,0 0,0.95238 -1.42857,0 z m 16.66667,0 1.42857,0 0,0.95238 -1.42857,0 z m -16.66667,1.90476 1.42857,0 0,0.95238 -1.42857,0 z m 16.66667,0 1.42857,0 0,0.95238 -1.42857,0 z m -16.66667,1.90476 1.42857,0 0,0.95238 -1.42857,0 z m 16.66667,0 1.42857,0 0,0.95238 -1.42857,0 z m -16.66667,1.90476 1.42857,0 0,0.95239 -1.42857,0 z m 16.66667,0 1.42857,0 0,0.95239 -1.42857,0 z m -16.66667,1.90477 1.42857,0 0,0.95238 -1.42857,0 z m 16.66667,0 1.42857,0 0,0.95238 -1.42857,0 z m -16.66667,1.90476 1.42857,0 0,0.95238 -1.42857,0 z m 16.66667,0 1.42857,0 0,0.95238 -1.42857,0 z"
             id="path3837"
             inkscape:connector-curvature="0"
             sodipodi:nodetypes="cccssssccccsssscccccccccccccccccccccssssssssscccccccccccccccccccccccccccccccccccccccccccccccccccccccccccccccccccccccccccccccc" />
          <g
             id="g3839"
             transform="matrix(0.78947368,0,0,0.78947368,241.94737,11.256711)"
             style="fill:#ffffff">
            <path
               sodipodi:nodetypes="ccccc"
               inkscape:connector-curvature="0"
               id="path3841"
               d="m 219.2,665.49551 -12,6 0,-6 0,-6 z"
               inkscape:transform-center-x="-1.9999959"
               style="opacity:0.45;fill:#ffffff;fill-opacity:1;stroke:none" />
          </g>
        </g>
        <g
           id="g3830">
          <path
             sodipodi:nodetypes="cccssssccccsssscccccccccccccccccccccssssssssscccccccccccccccccccccccccccccccccccccccccccccccccccccccccccccccccccccccccccccccc"
             inkscape:connector-curvature="0"
             id="rect2419"
             d="m 400,526.6479 0,20 3.33333,0 0,-2.35863 c 0,-0.277 0.21238,-0.49851 0.47619,-0.49851 l 12.38096,0 c 0.26381,0 0.47619,0.22151 0.47619,0.49851 l 0,2.35863 3.33333,0 0,-20 -3.33333,0 0,2.35863 c 0,0.277 -0.21238,0.49851 -0.47619,0.49851 l -12.38096,0 c -0.26381,0 -0.47619,-0.22151 -0.47619,-0.49851 l 0,-2.35863 m -2.38095,0.95238 1.42857,0 0,0.95238 -1.42857,0 z m 16.66667,0 1.42857,0 0,0.95238 -1.42857,0 z m -16.66667,1.90476 1.42857,0 0,0.95238 -1.42857,0 z m 16.66667,0 1.42857,0 0,0.95238 -1.42857,0 z m -13.80953,1.42857 12.38096,0 c 0.26381,0 0.47619,0.22152 0.47619,0.49852 l 0,10.43154 c 0,0.277 -0.21238,0.49852 -0.47619,0.49852 l -12.38096,0 c -0.26381,0 -0.47619,-0.22152 -0.47619,-0.49852 l 0,-10.43154 c 0,-0.277 0.21238,-0.49852 0.47619,-0.49852 z m -2.85714,0.47619 1.42857,0 0,0.95239 -1.42857,0 z m 16.66667,0 1.42857,0 0,0.95239 -1.42857,0 z m -16.66667,1.90477 1.42857,0 0,0.95238 -1.42857,0 z m 16.66667,0 1.42857,0 0,0.95238 -1.42857,0 z m -16.66667,1.90476 1.42857,0 0,0.95238 -1.42857,0 z m 16.66667,0 1.42857,0 0,0.95238 -1.42857,0 z m -16.66667,1.90476 1.42857,0 0,0.95238 -1.42857,0 z m 16.66667,0 1.42857,0 0,0.95238 -1.42857,0 z m -16.66667,1.90476 1.42857,0 0,0.95238 -1.42857,0 z m 16.66667,0 1.42857,0 0,0.95238 -1.42857,0 z m -16.66667,1.90476 1.42857,0 0,0.95239 -1.42857,0 z m 16.66667,0 1.42857,0 0,0.95239 -1.42857,0 z m -16.66667,1.90477 1.42857,0 0,0.95238 -1.42857,0 z m 16.66667,0 1.42857,0 0,0.95238 -1.42857,0 z m -16.66667,1.90476 1.42857,0 0,0.95238 -1.42857,0 z m 16.66667,0 1.42857,0 0,0.95238 -1.42857,0 z"
             style="fill:#4a4a4a;fill-opacity:1;fill-rule:nonzero;stroke:none;opacity:1" />
          <g
             transform="matrix(0.78947368,0,0,0.78947368,241.94737,11.256711)"
             id="g3796">
            <path
               style="opacity:1;fill:#4a4a4a;fill-opacity:1;stroke:none"
               inkscape:transform-center-x="-1.9999959"
               d="m 219.2,665.49551 -12,6 0,-6 0,-6 z"
               id="path2994"
               inkscape:connector-curvature="0"
               sodipodi:nodetypes="ccccc" />
          </g>
        </g>
      </g>
    </g>
  </g>
</svg>
