<?xml version="1.0" encoding="UTF-8" standalone="no"?>
<!-- Created with Inkscape (http://www.inkscape.org/) -->

<svg
   xmlns:dc="http://purl.org/dc/elements/1.1/"
   xmlns:cc="http://creativecommons.org/ns#"
   xmlns:rdf="http://www.w3.org/1999/02/22-rdf-syntax-ns#"
   xmlns:svg="http://www.w3.org/2000/svg"
   xmlns="http://www.w3.org/2000/svg"
   xmlns:xlink="http://www.w3.org/1999/xlink"
   xmlns:sodipodi="http://sodipodi.sourceforge.net/DTD/sodipodi-0.dtd"
   xmlns:inkscape="http://www.inkscape.org/namespaces/inkscape"
   version="1.1"
   width="24"
   height="24"
   id="svg3906"
   inkscape:version="0.48.3.1 r9886"
   sodipodi:docname="kmail.svg">
  <sodipodi:namedview
     pagecolor="#000000"
     bordercolor="#666666"
     borderopacity="1"
     objecttolerance="10"
     gridtolerance="10"
     guidetolerance="10"
     inkscape:pageopacity="0.2745098"
     inkscape:pageshadow="2"
     inkscape:window-width="1360"
     inkscape:window-height="701"
     id="namedview17"
     showgrid="false"
     inkscape:zoom="22.929116"
     inkscape:cx="2.5147048"
     inkscape:cy="7.3711037"
     inkscape:window-x="-2"
     inkscape:window-y="-3"
     inkscape:window-maximized="1"
     inkscape:current-layer="svg3906" />
  <defs
     id="defs3908">
    <linearGradient
       id="linearGradient3781">
      <stop
         style="stop-color:#000000;stop-opacity:1;"
         offset="0"
         id="stop3783" />
      <stop
         style="stop-color:#363636;stop-opacity:1;"
         offset="1"
         id="stop3785" />
    </linearGradient>
    <linearGradient
       id="linearGradient4444">
      <stop
         id="stop4446"
         style="stop-color:#ffffff;stop-opacity:1"
         offset="0" />
      <stop
         id="stop4454"
         style="stop-color:#ffffff;stop-opacity:0.78431374"
         offset="0.5" />
      <stop
         id="stop4452"
         style="stop-color:#ffffff;stop-opacity:0.58823532;"
         offset="0.75" />
      <stop
         id="stop4448"
         style="stop-color:#ffffff;stop-opacity:1"
         offset="1" />
    </linearGradient>
    <linearGradient
       x1="21.857141"
       y1="952.73566"
       x2="278.14285"
       y2="952.73566"
       id="linearGradient4548"
       xlink:href="#linearGradient4444"
       gradientUnits="userSpaceOnUse" />
    <linearGradient
       inkscape:collect="always"
       xlink:href="#linearGradient4444"
       id="linearGradient3761"
       gradientUnits="userSpaceOnUse"
       x1="21.857141"
       y1="952.73566"
       x2="278.14285"
       y2="952.73566" />
    <linearGradient
       inkscape:collect="always"
       xlink:href="#linearGradient4444"
       id="linearGradient3771"
       gradientUnits="userSpaceOnUse"
       x1="21.857141"
       y1="952.73566"
       x2="278.14285"
       y2="952.73566" />
    <linearGradient
       inkscape:collect="always"
       xlink:href="#linearGradient4444"
       id="linearGradient3775"
       gradientUnits="userSpaceOnUse"
       x1="21.857141"
       y1="952.73566"
       x2="278.14285"
       y2="952.73566"
       gradientTransform="translate(0,-752.36218)" />
    <linearGradient
       inkscape:collect="always"
       xlink:href="#linearGradient3781"
       id="linearGradient3787"
       x1="22.288652"
       y1="5.3388157"
       x2="22.275547"
       y2="18.722862"
       gradientUnits="userSpaceOnUse" />
    <linearGradient
       inkscape:collect="always"
       xlink:href="#linearGradient3781"
       id="linearGradient3793"
       gradientUnits="userSpaceOnUse"
       x1="23.945934"
       y1="0.4541963"
       x2="24.107279"
       y2="24.828636" />
  </defs>
  <metadata
     id="metadata3911">
    <rdf:RDF>
      <cc:Work
         rdf:about="">
        <dc:format>image/svg+xml</dc:format>
        <dc:type
           rdf:resource="http://purl.org/dc/dcmitype/StillImage" />
        <dc:title />
      </cc:Work>
    </rdf:RDF>
  </metadata>
  <g
     id="kmail"
     inkscape:label="#g3780">
    <rect
       y="0"
       x="0"
       height="24"
       width="24"
       id="rect3778"
       style="fill:#000000;fill-opacity:0.00392157;fill-rule:evenodd;stroke:none" />
    <g
       transform="translate(-1.4982722e-7,-0.4996031)"
       id="g3789">
      <path
         inkscape:connector-curvature="0"
         style="fill:none;stroke:#ffffff;stroke-width:1.27538883999999997;stroke-linecap:round;stroke-linejoin:round;stroke-miterlimit:4;stroke-opacity:1;stroke-dashoffset:0;opacity:0.45"
         id="path3779"
         d="M 20.760714,18.642125 14.993576,13.729907 M 8.9834474,13.703236 3.2569866,18.680262 M 3.0230437,7.0060593 C 2.8567026,7.0060337 2.6913762,7.0744996 2.5737554,7.1921205 2.4561346,7.3097413 2.3876687,7.4750678 2.3876943,7.6414092 l 0,10.7165438 c -2.66e-5,0.166341 0.068439,0.331669 0.1860601,0.449289 0.1176208,0.117621 0.2829482,0.186087 0.4492893,0.186064 l 17.9539113,0 c 0.166342,2.3e-5 0.33167,-0.06844 0.449291,-0.186064 0.11762,-0.11762 0.186086,-0.282948 0.18606,-0.449289 l 0,-10.7165438 C 21.612331,7.4750678 21.543865,7.3097413 21.426245,7.1921205 21.308624,7.0744996 21.143297,7.0060337 20.976955,7.0060593 z M 20.988068,7.0091958 12,13.897295 2.9917412,7.0094358" />
      <path
         d="M 20.760714,17.641966 14.993576,12.729748 M 8.9834474,12.703077 3.2569866,17.680103 M 3.0230437,6.0059002 C 2.8567026,6.0058746 2.6913762,6.0743405 2.5737554,6.1919614 2.4561346,6.3095822 2.3876687,6.4749087 2.3876943,6.6412501 l 0,10.7165439 c -2.66e-5,0.166341 0.068439,0.331669 0.1860601,0.449289 0.1176208,0.117621 0.2829482,0.186087 0.4492893,0.186064 l 17.9539113,0 c 0.166342,2.3e-5 0.33167,-0.06844 0.449291,-0.186064 0.11762,-0.11762 0.186086,-0.282948 0.18606,-0.449289 l 0,-10.7165439 C 21.612331,6.4749087 21.543865,6.3095822 21.426245,6.1919614 21.308624,6.0743405 21.143297,6.0058746 20.976955,6.0059002 z M 20.988068,6.0090367 12,12.897136 2.9917412,6.0092767"
         id="path3767"
         style="opacity:1;fill:none;stroke:#4a4a4a;stroke-width:1.27538883999999997;stroke-linecap:round;stroke-linejoin:round;stroke-miterlimit:4;stroke-opacity:1;stroke-dashoffset:0"
         inkscape:connector-curvature="0" />
    </g>
  </g>
  <rect
     style="fill:none;stroke:none"
     id="rect4562"
     y="-276"
     x="0"
     height="300"
     width="300" />
</svg>
