<?xml version="1.0" encoding="UTF-8" standalone="no"?>
<!-- Created with Inkscape (http://www.inkscape.org/) -->

<svg
   xmlns:dc="http://purl.org/dc/elements/1.1/"
   xmlns:cc="http://creativecommons.org/ns#"
   xmlns:rdf="http://www.w3.org/1999/02/22-rdf-syntax-ns#"
   xmlns:svg="http://www.w3.org/2000/svg"
   xmlns="http://www.w3.org/2000/svg"
   xmlns:xlink="http://www.w3.org/1999/xlink"
   xmlns:sodipodi="http://sodipodi.sourceforge.net/DTD/sodipodi-0.dtd"
   xmlns:inkscape="http://www.inkscape.org/namespaces/inkscape"
   width="24"
   height="24"
   id="svg2"
   version="1.1"
   inkscape:version="0.48.3.1 r9886"
   sodipodi:docname="kpackagekit.svg"
   inkscape:export-filename="/mnt/win_d/klipper.png"
   inkscape:export-xdpi="90"
   inkscape:export-ydpi="90">
  <sodipodi:namedview
     id="base"
     pagecolor="#000000"
     bordercolor="#666666"
     borderopacity="1.0"
     inkscape:pageopacity="0.28235294"
     inkscape:pageshadow="2"
     inkscape:zoom="15.5424"
     inkscape:cx="45.212527"
     inkscape:cy="9.5935513"
     inkscape:document-units="px"
     inkscape:current-layer="kpackagekit"
     showgrid="false"
     inkscape:window-width="1360"
     inkscape:window-height="701"
     inkscape:window-x="-2"
     inkscape:window-y="-3"
     inkscape:window-maximized="1"
     inkscape:snap-grids="true"
     showguides="true"
     inkscape:guide-bbox="true"
     inkscape:snap-bbox="true"
     inkscape:object-paths="true"
     inkscape:snap-page="true"
     inkscape:snap-global="false">
    <inkscape:grid
       snapvisiblegridlinesonly="true"
       enabled="true"
       visible="true"
       empspacing="5"
       id="grid2818"
       type="xygrid" />
  </sodipodi:namedview>
  <defs
     id="defs4">
    <linearGradient
       inkscape:collect="always"
       id="linearGradient4075">
      <stop
         style="stop-color:#ffffff;stop-opacity:1;"
         offset="0"
         id="stop4077" />
      <stop
         style="stop-color:#ffffff;stop-opacity:0;"
         offset="1"
         id="stop4079" />
    </linearGradient>
    <radialGradient
       cx="538.77338"
       cy="651.10352"
       r="126.0234"
       id="XMLID_15_"
       gradientUnits="userSpaceOnUse"
       gradientTransform="translate(-484,-674)">
      <stop
         id="stop137"
         style="stop-color:#eaacac;stop-opacity:1;"
         offset="0" />
      <stop
         id="stop139"
         style="stop-color:#a42a2a;stop-opacity:1;"
         offset="1" />
      <stop
         id="stop141"
         style="stop-color:#e85151;stop-opacity:1;"
         offset="1" />
    </radialGradient>
    <linearGradient
       id="linearGradient3802">
      <stop
         id="stop3820"
         offset="0"
         style="stop-color:#4a4a4a;stop-opacity:1;" />
      <stop
         id="stop3806"
         offset="1"
         style="stop-color:#4a4a4a;stop-opacity:1;" />
    </linearGradient>
    <linearGradient
       inkscape:collect="always"
       xlink:href="#linearGradient3802"
       id="linearGradient3902"
       x1="2"
       y1="12"
       x2="22"
       y2="12"
       gradientUnits="userSpaceOnUse" />
    <linearGradient
       inkscape:collect="always"
       xlink:href="#linearGradient3802"
       id="linearGradient3980"
       gradientUnits="userSpaceOnUse"
       gradientTransform="translate(46.514719,1016.6636)"
       x1="2"
       y1="12"
       x2="22"
       y2="12" />
    <linearGradient
       inkscape:collect="always"
       xlink:href="#linearGradient3802"
       id="linearGradient4042"
       gradientUnits="userSpaceOnUse"
       gradientTransform="translate(81,0)"
       x1="2"
       y1="12"
       x2="21.80698"
       y2="14.219734" />
    <linearGradient
       inkscape:collect="always"
       xlink:href="#linearGradient3802"
       id="linearGradient4072"
       gradientUnits="userSpaceOnUse"
       gradientTransform="translate(27.000001,-0.0313)"
       x1="2"
       y1="12"
       x2="22"
       y2="12" />
    <linearGradient
       inkscape:collect="always"
       xlink:href="#linearGradient4075"
       id="linearGradient4081"
       x1="31.059769"
       y1="1023.6609"
       x2="31.059769"
       y2="1036.5634"
       gradientUnits="userSpaceOnUse"
       gradientTransform="translate(11.919779,-13.921574)" />
    <radialGradient
       inkscape:collect="always"
       xlink:href="#XMLID_15_"
       id="radialGradient4131"
       gradientUnits="userSpaceOnUse"
       cx="66.5"
       cy="10.5"
       fx="66.5"
       fy="10.250001"
       r="0.5" />
    <linearGradient
       inkscape:collect="always"
       xlink:href="#linearGradient3802"
       id="linearGradient3034"
       gradientUnits="userSpaceOnUse"
       gradientTransform="translate(27.000001,-0.0313)"
       x1="2"
       y1="12"
       x2="22"
       y2="12" />
    <linearGradient
       inkscape:collect="always"
       xlink:href="#linearGradient4075"
       id="linearGradient3036"
       gradientUnits="userSpaceOnUse"
       gradientTransform="translate(11.919779,-13.921574)"
       x1="31.059769"
       y1="1023.6609"
       x2="31.059769"
       y2="1036.5634" />
    <linearGradient
       inkscape:collect="always"
       xlink:href="#linearGradient3802"
       id="linearGradient3043"
       gradientUnits="userSpaceOnUse"
       gradientTransform="translate(27.000001,-0.0313)"
       x1="2"
       y1="12"
       x2="22"
       y2="12" />
    <linearGradient
       inkscape:collect="always"
       xlink:href="#linearGradient4075"
       id="linearGradient3045"
       gradientUnits="userSpaceOnUse"
       gradientTransform="translate(11.919779,-13.921574)"
       x1="31.059769"
       y1="1023.6609"
       x2="31.059769"
       y2="1036.5634" />
    <linearGradient
       inkscape:collect="always"
       xlink:href="#linearGradient4075"
       id="linearGradient3048"
       gradientUnits="userSpaceOnUse"
       gradientTransform="translate(1.4685934,-15.991172)"
       x1="31.059769"
       y1="1023.6609"
       x2="31.059769"
       y2="1036.5634" />
    <linearGradient
       inkscape:collect="always"
       xlink:href="#linearGradient3802"
       id="linearGradient3051"
       gradientUnits="userSpaceOnUse"
       gradientTransform="translate(19.697598,1016.3906)"
       x1="2"
       y1="12"
       x2="22"
       y2="12" />
    <linearGradient
       inkscape:collect="always"
       xlink:href="#linearGradient3802"
       id="linearGradient3056"
       gradientUnits="userSpaceOnUse"
       x1="21.973564"
       y1="2.0576036"
       x2="22.088772"
       y2="22.164326"
       gradientTransform="matrix(1.025,0,0,1.025,-8.5352817,1016.1449)" />
    <linearGradient
       inkscape:collect="always"
       xlink:href="#linearGradient16006-3-9"
       id="linearGradient3821"
       gradientUnits="userSpaceOnUse"
       gradientTransform="translate(0,1.366)"
       x1="19.097513"
       y1="3.9816761"
       x2="19.122709"
       y2="20.130236" />
    <linearGradient
       id="linearGradient16006-3-9">
      <stop
         id="stop3789"
         offset="0"
         style="stop-color:#000000;stop-opacity:1;" />
      <stop
         style="stop-color:#363636;stop-opacity:1;"
         offset="1"
         id="stop16010-4-1" />
    </linearGradient>
    <linearGradient
       inkscape:collect="always"
       xlink:href="#linearGradient3802"
       id="linearGradient3853"
       gradientUnits="userSpaceOnUse"
       gradientTransform="matrix(1.025,0,0,1.025,-8.5352817,1016.1449)"
       x1="21.973564"
       y1="2.0576036"
       x2="22.088772"
       y2="22.164326" />
    <linearGradient
       inkscape:collect="always"
       xlink:href="#linearGradient3802"
       id="linearGradient3871"
       gradientUnits="userSpaceOnUse"
       gradientTransform="matrix(1.025,0,0,1.025,-8.5352817,1016.1449)"
       x1="21.973564"
       y1="2.0576036"
       x2="22.088772"
       y2="22.164326" />
    <linearGradient
       inkscape:collect="always"
       xlink:href="#linearGradient3802"
       id="linearGradient3873"
       gradientUnits="userSpaceOnUse"
       gradientTransform="matrix(1.025,0,0,1.025,-8.5352817,1016.1449)"
       x1="21.973564"
       y1="2.0576036"
       x2="22.088772"
       y2="22.164326" />
    <linearGradient
       inkscape:collect="always"
       xlink:href="#linearGradient16006-3-9"
       id="linearGradient3882"
       gradientUnits="userSpaceOnUse"
       gradientTransform="matrix(0.625,0,0,0.625,-3.9852817,1020.1949)"
       x1="19.097513"
       y1="3.9816761"
       x2="19.122709"
       y2="20.130236" />
    <linearGradient
       inkscape:collect="always"
       xlink:href="#linearGradient16006-3-9"
       id="linearGradient3888"
       gradientUnits="userSpaceOnUse"
       gradientTransform="matrix(0.625,0,0,0.625,-3.9852817,1020.1949)"
       x1="19.097513"
       y1="3.9816761"
       x2="19.122709"
       y2="20.130236" />
    <linearGradient
       inkscape:collect="always"
       xlink:href="#linearGradient3802"
       id="linearGradient3915"
       gradientUnits="userSpaceOnUse"
       gradientTransform="matrix(1.025,0,0,1.025,-8.5352817,1016.1449)"
       x1="21.973564"
       y1="2.0576036"
       x2="22.088772"
       y2="22.164326" />
    <radialGradient
       inkscape:collect="always"
       xlink:href="#XMLID_15_"
       id="radialGradient3919"
       gradientUnits="userSpaceOnUse"
       cx="66.5"
       cy="10.5"
       fx="66.5"
       fy="10.250001"
       r="0.5" />
    <linearGradient
       inkscape:collect="always"
       xlink:href="#linearGradient3802"
       id="linearGradient3921"
       gradientUnits="userSpaceOnUse"
       gradientTransform="translate(46.514719,1016.6636)"
       x1="2"
       y1="12"
       x2="22"
       y2="12" />
    <linearGradient
       inkscape:collect="always"
       xlink:href="#linearGradient3802"
       id="linearGradient3928"
       gradientUnits="userSpaceOnUse"
       gradientTransform="translate(46.514719,1016.6636)"
       x1="2"
       y1="12"
       x2="22"
       y2="12" />
    <radialGradient
       inkscape:collect="always"
       xlink:href="#XMLID_15_"
       id="radialGradient3930"
       gradientUnits="userSpaceOnUse"
       cx="66.5"
       cy="10.5"
       fx="66.5"
       fy="10.250001"
       r="0.5" />
    <linearGradient
       inkscape:collect="always"
       xlink:href="#linearGradient3802"
       id="linearGradient3934"
       gradientUnits="userSpaceOnUse"
       gradientTransform="translate(46.514719,1016.6636)"
       x1="2"
       y1="12"
       x2="22"
       y2="12" />
    <radialGradient
       inkscape:collect="always"
       xlink:href="#XMLID_15_"
       id="radialGradient3938"
       gradientUnits="userSpaceOnUse"
       cx="66.5"
       cy="10.5"
       fx="66.5"
       fy="10.250001"
       r="0.5" />
    <linearGradient
       inkscape:collect="always"
       xlink:href="#linearGradient3802"
       id="linearGradient3960"
       gradientUnits="userSpaceOnUse"
       gradientTransform="translate(81,0)"
       x1="2"
       y1="12"
       x2="21.80698"
       y2="14.219734" />
    <linearGradient
       inkscape:collect="always"
       xlink:href="#linearGradient3802"
       id="linearGradient3972"
       gradientUnits="userSpaceOnUse"
       gradientTransform="translate(-8.4852817,1023.4159)"
       x1="16.026148"
       y1="8.9116735"
       x2="16.080709"
       y2="18.980904" />
    <linearGradient
       inkscape:collect="always"
       xlink:href="#linearGradient3802"
       id="linearGradient3978"
       gradientUnits="userSpaceOnUse"
       gradientTransform="translate(-8.4852817,1023.4159)"
       x1="16.026148"
       y1="8.9116735"
       x2="16.080709"
       y2="18.980904" />
    <linearGradient
       inkscape:collect="always"
       xlink:href="#linearGradient3802"
       id="linearGradient4008"
       gradientUnits="userSpaceOnUse"
       gradientTransform="matrix(1.025,0,0,1.025,-8.5352817,1016.1449)"
       x1="21.973564"
       y1="2.0576036"
       x2="22.088772"
       y2="22.164326" />
    <linearGradient
       inkscape:collect="always"
       xlink:href="#linearGradient3802"
       id="linearGradient4010"
       gradientUnits="userSpaceOnUse"
       gradientTransform="translate(-8.4852817,1023.4159)"
       x1="16.026148"
       y1="8.9116735"
       x2="16.080709"
       y2="18.980904" />
  </defs>
  <metadata
     id="metadata7">
    <rdf:RDF>
      <cc:Work
         rdf:about="">
        <dc:format>image/svg+xml</dc:format>
        <dc:type
           rdf:resource="http://purl.org/dc/dcmitype/StillImage" />
        <dc:title />
      </cc:Work>
    </rdf:RDF>
  </metadata>
  <g
     transform="translate(8.4852817,-1016.6949)"
     id="kpackagekit"
     inkscape:groupmode="layer"
     inkscape:label="Layer 1">
    <rect
       style="fill:none;stroke:none"
       id="rect3976"
       width="24"
       height="24"
       x="46.514717"
       y="1016.6949" />
    <rect
       style="fill:none;stroke:none"
       id="rect4011"
       width="24"
       height="24"
       x="61.834255"
       y="1016.6949" />
    <g
       id="kpackagekit-updates"
       transform="translate(-28.571074,1.4746094e-5)">
      <rect
         y="1016.6949"
         x="-8.4852819"
         height="24"
         width="24"
         id="rect3901"
         style="fill:none;stroke:none" />
      <g
         id="g3903"
         transform="translate(-0.2499991,-0.25)">
        <path
           inkscape:connector-curvature="0"
           style="opacity:0.45;fill:#ffffff;fill-opacity:1;stroke:none"
           d="m 3.7647185,1019.1951 c -0.2897143,0 -0.5812161,0.041 -0.8648438,0.064 l -0.4164063,2.082 c -0.5659476,0.089 -1.1122895,0.2503 -1.63359374,0.4484 l -1.44140627,-1.6016 c -0.52927889,0.2488 -1.03036289,0.533 -1.50546879,0.8649 l 0.6726563,2.0179 c -0.4300505,0.3511 -0.8341712,0.7552 -1.1851563,1.1852 l -2.0179688,-0.6727 c -0.3318769,0.4752 -0.6161424,0.9763 -0.8648437,1.5056 l 1.6015625,1.4414 c -0.1981895,0.5212 -0.3597714,1.0677 -0.4484375,1.6336 l -2.0820313,0.4164 c -0.023568,0.2836 -0.064062,0.5751 -0.064062,0.8648 0,0.2897 0.040495,0.5812 0.064062,0.8649 l 2.0820313,0.4164 c 0.088667,0.5659 0.250248,1.1123 0.4484375,1.6336 l -1.6015625,1.4414 c 0.2487013,0.5293 0.5329668,1.0303 0.8648437,1.5055 l 2.0179688,-0.6727 c 0.3509851,0.4301 0.7551058,0.8341 1.1851563,1.1852 l -0.6726563,2.0179 c 0.4751059,0.3319 0.9761899,0.6161 1.50546879,0.8649 l 1.44140627,-1.6016 c 0.52130424,0.1982 1.06764614,0.3597 1.63359374,0.4485 l 0.4164063,2.0819 c 0.2836277,0.024 0.5751295,0.064 0.8648438,0.064 0.2897142,0 0.581216,-0.04 0.8648437,-0.064 l 0.4164063,-2.0819 c 0.5659476,-0.089 1.112289,-0.2503 1.6335937,-0.4485 l 1.4414063,1.6016 c 0.5292793,-0.2488 1.0303628,-0.533 1.5054688,-0.8649 l -0.6726563,-2.0179 c 0.4300501,-0.3511 0.8341707,-0.7551 1.185156,-1.1852 l 2.017969,0.6727 c 0.331876,-0.4752 0.616143,-0.9762 0.864844,-1.5055 l -1.601563,-1.4414 c 0.19819,-0.5213 0.359771,-1.0677 0.448438,-1.6336 l 2.082031,-0.4164 c 0.02356,-0.2837 0.06406,-0.5752 0.06406,-0.8649 0,-0.2897 -0.0405,-0.5812 -0.06406,-0.8648 l -2.082031,-0.4164 c -0.08866,-0.5659 -0.250248,-1.1124 -0.448438,-1.6336 l 1.601563,-1.4414 c -0.248701,-0.5293 -0.532968,-1.0304 -0.864844,-1.5056 l -2.017969,0.6727 c -0.3509853,-0.43 -0.7551059,-0.8341 -1.185156,-1.1852 l 0.6726563,-2.0179 c -0.475106,-0.3319 -0.9761895,-0.6161 -1.5054688,-0.8649 l -1.4414063,1.6016 c -0.5213047,-0.1981 -1.0676461,-0.3597 -1.6335937,-0.4484 l -0.4164063,-2.082 c -0.2836277,-0.024 -0.5751295,-0.064 -0.8648437,-0.064 z m 0,4.1 c 3.3965558,0 6.15,2.7535 6.15,6.15 0,3.3966 -2.7534442,6.15 -6.15,6.15 -3.39655551,0 -6.1500001,-2.7534 -6.1500001,-6.15 0,-3.3965 2.75344459,-6.15 6.1500001,-6.15 z"
           id="path3905" />
        <path
           id="path3907"
           d="m 3.7647185,1018.1949 c -0.2897143,0 -0.5812161,0.041 -0.8648438,0.064 l -0.4164063,2.082 c -0.5659476,0.089 -1.1122895,0.2503 -1.63359374,0.4484 l -1.44140627,-1.6016 c -0.52927889,0.2488 -1.03036289,0.533 -1.50546879,0.8649 l 0.6726563,2.0179 c -0.4300505,0.3511 -0.8341712,0.7552 -1.1851563,1.1852 l -2.0179688,-0.6727 c -0.3318769,0.4752 -0.6161424,0.9763 -0.8648437,1.5056 l 1.6015625,1.4414 c -0.1981895,0.5212 -0.3597714,1.0677 -0.4484375,1.6336 l -2.0820313,0.4164 c -0.023568,0.2836 -0.064062,0.5751 -0.064062,0.8648 0,0.2897 0.040495,0.5812 0.064062,0.8649 l 2.0820313,0.4164 c 0.088667,0.5659 0.250248,1.1123 0.4484375,1.6336 l -1.6015625,1.4414 c 0.2487013,0.5293 0.5329668,1.0303 0.8648437,1.5055 l 2.0179688,-0.6727 c 0.3509851,0.4301 0.7551058,0.8341 1.1851563,1.1852 l -0.6726563,2.0179 c 0.4751059,0.3319 0.9761899,0.6161 1.50546879,0.8649 l 1.44140627,-1.6016 c 0.52130424,0.1982 1.06764614,0.3597 1.63359374,0.4485 l 0.4164063,2.0819 c 0.2836277,0.024 0.5751295,0.064 0.8648438,0.064 0.2897142,0 0.581216,-0.04 0.8648437,-0.064 l 0.4164063,-2.0819 c 0.5659476,-0.089 1.112289,-0.2503 1.6335937,-0.4485 l 1.4414063,1.6016 c 0.5292793,-0.2488 1.0303628,-0.533 1.5054688,-0.8649 l -0.6726563,-2.0179 c 0.4300501,-0.3511 0.8341707,-0.7551 1.185156,-1.1852 l 2.017969,0.6727 c 0.331876,-0.4752 0.616143,-0.9762 0.864844,-1.5055 l -1.601563,-1.4414 c 0.19819,-0.5213 0.359771,-1.0677 0.448438,-1.6336 l 2.082031,-0.4164 c 0.02356,-0.2837 0.06406,-0.5752 0.06406,-0.8649 0,-0.2897 -0.0405,-0.5812 -0.06406,-0.8648 l -2.082031,-0.4164 c -0.08866,-0.5659 -0.250248,-1.1124 -0.448438,-1.6336 l 1.601563,-1.4414 c -0.248701,-0.5293 -0.532968,-1.0304 -0.864844,-1.5056 l -2.017969,0.6727 c -0.3509853,-0.43 -0.7551059,-0.8341 -1.185156,-1.1852 l 0.6726563,-2.0179 c -0.475106,-0.3319 -0.9761895,-0.6161 -1.5054688,-0.8649 l -1.4414063,1.6016 c -0.5213047,-0.1981 -1.0676461,-0.3597 -1.6335937,-0.4484 l -0.4164063,-2.082 c -0.2836277,-0.024 -0.5751295,-0.064 -0.8648437,-0.064 z m 0,4.1 c 3.3965558,0 6.15,2.7535 6.15,6.15 0,3.3966 -2.7534442,6.15 -6.15,6.15 -3.39655551,0 -6.1500001,-2.7534 -6.1500001,-6.15 0,-3.3965 2.75344459,-6.15 6.1500001,-6.15 z"
           style="opacity:1;fill:url(#linearGradient3915);fill-opacity:1;stroke:none"
           inkscape:connector-curvature="0" />
      </g>
      <g
         id="g3909"
         transform="translate(0,0.5)">
        <path
           sodipodi:nodetypes="cccccccc"
           inkscape:connector-curvature="0"
           id="path3911"
           d="m 1.6397183,1023.6949 3.75,0 0,5 2.5,0 -4.375,5 -4.375,-5 2.5,0 z"
           style="opacity:0.45;fill:#ffffff;fill-opacity:1;stroke:none;display:inline" />
        <path
           style="opacity:1;fill:#4a4a4a;fill-opacity:1;stroke:none;display:inline"
           d="m 1.6397183,1022.6949 3.75,0 0,5 2.5,0 -4.375,5 -4.375,-5 2.5,0 z"
           id="path3913"
           inkscape:connector-curvature="0"
           sodipodi:nodetypes="cccccccc" />
      </g>
    </g>
    <g
       id="kpackagekit-important"
       transform="translate(-60.35104,1.4746094e-5)">
      <g
         id="g3890">
        <rect
           y="1016.6949"
           x="-8.4852819"
           height="24"
           width="24"
           id="rect2815"
           style="fill:none;stroke:none" />
        <g
           id="g3832"
           transform="translate(-0.2499991,-0.25)">
          <path
             inkscape:connector-curvature="0"
             style="opacity:0.45;fill:#ffffff;fill-opacity:1;stroke:none"
             d="m 3.7647185,1019.1951 c -0.2897143,0 -0.5812161,0.041 -0.8648438,0.064 l -0.4164063,2.082 c -0.5659476,0.089 -1.1122895,0.2503 -1.63359374,0.4484 l -1.44140627,-1.6016 c -0.52927889,0.2488 -1.03036289,0.533 -1.50546879,0.8649 l 0.6726563,2.0179 c -0.4300505,0.3511 -0.8341712,0.7552 -1.1851563,1.1852 l -2.0179688,-0.6727 c -0.3318769,0.4752 -0.6161424,0.9763 -0.8648437,1.5056 l 1.6015625,1.4414 c -0.1981895,0.5212 -0.3597714,1.0677 -0.4484375,1.6336 l -2.0820313,0.4164 c -0.023568,0.2836 -0.064062,0.5751 -0.064062,0.8648 0,0.2897 0.040495,0.5812 0.064062,0.8649 l 2.0820313,0.4164 c 0.088667,0.5659 0.250248,1.1123 0.4484375,1.6336 l -1.6015625,1.4414 c 0.2487013,0.5293 0.5329668,1.0303 0.8648437,1.5055 l 2.0179688,-0.6727 c 0.3509851,0.4301 0.7551058,0.8341 1.1851563,1.1852 l -0.6726563,2.0179 c 0.4751059,0.3319 0.9761899,0.6161 1.50546879,0.8649 l 1.44140627,-1.6016 c 0.52130424,0.1982 1.06764614,0.3597 1.63359374,0.4485 l 0.4164063,2.0819 c 0.2836277,0.024 0.5751295,0.064 0.8648438,0.064 0.2897142,0 0.581216,-0.04 0.8648437,-0.064 l 0.4164063,-2.0819 c 0.5659476,-0.089 1.112289,-0.2503 1.6335937,-0.4485 l 1.4414063,1.6016 c 0.5292793,-0.2488 1.0303628,-0.533 1.5054688,-0.8649 l -0.6726563,-2.0179 c 0.4300501,-0.3511 0.8341707,-0.7551 1.185156,-1.1852 l 2.017969,0.6727 c 0.331876,-0.4752 0.616143,-0.9762 0.864844,-1.5055 l -1.601563,-1.4414 c 0.19819,-0.5213 0.359771,-1.0677 0.448438,-1.6336 l 2.082031,-0.4164 c 0.02356,-0.2837 0.06406,-0.5752 0.06406,-0.8649 0,-0.2897 -0.0405,-0.5812 -0.06406,-0.8648 l -2.082031,-0.4164 c -0.08866,-0.5659 -0.250248,-1.1124 -0.448438,-1.6336 l 1.601563,-1.4414 c -0.248701,-0.5293 -0.532968,-1.0304 -0.864844,-1.5056 l -2.017969,0.6727 c -0.3509853,-0.43 -0.7551059,-0.8341 -1.185156,-1.1852 l 0.6726563,-2.0179 c -0.475106,-0.3319 -0.9761895,-0.6161 -1.5054688,-0.8649 l -1.4414063,1.6016 c -0.5213047,-0.1981 -1.0676461,-0.3597 -1.6335937,-0.4484 l -0.4164063,-2.082 c -0.2836277,-0.024 -0.5751295,-0.064 -0.8648437,-0.064 z m 0,4.1 c 3.3965558,0 6.15,2.7535 6.15,6.15 0,3.3966 -2.7534442,6.15 -6.15,6.15 -3.39655551,0 -6.1500001,-2.7534 -6.1500001,-6.15 0,-3.3965 2.75344459,-6.15 6.1500001,-6.15 z"
             id="path3060" />
          <path
             id="path3879"
             d="m 3.7647185,1018.1949 c -0.2897143,0 -0.5812161,0.041 -0.8648438,0.064 l -0.4164063,2.082 c -0.5659476,0.089 -1.1122895,0.2503 -1.63359374,0.4484 l -1.44140627,-1.6016 c -0.52927889,0.2488 -1.03036289,0.533 -1.50546879,0.8649 l 0.6726563,2.0179 c -0.4300505,0.3511 -0.8341712,0.7552 -1.1851563,1.1852 l -2.0179688,-0.6727 c -0.3318769,0.4752 -0.6161424,0.9763 -0.8648437,1.5056 l 1.6015625,1.4414 c -0.1981895,0.5212 -0.3597714,1.0677 -0.4484375,1.6336 l -2.0820313,0.4164 c -0.023568,0.2836 -0.064062,0.5751 -0.064062,0.8648 0,0.2897 0.040495,0.5812 0.064062,0.8649 l 2.0820313,0.4164 c 0.088667,0.5659 0.250248,1.1123 0.4484375,1.6336 l -1.6015625,1.4414 c 0.2487013,0.5293 0.5329668,1.0303 0.8648437,1.5055 l 2.0179688,-0.6727 c 0.3509851,0.4301 0.7551058,0.8341 1.1851563,1.1852 l -0.6726563,2.0179 c 0.4751059,0.3319 0.9761899,0.6161 1.50546879,0.8649 l 1.44140627,-1.6016 c 0.52130424,0.1982 1.06764614,0.3597 1.63359374,0.4485 l 0.4164063,2.0819 c 0.2836277,0.024 0.5751295,0.064 0.8648438,0.064 0.2897142,0 0.581216,-0.04 0.8648437,-0.064 l 0.4164063,-2.0819 c 0.5659476,-0.089 1.112289,-0.2503 1.6335937,-0.4485 l 1.4414063,1.6016 c 0.5292793,-0.2488 1.0303628,-0.533 1.5054688,-0.8649 l -0.6726563,-2.0179 c 0.4300501,-0.3511 0.8341707,-0.7551 1.185156,-1.1852 l 2.017969,0.6727 c 0.331876,-0.4752 0.616143,-0.9762 0.864844,-1.5055 l -1.601563,-1.4414 c 0.19819,-0.5213 0.359771,-1.0677 0.448438,-1.6336 l 2.082031,-0.4164 c 0.02356,-0.2837 0.06406,-0.5752 0.06406,-0.8649 0,-0.2897 -0.0405,-0.5812 -0.06406,-0.8648 l -2.082031,-0.4164 c -0.08866,-0.5659 -0.250248,-1.1124 -0.448438,-1.6336 l 1.601563,-1.4414 c -0.248701,-0.5293 -0.532968,-1.0304 -0.864844,-1.5056 l -2.017969,0.6727 c -0.3509853,-0.43 -0.7551059,-0.8341 -1.185156,-1.1852 l 0.6726563,-2.0179 c -0.475106,-0.3319 -0.9761895,-0.6161 -1.5054688,-0.8649 l -1.4414063,1.6016 c -0.5213047,-0.1981 -1.0676461,-0.3597 -1.6335937,-0.4484 l -0.4164063,-2.082 c -0.2836277,-0.024 -0.5751295,-0.064 -0.8648437,-0.064 z m 0,4.1 c 3.3965558,0 6.15,2.7535 6.15,6.15 0,3.3966 -2.7534442,6.15 -6.15,6.15 -3.39655551,0 -6.1500001,-2.7534 -6.1500001,-6.15 0,-3.3965 2.75344459,-6.15 6.1500001,-6.15 z"
             style="opacity:1;fill:#4a4a4a;fill-opacity:1;stroke:none"
             inkscape:connector-curvature="0" />
        </g>
        <g
           id="g3884"
           transform="translate(0,0.5)">
          <path
             sodipodi:nodetypes="cccccccc"
             inkscape:connector-curvature="0"
             id="path3807"
             d="m 1.6397183,1023.6949 3.75,0 0,5 2.5,0 -4.375,5 -4.375,-5 2.5,0 z"
             style="opacity:0.45;fill:#ffffff;fill-opacity:1;stroke:none;display:inline" />
          <path
             style="opacity:1;fill:#4a4a4a;fill-opacity:1;stroke:none;display:inline"
             d="m 1.6397183,1022.6949 3.75,0 0,5 2.5,0 -4.375,5 -4.375,-5 2.5,0 z"
             id="path3880"
             inkscape:connector-curvature="0"
             sodipodi:nodetypes="cccccccc" />
        </g>
      </g>
      <path
         transform="matrix(3.313,0,0,3.313,-216.79978,993.9084)"
         d="M 67,10.5 C 67,10.776142 66.776142,11 66.5,11 66.223858,11 66,10.776142 66,10.5 66,10.223858 66.223858,10 66.5,10 c 0.276142,0 0.5,0.223858 0.5,0.5 z"
         sodipodi:ry="0.5"
         sodipodi:rx="0.5"
         sodipodi:cy="10.5"
         sodipodi:cx="66.5"
         id="path4102"
         style="fill:#c3c3c3;fill-opacity:1;stroke:none"
         sodipodi:type="arc" />
    </g>
    <g
       id="kpackagekit-inactive">
      <g
         transform="translate(2.442749e-7,1.4746094e-5)"
         id="g3861">
        <rect
           style="fill:none;stroke:none"
           id="rect3863"
           width="24"
           height="24"
           x="-8.4852819"
           y="1016.6949" />
        <g
           transform="translate(-0.2499991,-0.25)"
           id="g3865">
          <path
             id="path3867"
             d="m 3.7647185,1019.1951 c -0.2897143,0 -0.5812161,0.041 -0.8648438,0.064 l -0.4164063,2.082 c -0.5659476,0.089 -1.1122895,0.2503 -1.63359374,0.4484 l -1.44140627,-1.6016 c -0.52927889,0.2488 -1.03036289,0.533 -1.50546879,0.8649 l 0.6726563,2.0179 c -0.4300505,0.3511 -0.8341712,0.7552 -1.1851563,1.1852 l -2.0179688,-0.6727 c -0.3318769,0.4752 -0.6161424,0.9763 -0.8648437,1.5056 l 1.6015625,1.4414 c -0.1981895,0.5212 -0.3597714,1.0677 -0.4484375,1.6336 l -2.0820313,0.4164 c -0.023568,0.2836 -0.064062,0.5751 -0.064062,0.8648 0,0.2897 0.040495,0.5812 0.064062,0.8649 l 2.0820313,0.4164 c 0.088667,0.5659 0.250248,1.1123 0.4484375,1.6336 l -1.6015625,1.4414 c 0.2487013,0.5293 0.5329668,1.0303 0.8648437,1.5055 l 2.0179688,-0.6727 c 0.3509851,0.4301 0.7551058,0.8341 1.1851563,1.1852 l -0.6726563,2.0179 c 0.4751059,0.3319 0.9761899,0.6161 1.50546879,0.8649 l 1.44140627,-1.6016 c 0.52130424,0.1982 1.06764614,0.3597 1.63359374,0.4485 l 0.4164063,2.0819 c 0.2836277,0.024 0.5751295,0.064 0.8648438,0.064 0.2897142,0 0.581216,-0.04 0.8648437,-0.064 l 0.4164063,-2.0819 c 0.5659476,-0.089 1.112289,-0.2503 1.6335937,-0.4485 l 1.4414063,1.6016 c 0.5292793,-0.2488 1.0303628,-0.533 1.5054688,-0.8649 l -0.6726563,-2.0179 c 0.4300501,-0.3511 0.8341707,-0.7551 1.185156,-1.1852 l 2.017969,0.6727 c 0.331876,-0.4752 0.616143,-0.9762 0.864844,-1.5055 l -1.601563,-1.4414 c 0.19819,-0.5213 0.359771,-1.0677 0.448438,-1.6336 l 2.082031,-0.4164 c 0.02356,-0.2837 0.06406,-0.5752 0.06406,-0.8649 0,-0.2897 -0.0405,-0.5812 -0.06406,-0.8648 l -2.082031,-0.4164 c -0.08866,-0.5659 -0.250248,-1.1124 -0.448438,-1.6336 l 1.601563,-1.4414 c -0.248701,-0.5293 -0.532968,-1.0304 -0.864844,-1.5056 l -2.017969,0.6727 c -0.3509853,-0.43 -0.7551059,-0.8341 -1.185156,-1.1852 l 0.6726563,-2.0179 c -0.475106,-0.3319 -0.9761895,-0.6161 -1.5054688,-0.8649 l -1.4414063,1.6016 c -0.5213047,-0.1981 -1.0676461,-0.3597 -1.6335937,-0.4484 l -0.4164063,-2.082 c -0.2836277,-0.024 -0.5751295,-0.064 -0.8648437,-0.064 z m 0,4.1 c 3.3965558,0 6.15,2.7535 6.15,6.15 0,3.3966 -2.7534442,6.15 -6.15,6.15 -3.39655551,0 -6.1500001,-2.7534 -6.1500001,-6.15 0,-3.3965 2.75344459,-6.15 6.1500001,-6.15 z"
             style="opacity:0.45;fill:#ffffff;fill-opacity:1;stroke:none"
             inkscape:connector-curvature="0" />
          <path
             inkscape:connector-curvature="0"
             style="opacity:1;fill:url(#linearGradient3871);fill-opacity:1;stroke:none"
             d="m 3.7647185,1018.1949 c -0.2897143,0 -0.5812161,0.041 -0.8648438,0.064 l -0.4164063,2.082 c -0.5659476,0.089 -1.1122895,0.2503 -1.63359374,0.4484 l -1.44140627,-1.6016 c -0.52927889,0.2488 -1.03036289,0.533 -1.50546879,0.8649 l 0.6726563,2.0179 c -0.4300505,0.3511 -0.8341712,0.7552 -1.1851563,1.1852 l -2.0179688,-0.6727 c -0.3318769,0.4752 -0.6161424,0.9763 -0.8648437,1.5056 l 1.6015625,1.4414 c -0.1981895,0.5212 -0.3597714,1.0677 -0.4484375,1.6336 l -2.0820313,0.4164 c -0.023568,0.2836 -0.064062,0.5751 -0.064062,0.8648 0,0.2897 0.040495,0.5812 0.064062,0.8649 l 2.0820313,0.4164 c 0.088667,0.5659 0.250248,1.1123 0.4484375,1.6336 l -1.6015625,1.4414 c 0.2487013,0.5293 0.5329668,1.0303 0.8648437,1.5055 l 2.0179688,-0.6727 c 0.3509851,0.4301 0.7551058,0.8341 1.1851563,1.1852 l -0.6726563,2.0179 c 0.4751059,0.3319 0.9761899,0.6161 1.50546879,0.8649 l 1.44140627,-1.6016 c 0.52130424,0.1982 1.06764614,0.3597 1.63359374,0.4485 l 0.4164063,2.0819 c 0.2836277,0.024 0.5751295,0.064 0.8648438,0.064 0.2897142,0 0.581216,-0.04 0.8648437,-0.064 l 0.4164063,-2.0819 c 0.5659476,-0.089 1.112289,-0.2503 1.6335937,-0.4485 l 1.4414063,1.6016 c 0.5292793,-0.2488 1.0303628,-0.533 1.5054688,-0.8649 l -0.6726563,-2.0179 c 0.4300501,-0.3511 0.8341707,-0.7551 1.185156,-1.1852 l 2.017969,0.6727 c 0.331876,-0.4752 0.616143,-0.9762 0.864844,-1.5055 l -1.601563,-1.4414 c 0.19819,-0.5213 0.359771,-1.0677 0.448438,-1.6336 l 2.082031,-0.4164 c 0.02356,-0.2837 0.06406,-0.5752 0.06406,-0.8649 0,-0.2897 -0.0405,-0.5812 -0.06406,-0.8648 l -2.082031,-0.4164 c -0.08866,-0.5659 -0.250248,-1.1124 -0.448438,-1.6336 l 1.601563,-1.4414 c -0.248701,-0.5293 -0.532968,-1.0304 -0.864844,-1.5056 l -2.017969,0.6727 c -0.3509853,-0.43 -0.7551059,-0.8341 -1.185156,-1.1852 l 0.6726563,-2.0179 c -0.475106,-0.3319 -0.9761895,-0.6161 -1.5054688,-0.8649 l -1.4414063,1.6016 c -0.5213047,-0.1981 -1.0676461,-0.3597 -1.6335937,-0.4484 l -0.4164063,-2.082 c -0.2836277,-0.024 -0.5751295,-0.064 -0.8648437,-0.064 z m 0,4.1 c 3.3965558,0 6.15,2.7535 6.15,6.15 0,3.3966 -2.7534442,6.15 -6.15,6.15 -3.39655551,0 -6.1500001,-2.7534 -6.1500001,-6.15 0,-3.3965 2.75344459,-6.15 6.1500001,-6.15 z"
             id="path3869" />
        </g>
      </g>
      <g
         transform="matrix(0.81819669,0,0,0.81819669,0.63898742,179.47563)"
         id="g3974" />
    </g>
    <g
       id="kpackagekit-security"
       transform="translate(36.03231,0)">
      <g
         id="g3992"
         transform="translate(2.442749e-7,1.4746094e-5)">
        <rect
           y="1016.6949"
           x="-8.4852819"
           height="24"
           width="24"
           id="rect3994"
           style="fill:none;stroke:none" />
        <g
           id="g3996"
           transform="translate(-0.2499991,-0.25)">
          <path
             inkscape:connector-curvature="0"
             style="opacity:0.45;fill:#ffffff;fill-opacity:1;stroke:none"
             d="m 3.7647185,1019.1951 c -0.2897143,0 -0.5812161,0.041 -0.8648438,0.064 l -0.4164063,2.082 c -0.5659476,0.089 -1.1122895,0.2503 -1.63359374,0.4484 l -1.44140627,-1.6016 c -0.52927889,0.2488 -1.03036289,0.533 -1.50546879,0.8649 l 0.6726563,2.0179 c -0.4300505,0.3511 -0.8341712,0.7552 -1.1851563,1.1852 l -2.0179688,-0.6727 c -0.3318769,0.4752 -0.6161424,0.9763 -0.8648437,1.5056 l 1.6015625,1.4414 c -0.1981895,0.5212 -0.3597714,1.0677 -0.4484375,1.6336 l -2.0820313,0.4164 c -0.023568,0.2836 -0.064062,0.5751 -0.064062,0.8648 0,0.2897 0.040495,0.5812 0.064062,0.8649 l 2.0820313,0.4164 c 0.088667,0.5659 0.250248,1.1123 0.4484375,1.6336 l -1.6015625,1.4414 c 0.2487013,0.5293 0.5329668,1.0303 0.8648437,1.5055 l 2.0179688,-0.6727 c 0.3509851,0.4301 0.7551058,0.8341 1.1851563,1.1852 l -0.6726563,2.0179 c 0.4751059,0.3319 0.9761899,0.6161 1.50546879,0.8649 l 1.44140627,-1.6016 c 0.52130424,0.1982 1.06764614,0.3597 1.63359374,0.4485 l 0.4164063,2.0819 c 0.2836277,0.024 0.5751295,0.064 0.8648438,0.064 0.2897142,0 0.581216,-0.04 0.8648437,-0.064 l 0.4164063,-2.0819 c 0.5659476,-0.089 1.112289,-0.2503 1.6335937,-0.4485 l 1.4414063,1.6016 c 0.5292793,-0.2488 1.0303628,-0.533 1.5054688,-0.8649 l -0.6726563,-2.0179 c 0.4300501,-0.3511 0.8341707,-0.7551 1.185156,-1.1852 l 2.017969,0.6727 c 0.331876,-0.4752 0.616143,-0.9762 0.864844,-1.5055 l -1.601563,-1.4414 c 0.19819,-0.5213 0.359771,-1.0677 0.448438,-1.6336 l 2.082031,-0.4164 c 0.02356,-0.2837 0.06406,-0.5752 0.06406,-0.8649 0,-0.2897 -0.0405,-0.5812 -0.06406,-0.8648 l -2.082031,-0.4164 c -0.08866,-0.5659 -0.250248,-1.1124 -0.448438,-1.6336 l 1.601563,-1.4414 c -0.248701,-0.5293 -0.532968,-1.0304 -0.864844,-1.5056 l -2.017969,0.6727 c -0.3509853,-0.43 -0.7551059,-0.8341 -1.185156,-1.1852 l 0.6726563,-2.0179 c -0.475106,-0.3319 -0.9761895,-0.6161 -1.5054688,-0.8649 l -1.4414063,1.6016 c -0.5213047,-0.1981 -1.0676461,-0.3597 -1.6335937,-0.4484 l -0.4164063,-2.082 c -0.2836277,-0.024 -0.5751295,-0.064 -0.8648437,-0.064 z m 0,4.1 c 3.3965558,0 6.15,2.7535 6.15,6.15 0,3.3966 -2.7534442,6.15 -6.15,6.15 -3.39655551,0 -6.1500001,-2.7534 -6.1500001,-6.15 0,-3.3965 2.75344459,-6.15 6.1500001,-6.15 z"
             id="path3998" />
          <path
             id="path4000"
             d="m 3.7647185,1018.1949 c -0.2897143,0 -0.5812161,0.041 -0.8648438,0.064 l -0.4164063,2.082 c -0.5659476,0.089 -1.1122895,0.2503 -1.63359374,0.4484 l -1.44140627,-1.6016 c -0.52927889,0.2488 -1.03036289,0.533 -1.50546879,0.8649 l 0.6726563,2.0179 c -0.4300505,0.3511 -0.8341712,0.7552 -1.1851563,1.1852 l -2.0179688,-0.6727 c -0.3318769,0.4752 -0.6161424,0.9763 -0.8648437,1.5056 l 1.6015625,1.4414 c -0.1981895,0.5212 -0.3597714,1.0677 -0.4484375,1.6336 l -2.0820313,0.4164 c -0.023568,0.2836 -0.064062,0.5751 -0.064062,0.8648 0,0.2897 0.040495,0.5812 0.064062,0.8649 l 2.0820313,0.4164 c 0.088667,0.5659 0.250248,1.1123 0.4484375,1.6336 l -1.6015625,1.4414 c 0.2487013,0.5293 0.5329668,1.0303 0.8648437,1.5055 l 2.0179688,-0.6727 c 0.3509851,0.4301 0.7551058,0.8341 1.1851563,1.1852 l -0.6726563,2.0179 c 0.4751059,0.3319 0.9761899,0.6161 1.50546879,0.8649 l 1.44140627,-1.6016 c 0.52130424,0.1982 1.06764614,0.3597 1.63359374,0.4485 l 0.4164063,2.0819 c 0.2836277,0.024 0.5751295,0.064 0.8648438,0.064 0.2897142,0 0.581216,-0.04 0.8648437,-0.064 l 0.4164063,-2.0819 c 0.5659476,-0.089 1.112289,-0.2503 1.6335937,-0.4485 l 1.4414063,1.6016 c 0.5292793,-0.2488 1.0303628,-0.533 1.5054688,-0.8649 l -0.6726563,-2.0179 c 0.4300501,-0.3511 0.8341707,-0.7551 1.185156,-1.1852 l 2.017969,0.6727 c 0.331876,-0.4752 0.616143,-0.9762 0.864844,-1.5055 l -1.601563,-1.4414 c 0.19819,-0.5213 0.359771,-1.0677 0.448438,-1.6336 l 2.082031,-0.4164 c 0.02356,-0.2837 0.06406,-0.5752 0.06406,-0.8649 0,-0.2897 -0.0405,-0.5812 -0.06406,-0.8648 l -2.082031,-0.4164 c -0.08866,-0.5659 -0.250248,-1.1124 -0.448438,-1.6336 l 1.601563,-1.4414 c -0.248701,-0.5293 -0.532968,-1.0304 -0.864844,-1.5056 l -2.017969,0.6727 c -0.3509853,-0.43 -0.7551059,-0.8341 -1.185156,-1.1852 l 0.6726563,-2.0179 c -0.475106,-0.3319 -0.9761895,-0.6161 -1.5054688,-0.8649 l -1.4414063,1.6016 c -0.5213047,-0.1981 -1.0676461,-0.3597 -1.6335937,-0.4484 l -0.4164063,-2.082 c -0.2836277,-0.024 -0.5751295,-0.064 -0.8648437,-0.064 z m 0,4.1 c 3.3965558,0 6.15,2.7535 6.15,6.15 0,3.3966 -2.7534442,6.15 -6.15,6.15 -3.39655551,0 -6.1500001,-2.7534 -6.1500001,-6.15 0,-3.3965 2.75344459,-6.15 6.1500001,-6.15 z"
             style="opacity:1;fill:url(#linearGradient4008);fill-opacity:1;stroke:none"
             inkscape:connector-curvature="0" />
        </g>
      </g>
      <g
         id="g4002"
         transform="matrix(0.81819669,0,0,0.81819669,0.63898742,179.47563)">
        <path
           sodipodi:nodetypes="sscsssssscssssccss"
           inkscape:connector-curvature="0"
           id="path4004"
           d="m 3.5147183,1033.4157 c -1.656872,0 -3,1.3431 -3,3 l 0,1 c -0.553974,0 -1,0.446 -1,1 l 0,4 c 0,0.554 0.446026,1 1,1 l 6,0 c 0.553974,0 1,-0.446 1,-1 l 0,-4 c 0,-0.554 -0.446026,-1 -1,-1 l 0,-1 c 0,-1.6569 -1.343128,-3 -3,-3 z m 0,1 c 1.104569,0 2,0.8954 2,2 l 0,1 -4,0 0,-1 c 0,-1.1046 0.89543,-2 2,-2 z"
           style="opacity:0.45;fill:#ffffff;fill-opacity:1;stroke:none" />
        <path
           style="opacity:1;fill:url(#linearGradient4010);fill-opacity:1;stroke:none"
           d="m 3.5147183,1032.4159 c -1.656872,0 -3,1.3431 -3,3 l 0,1 c -0.553974,0 -1,0.446 -1,1 l 0,4 c 0,0.554 0.446026,1 1,1 l 6,0 c 0.553974,0 1,-0.446 1,-1 l 0,-4 c 0,-0.554 -0.446026,-1 -1,-1 l 0,-1 c 0,-1.6569 -1.343128,-3 -3,-3 z m 0,1 c 1.104569,0 2,0.8954 2,2 l 0,1 -4,0 0,-1 c 0,-1.1046 0.89543,-2 2,-2 z"
           id="path4006"
           inkscape:connector-curvature="0"
           sodipodi:nodetypes="sscsssssscssssccss" />
      </g>
    </g>
  </g>
</svg>
