<?xml version="1.0" encoding="UTF-8" standalone="no"?>
<!-- Created with Inkscape (http://www.inkscape.org/) -->

<svg
   xmlns:dc="http://purl.org/dc/elements/1.1/"
   xmlns:cc="http://creativecommons.org/ns#"
   xmlns:rdf="http://www.w3.org/1999/02/22-rdf-syntax-ns#"
   xmlns:svg="http://www.w3.org/2000/svg"
   xmlns="http://www.w3.org/2000/svg"
   xmlns:xlink="http://www.w3.org/1999/xlink"
   xmlns:sodipodi="http://sodipodi.sourceforge.net/DTD/sodipodi-0.dtd"
   xmlns:inkscape="http://www.inkscape.org/namespaces/inkscape"
   version="1.0"
   width="128"
   height="128"
   id="svg3727"
   inkscape:version="0.48.3.1 r9886"
   sodipodi:docname="message-indicator.svg">
  <sodipodi:namedview
     pagecolor="#000000"
     bordercolor="#666666"
     borderopacity="1"
     objecttolerance="10"
     gridtolerance="10"
     guidetolerance="10"
     inkscape:pageopacity="0.47058824"
     inkscape:pageshadow="2"
     inkscape:window-width="1360"
     inkscape:window-height="701"
     id="namedview3084"
     showgrid="false"
     inkscape:zoom="5.2149125"
     inkscape:cx="51.042319"
     inkscape:cy="124.88448"
     inkscape:window-x="-2"
     inkscape:window-y="-3"
     inkscape:window-maximized="1"
     inkscape:current-layer="svg3727" />
  <metadata
     id="metadata244">
    <rdf:RDF>
      <cc:Work
         rdf:about="">
        <dc:format>image/svg+xml</dc:format>
        <dc:type
           rdf:resource="http://purl.org/dc/dcmitype/StillImage" />
        <dc:title />
      </cc:Work>
    </rdf:RDF>
  </metadata>
  <defs
     id="defs3729">
    <linearGradient
       id="linearGradient4310">
      <stop
         id="stop4312"
         style="stop-color:#d1ffb5;stop-opacity:1"
         offset="0" />
      <stop
         id="stop4322"
         style="stop-color:#93fc6d;stop-opacity:1"
         offset="0.57364649" />
      <stop
         id="stop4320"
         style="stop-color:#00c41a;stop-opacity:1"
         offset="1" />
    </linearGradient>
    <linearGradient
       id="linearGradient4530">
      <stop
         id="stop3722"
         style="stop-color:#14d600;stop-opacity:1"
         offset="0" />
      <stop
         id="stop3726"
         style="stop-color:#12c200;stop-opacity:1"
         offset="0.5" />
      <stop
         id="stop4534"
         style="stop-color:#10ae00;stop-opacity:1"
         offset="1" />
    </linearGradient>
    <linearGradient
       id="linearGradient4249">
      <stop
         id="stop4251"
         style="stop-color:#ffffff;stop-opacity:1"
         offset="0" />
      <stop
         id="stop4253"
         style="stop-color:#ffffff;stop-opacity:0.78431374"
         offset="0.47000003" />
      <stop
         id="stop4255"
         style="stop-color:#ffffff;stop-opacity:0.51724136"
         offset="0.75125003" />
      <stop
         id="stop4257"
         style="stop-color:#ffffff;stop-opacity:1"
         offset="1" />
    </linearGradient>
    <linearGradient
       x1="75"
       y1="98"
       x2="75"
       y2="110.125"
       id="linearGradient3977"
       xlink:href="#linearGradient4249"
       gradientUnits="userSpaceOnUse" />
    <linearGradient
       x1="42"
       y1="97"
       x2="42"
       y2="114"
       id="linearGradient3979"
       xlink:href="#linearGradient4249"
       gradientUnits="userSpaceOnUse" />
    <linearGradient
       x1="75"
       y1="98"
       x2="75"
       y2="110.125"
       id="linearGradient3621"
       xlink:href="#linearGradient4249"
       gradientUnits="userSpaceOnUse"
       gradientTransform="translate(0,2)" />
    <linearGradient
       x1="75"
       y1="98"
       x2="75"
       y2="110.125"
       id="linearGradient3646"
       xlink:href="#linearGradient4249"
       gradientUnits="userSpaceOnUse"
       gradientTransform="translate(0,2)" />
    <linearGradient
       x1="75"
       y1="98"
       x2="75"
       y2="110.125"
       id="linearGradient3646-2"
       xlink:href="#linearGradient4249-4"
       gradientUnits="userSpaceOnUse"
       gradientTransform="translate(0,2)" />
    <linearGradient
       id="linearGradient4249-4">
      <stop
         id="stop4251-8"
         style="stop-color:#ffffff;stop-opacity:1"
         offset="0" />
      <stop
         id="stop4253-0"
         style="stop-color:#ffffff;stop-opacity:0.78431374"
         offset="0.47000003" />
      <stop
         id="stop4255-6"
         style="stop-color:#ffffff;stop-opacity:0.51724136"
         offset="0.75125003" />
      <stop
         id="stop4257-2"
         style="stop-color:#ffffff;stop-opacity:1"
         offset="1" />
    </linearGradient>
    <linearGradient
       x1="75"
       y1="98"
       x2="75"
       y2="110.125"
       id="linearGradient4446"
       xlink:href="#linearGradient4249-4"
       gradientUnits="userSpaceOnUse"
       gradientTransform="translate(0,2)" />
    <linearGradient
       x1="55"
       y1="16"
       x2="55"
       y2="28"
       id="linearGradient4536"
       xlink:href="#linearGradient4530"
       gradientUnits="userSpaceOnUse"
       gradientTransform="matrix(1,0,0,0.91666667,4,6.3333333)" />
    <linearGradient
       x1="55"
       y1="16"
       x2="55"
       y2="28"
       id="linearGradient4536-7"
       xlink:href="#linearGradient4530-1"
       gradientUnits="userSpaceOnUse"
       gradientTransform="matrix(1,0,0,0.91666667,4,6.3333333)" />
    <linearGradient
       id="linearGradient4530-1">
      <stop
         id="stop3722-3"
         style="stop-color:#14d600;stop-opacity:1"
         offset="0" />
      <stop
         id="stop3726-3"
         style="stop-color:#12c200;stop-opacity:1"
         offset="0.5" />
      <stop
         id="stop4534-7"
         style="stop-color:#10ae00;stop-opacity:1"
         offset="1" />
    </linearGradient>
    <linearGradient
       x1="55"
       y1="16"
       x2="55"
       y2="28"
       id="linearGradient4259"
       xlink:href="#linearGradient4530-1"
       gradientUnits="userSpaceOnUse"
       gradientTransform="matrix(1,0,0,0.91666667,-4,3.333333)" />
    <filter
       x="-0.10105263"
       y="-0.14769231"
       width="1.2021053"
       height="1.2953846"
       color-interpolation-filters="sRGB"
       id="filter4222-7">
      <feGaussianBlur
         id="feGaussianBlur4224-6"
         stdDeviation="0.8" />
    </filter>
    <radialGradient
       cx="50.807987"
       cy="24.580118"
       r="11.42"
       fx="50.807987"
       fy="24.580118"
       id="radialGradient4318"
       xlink:href="#linearGradient4310"
       gradientUnits="userSpaceOnUse"
       gradientTransform="matrix(0.92636037,1.403816e-8,4.471698e-8,0.67027545,3.7617292,7.7900041)" />
    <linearGradient
       x1="102.28843"
       y1="32.96233"
       x2="102.28843"
       y2="12.785161"
       id="linearGradient2388"
       xlink:href="#linearGradient2867-449-88-871-390-598-476-591-434-148"
       gradientUnits="userSpaceOnUse"
       gradientTransform="matrix(0.53073118,0,0,0.72691043,-44.423428,-12.960333)" />
    <linearGradient
       id="linearGradient2867-449-88-871-390-598-476-591-434-148">
      <stop
         id="stop4629"
         style="stop-color:#49a3d2;stop-opacity:1"
         offset="0" />
      <stop
         id="stop4631"
         style="stop-color:#3470b4;stop-opacity:1"
         offset="0.704952" />
      <stop
         id="stop4633"
         style="stop-color:#1b5699;stop-opacity:1"
         offset="1" />
    </linearGradient>
    <linearGradient
       x1="102.28843"
       y1="32.96233"
       x2="102.28843"
       y2="12.785161"
       id="linearGradient3017"
       xlink:href="#linearGradient2867-449-88-871-390-598-476-591-434-148"
       gradientUnits="userSpaceOnUse"
       gradientTransform="matrix(0.53073118,0,0,0.72691043,-44.423428,-12.960333)" />
    <linearGradient
       x1="45.52272"
       y1="0.94087785"
       x2="45.52272"
       y2="34.003155"
       id="linearGradient2388-4"
       xlink:href="#linearGradient3587-6-5-3-3"
       gradientUnits="userSpaceOnUse"
       gradientTransform="matrix(0.53073118,0,0,0.72691043,-44.423428,-5.1825556)" />
    <linearGradient
       id="linearGradient3587-6-5-3-3">
      <stop
         id="stop3589-9-2-2-1"
         style="stop-color:#000000;stop-opacity:1"
         offset="0" />
      <stop
         id="stop3591-7-4-73-4"
         style="stop-color:#363636;stop-opacity:1"
         offset="1" />
    </linearGradient>
    <linearGradient
       x1="45.52272"
       y1="0.94087785"
       x2="45.52272"
       y2="34.003155"
       id="linearGradient3048"
       xlink:href="#linearGradient3587-6-5-3-3"
       gradientUnits="userSpaceOnUse"
       gradientTransform="matrix(0.53073118,0,0,0.72691043,-44.423428,-5.1825556)" />
    <linearGradient
       x1="45.52272"
       y1="0.94087785"
       x2="45.52272"
       y2="34.003155"
       id="linearGradient3081"
       xlink:href="#linearGradient3587-6-5-3-3"
       gradientUnits="userSpaceOnUse"
       gradientTransform="matrix(0.53073118,0,0,0.72691043,-45.423428,12.817444)" />
    <linearGradient
       x1="45.52272"
       y1="0.94087785"
       x2="45.52272"
       y2="34.003155"
       id="linearGradient3090"
       xlink:href="#linearGradient3587-6-5-3-3"
       gradientUnits="userSpaceOnUse"
       gradientTransform="matrix(0.53073118,0,0,0.72691043,-45.423428,12.817444)" />
  </defs>
  <rect
     width="24"
     height="24"
     ry="0.21213204"
     x="75"
     y="71"
     id="rect3847"
     style="fill:#5222bd;fill-opacity:0;stroke:none" />
  <g
     transform="translate(40.416667,19.333333)"
     id="new">
    <rect
       width="24"
       height="24"
       x="0.090099014"
       y="0.12376216"
       transform="translate(0,-8)"
       id="rect2990"
       style="opacity:0;fill:#00000a;fill-opacity:1;stroke:none" />
    <path
       d="M 2.2222222,-2.6666667 C 1.5451111,-2.6666667 1,-2.1215556 1,-1.4444444 L 1,10.777778 C 1,11.454889 1.5451111,12 2.2222222,12 L 21.777778,12 C 22.454889,12 23,11.454889 23,10.777778 l 0,-12.2222224 c 0,-0.6771112 -0.545111,-1.2222223 -1.222222,-1.2222223 l -19.5555558,0 z m 1.03125,1.4131945 8.3645838,8.3645833 0.725694,0 8.402778,-8.3645833 0.840278,0.84027776 -5.003473,5.07986114 3.78125,3.8576389 -0.840277,0.8402777 -3.857639,-3.8576389 -2.788195,2.8263889 -1.756944,0 L 8.3333333,5.5069444 4.4756944,9.4027778 3.6354167,8.5243056 7.4548611,4.6666667 2.4131944,-0.41319444 3.2534722,-1.2534722 z"
       id="path3193"
       style="opacity:0.45;fill:#ffffff;fill-opacity:1;fill-rule:nonzero;stroke:none;stroke-width:1;marker:none;visibility:visible;display:inline;overflow:visible;enable-background:accumulate" />
    <path
       d="M 2.2222222,-3.6666667 C 1.5451111,-3.6666667 1,-3.1215556 1,-2.4444444 L 1,9.7777778 C 1,10.454889 1.5451111,11 2.2222222,11 L 21.777778,11 C 22.454889,11 23,10.454889 23,9.7777778 l 0,-12.2222222 c 0,-0.6771112 -0.545111,-1.2222223 -1.222222,-1.2222223 l -19.5555558,0 z m 1.03125,1.4131945 8.3645838,8.3645833 0.725694,0 8.402778,-8.3645833 0.840278,0.8402778 -5.003473,5.0798611 3.78125,3.8576389 -0.840277,0.8402777 -3.857639,-3.8576389 -2.788195,2.8263889 -1.756944,0 L 8.3333333,4.5069444 4.4756944,8.4027778 3.6354167,7.5243056 7.4548611,3.6666667 2.4131944,-1.4131944 3.2534722,-2.2534722 z"
       id="rect3170"
       style="fill:#787878;fill-opacity:1;fill-rule:nonzero;stroke:none;stroke-width:1;marker:none;visibility:visible;display:inline;overflow:visible;enable-background:accumulate" />
  </g>
  <g
     transform="translate(5.333334,-7.284722)"
     id="normal">
    <rect
       width="24"
       height="24"
       x="-1.0756013"
       y="17.958763"
       id="rect3022"
       style="opacity:0;fill:#00000a;fill-opacity:1;stroke:none" />
    <path
       d="M 1.2222222,23.333333 C 0.5451111,23.333333 0,23.878444 0,24.555555 L 0,36.777778 C 0,37.454889 0.5451111,38 1.2222222,38 L 20.777778,38 C 21.454889,38 22,37.454889 22,36.777778 l 0,-12.222223 c 0,-0.677111 -0.545111,-1.222222 -1.222222,-1.222222 l -19.5555558,0 z m 1.03125,1.413195 8.3645828,8.364583 0.725694,0 8.402779,-8.364583 0.840278,0.840277 -5.003472,5.079861 3.781249,3.85764 -0.840277,0.840277 -3.85764,-3.857638 -2.788194,2.826389 -1.756944,0 -2.7881946,-2.826389 -3.8576389,3.895833 -0.8402779,-0.878472 3.8194445,-3.85764 -5.0416666,-5.079861 0.8402777,-0.840277 z"
       id="path3193-9"
       style="opacity:0.45;fill:#ffffff;fill-opacity:1;fill-rule:nonzero;stroke:none;stroke-width:1;marker:none;visibility:visible;display:inline;overflow:visible;enable-background:accumulate" />
    <path
       d="M 1.2222222,22.111111 C 0.5451111,22.111111 0,22.656222 0,23.333333 l 0,12.222222 c 0,0.677111 0.5451111,1.222223 1.2222222,1.222223 l 19.5555558,0 C 21.454889,36.777778 22,36.232666 22,35.555555 l 0,-12.222222 c 0,-0.677111 -0.545111,-1.222222 -1.222222,-1.222222 l -19.5555558,0 z m 1.03125,1.413194 8.3645828,8.364584 0.725694,0 8.402779,-8.364584 0.840278,0.840278 -5.003472,5.079862 3.781249,3.857638 -0.840277,0.840278 -3.85764,-3.857639 -2.788194,2.826389 -1.756944,0 L 7.3333334,30.284722 3.4756945,34.180555 2.6354166,33.302083 6.4548611,29.444445 1.4131945,24.364583 2.2534722,23.524305 z"
       id="rect3170-2"
       style="opacity:1;fill:#4a4a4a;fill-opacity:1;fill-rule:nonzero;stroke:none;stroke-width:1;marker:none;visibility:visible;display:inline;overflow:visible;enable-background:accumulate" />
  </g>
</svg>
