<?xml version="1.0" encoding="UTF-8" standalone="no"?>
<!-- Created with Inkscape (http://www.inkscape.org/) -->

<svg
   xmlns:dc="http://purl.org/dc/elements/1.1/"
   xmlns:cc="http://creativecommons.org/ns#"
   xmlns:rdf="http://www.w3.org/1999/02/22-rdf-syntax-ns#"
   xmlns:svg="http://www.w3.org/2000/svg"
   xmlns="http://www.w3.org/2000/svg"
   xmlns:xlink="http://www.w3.org/1999/xlink"
   xmlns:sodipodi="http://sodipodi.sourceforge.net/DTD/sodipodi-0.dtd"
   xmlns:inkscape="http://www.inkscape.org/namespaces/inkscape"
   version="1.1"
   width="24"
   height="24"
   id="svg3067"
   inkscape:version="0.48.3.1 r9886"
   sodipodi:docname="nepomuk.svg">
  <sodipodi:namedview
     pagecolor="#000000"
     bordercolor="#666666"
     borderopacity="1"
     objecttolerance="10"
     gridtolerance="10"
     guidetolerance="10"
     inkscape:pageopacity="0.62745098"
     inkscape:pageshadow="2"
     inkscape:window-width="1360"
     inkscape:window-height="701"
     id="namedview23"
     showgrid="false"
     inkscape:zoom="6.6666665"
     inkscape:cx="-6.1528291"
     inkscape:cy="7.7439243"
     inkscape:window-x="-2"
     inkscape:window-y="-3"
     inkscape:window-maximized="1"
     inkscape:current-layer="svg3067" />
  <defs
     id="defs3069">
    <linearGradient
       x1="30"
       y1="2.4192097"
       x2="30"
       y2="21.578968"
       id="linearGradient3033"
       xlink:href="#linearGradient3587-6-5-3-7-8"
       gradientUnits="userSpaceOnUse"
       gradientTransform="translate(0,-0.5004)" />
    <linearGradient
       id="linearGradient3587-6-5-3-7-8">
      <stop
         id="stop3589-9-2-2-3-2"
         style="stop-color:#000000;stop-opacity:1"
         offset="0" />
      <stop
         id="stop3591-7-4-73-3-5"
         style="stop-color:#363636;stop-opacity:1"
         offset="1" />
    </linearGradient>
    <linearGradient
       x1="6.2161241"
       y1="11.85625"
       x2="18.680017"
       y2="11.85625"
       id="linearGradient3031"
       xlink:href="#linearGradient3813-0-0"
       gradientUnits="userSpaceOnUse"
       gradientTransform="translate(0,0.4995955)" />
    <linearGradient
       id="linearGradient3813-0-0">
      <stop
         id="stop3815-6-6"
         style="stop-color:#ffffff;stop-opacity:1"
         offset="0" />
      <stop
         id="stop3817-8-1"
         style="stop-color:#ffffff;stop-opacity:0.78431374"
         offset="0.5" />
      <stop
         id="stop3819-9-5"
         style="stop-color:#ffffff;stop-opacity:0.39215687"
         offset="0.75" />
      <stop
         id="stop3821-2-9"
         style="stop-color:#ffffff;stop-opacity:1"
         offset="1" />
    </linearGradient>
    <linearGradient
       x1="6.2161241"
       y1="11.85625"
       x2="18.680017"
       y2="11.85625"
       id="linearGradient3065"
       xlink:href="#linearGradient3813-0-0"
       gradientUnits="userSpaceOnUse"
       gradientTransform="translate(0,0.4995955)" />
    <linearGradient
       inkscape:collect="always"
       xlink:href="#linearGradient3587-6-5-3-7-8"
       id="linearGradient3023"
       gradientUnits="userSpaceOnUse"
       gradientTransform="translate(0,-0.5004)"
       x1="30"
       y1="2.4192097"
       x2="30"
       y2="21.578968" />
  </defs>
  <metadata
     id="metadata3072">
    <rdf:RDF>
      <cc:Work
         rdf:about="">
        <dc:format>image/svg+xml</dc:format>
        <dc:type
           rdf:resource="http://purl.org/dc/dcmitype/StillImage" />
        <dc:title />
      </cc:Work>
    </rdf:RDF>
  </metadata>
  <g
     id="nepomuk">
    <g
       transform="translate(-0.4486466,0.1440005)"
       id="layer3"
       style="display:inline">
      <path
         d="M 10.795931,2.4911415 C 9.2013654,2.5345047 7.7299432,3.559083 7.1928099,5.1585648 6.5052788,7.2059031 7.6076925,9.4255065 9.6549422,10.113067 c 0.237074,0.07962 0.4765718,0.137253 0.7156198,0.170154 0.121607,0.0101 0.239473,0.03449 0.360312,0.07507 0.485004,0.162884 0.836329,0.547862 0.98085,1.000908 0.149092,0.339563 0.177316,0.732024 0.05004,1.111011 -0.06458,0.192303 -0.161022,0.364925 -0.285245,0.510463 -0.0091,0.01076 -0.02056,0.01952 -0.03003,0.03003 -0.01141,0.01021 -0.0237,0.01974 -0.03503,0.03003 -0.853346,0.775682 -1.4414158,1.836586 -1.611396,3.032754 -0.012711,0.06778 -0.032811,0.137916 -0.055044,0.205186 C 9.4773601,17.088459 8.6030838,17.52724 7.7933329,17.259565 7.6540208,17.213515 7.5287075,17.14795 7.413003,17.069392 l -0.00501,0 C 7.2028847,16.932799 6.9776212,16.820147 6.7324063,16.739087 5.2589624,16.25202 3.6663761,17.052204 3.1793299,18.525713 c -0.4870482,1.473504 0.3131014,3.066161 1.7865475,3.55323 1.376425,0.454994 2.8571318,-0.210155 3.4429819,-1.501366 0.3014547,-0.750523 1.1432108,-1.148136 1.9216637,-0.890811 0.280486,0.09272 0.513029,0.255016 0.690599,0.465423 0.930181,1.05361 2.289165,1.71656 3.803295,1.71656 2.800084,0 5.069392,-2.274406 5.069392,-5.074612 0,-1.048096 -0.32094,-2.019648 -0.86575,-2.827568 -0.164187,-0.286581 -0.239274,-0.623713 -0.190167,-0.975887 0.03296,-0.236393 0.1164,-0.454246 0.24021,-0.640583 l 0.315272,-0.425386 c 0.226388,-0.273746 0.541386,-0.466822 0.895777,-0.535486 l 0.005,-0.005 c 0.788893,-0.161904 1.428816,-0.808692 1.54634,-1.6514982 0.149193,-1.069926 -0.596565,-2.057808 -1.666444,-2.2070059 -1.069881,-0.1491979 -2.062725,0.5965896 -2.211917,1.6665146 -0.03058,0.2193424 -0.0248,0.4395563 0.01502,0.6455863 0.01773,0.134724 0.01968,0.2692892 0,0.4103732 -0.03406,0.244278 -0.124563,0.469948 -0.25522,0.660598 l -0.305266,0.415378 c -0.330683,0.395513 -0.848355,0.61689 -1.396209,0.540491 -0.0264,-0.0037 -0.05418,-0.0101 -0.08007,-0.01501 -0.300064,-0.06753 -0.608203,-0.108336 -0.925801,-0.120109 -0.01998,-1.4e-4 -0.04002,-0.0041 -0.06006,-0.005 -0.02007,-5.13e-4 -0.03993,2.75e-4 -0.06006,0 -0.120273,-0.01021 -0.240817,-0.03493 -0.360312,-0.07507 -0.483525,-0.162389 -0.830513,-0.539674 -0.975846,-0.9909 C 13.40755,10.318042 13.375461,9.9231988 13.503276,9.5425818 13.559476,9.3752266 13.646414,9.2196768 13.74849,9.0871686 14.126651,8.687512 14.422656,8.2014516 14.609234,7.645858 15.296747,5.5985208 14.194336,3.3789163 12.147085,2.6913558 11.69925,2.5409521 11.242393,2.4790321 10.795915,2.4911747 z m 0.145126,1.2761596 c 0.258486,0.00577 0.517769,0.048511 0.775671,0.1351228 1.375479,0.4619483 2.118364,1.952486 1.656436,3.328024 C 12.911235,8.6059859 11.42076,9.3489014 10.045282,8.8869531 8.6698026,8.4250049 7.9269167,6.934466 8.3888462,5.5589292 8.7641632,4.4413045 9.820947,3.7423558 10.941057,3.7673011 z m 8.897706,4.5541378 c 0.07535,-0.00477 0.147527,-8.231e-4 0.225196,0.00998 0.62137,0.086649 1.057487,0.6597697 0.970841,1.2811639 -0.08664,0.6213942 -0.659739,1.0525262 -1.281111,0.9658762 -0.621363,-0.08665 -1.057487,-0.6597682 -0.970842,-1.2811626 0.07582,-0.5437195 0.52846,-0.9423578 1.055916,-0.9758869 z M 14.824421,13.21088 c 1.97966,1e-6 3.583104,1.603511 3.583104,3.583255 -2e-6,1.979743 -1.603444,3.588263 -3.583104,3.588263 -1.979659,0 -3.588108,-1.60852 -3.588108,-3.588263 0,-1.979744 1.608449,-3.583255 3.588108,-3.583255 z m -9.0428329,4.46906 c 0.058425,-0.0026 0.1155082,0.0016 0.1751529,0.005 0.9542956,0.05488 1.68629,0.872322 1.6314118,1.826663 -0.054885,0.954336 -0.8722844,1.681356 -1.8265832,1.626477 -0.9542977,-0.05489 -1.6862911,-0.872322 -1.6314118,-1.826659 0.051451,-0.894695 0.774985,-1.59306 1.6514303,-1.631486 z"
         id="path3256"
         style="fill:#ffffff;fill-opacity:1;fill-rule:evenodd;stroke:none;opacity:0.45"
         inkscape:connector-curvature="0" />
    </g>
    <g
       style="display:inline"
       id="layer4"
       transform="translate(-0.4481466,0.1440005)">
      <path
         inkscape:connector-curvature="0"
         style="opacity:1;fill:#363636;fill-opacity:1;fill-rule:evenodd;stroke:none;display:inline"
         id="path3256-8"
         d="M 10.795931,1.491146 C 9.2013654,1.5345092 7.7299432,2.5590875 7.1928099,4.1585693 6.5052788,6.2059076 7.6076925,8.425511 9.6549422,9.1130705 c 0.237074,0.07962 0.4765718,0.1372525 0.7156198,0.1701535 0.121607,0.0101 0.239473,0.034489 0.360312,0.075069 0.485004,0.1628835 0.836329,0.5478595 0.98085,1.000905 0.149092,0.339563 0.177316,0.732024 0.05004,1.111011 -0.06458,0.192304 -0.161022,0.364926 -0.285245,0.510464 -0.0091,0.01076 -0.02056,0.01952 -0.03003,0.03003 -0.01141,0.01021 -0.0237,0.01974 -0.03503,0.03003 -0.853346,0.775682 -1.4414158,1.836586 -1.611396,3.032754 -0.012711,0.06778 -0.032811,0.137916 -0.055044,0.205186 C 9.4773601,16.088459 8.6030838,16.52724 7.7933329,16.259565 7.6540208,16.213515 7.5287075,16.14795 7.413003,16.069392 l -0.00501,0 C 7.2028847,15.932799 6.9776212,15.820147 6.7324063,15.739087 5.2589624,15.25202 3.6663761,16.052204 3.1793299,17.525713 c -0.4870482,1.473504 0.3131014,3.066161 1.7865475,3.55323 1.376425,0.454994 2.8571318,-0.210155 3.4429819,-1.501366 0.3014547,-0.750523 1.1432108,-1.148136 1.9216637,-0.890811 0.280486,0.09272 0.513029,0.255016 0.690599,0.465423 0.930181,1.05361 2.289165,1.71656 3.803295,1.71656 2.800084,0 5.069392,-2.274406 5.069392,-5.074612 0,-1.048096 -0.32094,-2.019648 -0.86575,-2.827568 -0.164187,-0.286581 -0.239274,-0.623713 -0.190167,-0.975887 0.03296,-0.236393 0.1164,-0.454246 0.24021,-0.640584 l 0.315272,-0.425386 c 0.226388,-0.273746 0.541386,-0.466822 0.895777,-0.535486 l 0.005,-0.005 c 0.788893,-0.161904 1.428816,-0.8086895 1.54634,-1.6514927 0.149193,-1.069926 -0.596565,-2.057808 -1.666444,-2.2070059 -1.069881,-0.1491979 -2.062725,0.5965896 -2.211917,1.6665146 -0.03058,0.2193424 -0.0248,0.4395563 0.01502,0.6455863 0.01773,0.134724 0.01968,0.2692882 0,0.4103717 -0.03406,0.244277 -0.124563,0.4699455 -0.25522,0.6605945 l -0.305266,0.4153775 c -0.330683,0.395513 -0.848355,0.61689 -1.396209,0.540491 -0.0264,-0.0037 -0.05418,-0.0101 -0.08007,-0.01501 -0.300064,-0.06753 -0.608203,-0.108336 -0.925801,-0.120109 -0.01998,-1.4e-4 -0.04002,-0.0041 -0.06006,-0.005 -0.02007,-5.13e-4 -0.03993,2.75e-4 -0.06006,0 -0.120273,-0.01021 -0.240817,-0.03493 -0.360312,-0.07507 C 14.050627,10.487085 13.703639,10.1098 13.558306,9.658576 13.40755,9.3180445 13.375461,8.9232033 13.503276,8.5425863 13.559476,8.3752311 13.646414,8.2196813 13.74849,8.0871731 14.126651,7.6875165 14.422656,7.2014561 14.609234,6.6458625 15.296747,4.5985253 14.194336,2.3789208 12.147085,1.6913603 11.69925,1.5409566 11.242393,1.4790366 10.795915,1.4911792 z m 0.145126,1.2761596 c 0.258486,0.00577 0.517769,0.048511 0.775671,0.1351228 1.375479,0.4619483 2.118364,1.952486 1.656436,3.328024 C 12.911235,7.6059904 11.42076,8.3489059 10.045282,7.8869576 8.6698026,7.4250094 7.9269167,5.9344705 8.3888462,4.5589337 8.7641632,3.441309 9.820947,2.7423603 10.941057,2.7673056 z m 8.897706,4.5541378 c 0.07535,-0.00477 0.147527,-8.231e-4 0.225196,0.00998 0.62137,0.086649 1.057487,0.6597697 0.970841,1.2811639 C 20.94816,9.23398 20.375061,9.66511 19.753689,9.5784605 19.132326,9.4918105 18.696202,8.9186953 18.782847,8.2973009 18.858667,7.7535814 19.311307,7.3549431 19.838763,7.321414 z M 14.824421,12.21088 c 1.97966,1e-6 3.583104,1.603511 3.583104,3.583255 -2e-6,1.979743 -1.603444,3.588263 -3.583104,3.588263 -1.979659,0 -3.588108,-1.60852 -3.588108,-3.588263 0,-1.979744 1.608449,-3.583255 3.588108,-3.583255 z m -9.0428329,4.46906 c 0.058425,-0.0026 0.1155082,0.0016 0.1751529,0.005 0.9542956,0.05488 1.68629,0.872322 1.6314118,1.826663 -0.054885,0.954336 -0.8722844,1.681356 -1.8265832,1.626477 -0.9542977,-0.05489 -1.6862911,-0.872322 -1.6314118,-1.826659 0.051451,-0.894695 0.774985,-1.59306 1.6514303,-1.631486 z" />
    </g>
    <rect
       style="opacity:0;fill:#00000a;fill-opacity:1;stroke:none"
       id="rect3110"
       y="0"
       x="0"
       height="24"
       width="24" />
  </g>
</svg>
