<?xml version="1.0" encoding="UTF-8" standalone="no"?>
<!-- Created with Inkscape (http://www.inkscape.org/) -->

<svg
   xmlns:dc="http://purl.org/dc/elements/1.1/"
   xmlns:cc="http://creativecommons.org/ns#"
   xmlns:rdf="http://www.w3.org/1999/02/22-rdf-syntax-ns#"
   xmlns:svg="http://www.w3.org/2000/svg"
   xmlns="http://www.w3.org/2000/svg"
   xmlns:xlink="http://www.w3.org/1999/xlink"
   xmlns:sodipodi="http://sodipodi.sourceforge.net/DTD/sodipodi-0.dtd"
   xmlns:inkscape="http://www.inkscape.org/namespaces/inkscape"
   version="1.0"
   width="24"
   height="24"
   id="svg3727"
   sodipodi:version="0.32"
   inkscape:version="0.48.3.1 r9886"
   sodipodi:docname="preferences.svg"
   inkscape:output_extension="org.inkscape.output.svgz.inkscape">
  <sodipodi:namedview
     inkscape:window-height="701"
     inkscape:window-width="1360"
     inkscape:pageshadow="2"
     inkscape:pageopacity="0.30980392"
     guidetolerance="10.0"
     gridtolerance="10"
     objecttolerance="10.0"
     borderopacity="1"
     bordercolor="#666666"
     pagecolor="#000000"
     id="base"
     showgrid="false"
     inkscape:zoom="22.627417"
     inkscape:cx="99.210897"
     inkscape:cy="-19.646567"
     inkscape:window-x="-2"
     inkscape:window-y="-3"
     inkscape:current-layer="svg3727"
     inkscape:window-maximized="1"
     inkscape:snap-global="true"
     showguides="true"
     inkscape:guide-bbox="true"
     inkscape:showpageshadow="true"
     fit-margin-top="0"
     fit-margin-left="0"
     fit-margin-right="0"
     fit-margin-bottom="0">
    <inkscape:grid
       snapvisiblegridlinesonly="true"
       enabled="true"
       visible="true"
       empspacing="5"
       type="xygrid"
       id="grid2629" />
    <sodipodi:guide
       position="-202.75,-69.5"
       orientation="0,128"
       id="guide4838" />
    <sodipodi:guide
       position="-74.75,-69.5"
       orientation="-128,0"
       id="guide4840" />
    <sodipodi:guide
       position="-74.75,58.5"
       orientation="0,-128"
       id="guide4842" />
    <sodipodi:guide
       position="-202.75,58.5"
       orientation="128,0"
       id="guide4844" />
    <sodipodi:guide
       position="-202.75,-69.5"
       orientation="0,128"
       id="guide4846" />
    <sodipodi:guide
       position="-74.75,-69.5"
       orientation="-128,0"
       id="guide4848" />
    <sodipodi:guide
       position="-74.75,58.5"
       orientation="0,-128"
       id="guide4850" />
    <sodipodi:guide
       position="-202.75,58.5"
       orientation="128,0"
       id="guide4852" />
    <sodipodi:guide
       position="-202.75,-69.5"
       orientation="0,128"
       id="guide4854" />
    <sodipodi:guide
       position="-74.75,-69.5"
       orientation="-128,0"
       id="guide4856" />
    <sodipodi:guide
       position="-74.75,58.5"
       orientation="0,-128"
       id="guide4858" />
    <sodipodi:guide
       position="-202.75,58.5"
       orientation="128,0"
       id="guide4860" />
  </sodipodi:namedview>
  <metadata
     id="metadata244">
    <rdf:RDF>
      <cc:Work
         rdf:about="">
        <dc:format>image/svg+xml</dc:format>
        <dc:type
           rdf:resource="http://purl.org/dc/dcmitype/StillImage" />
        <dc:title />
      </cc:Work>
    </rdf:RDF>
  </metadata>
  <defs
     id="defs3729">
    <linearGradient
       id="linearGradient4057">
      <stop
         id="stop4059"
         offset="0"
         style="stop-color:#646464;stop-opacity:1;" />
      <stop
         id="stop4061"
         offset="1"
         style="stop-color:#363636;stop-opacity:1;" />
    </linearGradient>
    <linearGradient
       id="linearGradient3862">
      <stop
         style="stop-color:#4a4a4a;stop-opacity:1;"
         offset="0"
         id="stop3864" />
      <stop
         style="stop-color:#4a4a4a;stop-opacity:1;"
         offset="1"
         id="stop3866" />
    </linearGradient>
    <inkscape:perspective
       sodipodi:type="inkscape:persp3d"
       inkscape:vp_x="0 : 12 : 1"
       inkscape:vp_y="0 : 1000 : 0"
       inkscape:vp_z="24 : 12 : 1"
       inkscape:persp3d-origin="12 : 8 : 1"
       id="perspective106" />
    <style
       id="style4675"
       type="text/css">
   
    .fil0 {fill:#0093DD}
    .fil1 {fill:white}
   
  </style>
    <linearGradient
       id="linearGradient4249">
      <stop
         style="stop-color:#ffffff;stop-opacity:1;"
         offset="0"
         id="stop4251" />
      <stop
         id="stop4253"
         offset="0.47000003"
         style="stop-color:#ffffff;stop-opacity:0.78431374;" />
      <stop
         style="stop-color:#ffffff;stop-opacity:0.39215687;"
         offset="0.75125003"
         id="stop4255" />
      <stop
         style="stop-color:#ffffff;stop-opacity:1;"
         offset="1"
         id="stop4257" />
    </linearGradient>
    <radialGradient
       r="5.78125"
       fy="10.667185"
       fx="11.481655"
       cy="10.667185"
       cx="11.481655"
       gradientTransform="matrix(1.4755207,-2.6838982e-8,2.8355153e-8,1.5588749,-5.4717739,-6.6288062)"
       gradientUnits="userSpaceOnUse"
       id="radialGradient4473"
       xlink:href="#linearGradient4364"
       inkscape:collect="always" />
    <linearGradient
       y2="10.000011"
       x2="14.009747"
       y1="5.9999762"
       x1="14.009747"
       gradientUnits="userSpaceOnUse"
       id="linearGradient4471"
       xlink:href="#linearGradient3140"
       inkscape:collect="always" />
    <linearGradient
       y2="19.999989"
       x2="14.009747"
       y1="23.000015"
       x1="14.009747"
       gradientUnits="userSpaceOnUse"
       id="linearGradient4467"
       xlink:href="#linearGradient3140"
       inkscape:collect="always" />
    <radialGradient
       gradientUnits="userSpaceOnUse"
       gradientTransform="matrix(1,0,0,1.0332174,0,-5.1057841)"
       r="8.7215576"
       fy="13.65229"
       fx="11.549556"
       cy="13.65229"
       cx="11.549556"
       id="radialGradient4451"
       xlink:href="#linearGradient4445"
       inkscape:collect="always" />
    <linearGradient
       y2="14.6875"
       x2="14.009747"
       y1="14.6875"
       x1="8.9951181"
       gradientUnits="userSpaceOnUse"
       id="linearGradient4442"
       xlink:href="#linearGradient4364"
       inkscape:collect="always" />
    <linearGradient
       x1="18.01074"
       y1="65.760353"
       x2="72.498932"
       y2="65.760353"
       id="linearGradient2867"
       xlink:href="#linearGradient3289"
       gradientUnits="userSpaceOnUse"
       gradientTransform="matrix(1.017716,0,0,0.960169,5.524222,-18.774756)" />
    <radialGradient
       cx="68.000046"
       cy="-117.34602"
       r="27.999956"
       fx="68.000046"
       fy="-117.34602"
       id="radialGradient9168"
       xlink:href="#linearGradient3140"
       gradientUnits="userSpaceOnUse"
       gradientTransform="matrix(0.990365,0,0,1.664158,16.251985,75.514833)" />
    <linearGradient
       x1="38.875084"
       y1="67.528122"
       x2="90.409752"
       y2="67.528122"
       id="linearGradient6243"
       xlink:href="#linearGradient2916"
       gradientUnits="userSpaceOnUse"
       gradientTransform="matrix(0.511504,0,0,0.77135,67.773305,6.6291413)" />
    <linearGradient
       x1="11.543377"
       y1="3.4375"
       x2="10.88339"
       y2="5.9006019"
       id="linearGradient6238"
       xlink:href="#linearGradient2895"
       gradientUnits="userSpaceOnUse"
       gradientTransform="matrix(5.467529,0,0,5.820575,24.290213,-2.0656323)" />
    <linearGradient
       x1="38.875084"
       y1="67.528122"
       x2="90.409752"
       y2="67.528122"
       id="linearGradient6233"
       xlink:href="#linearGradient2916"
       gradientUnits="userSpaceOnUse"
       gradientTransform="matrix(0.511504,0,0,0.96108,67.773305,4.8320565)" />
    <linearGradient
       x1="38.875084"
       y1="67.528122"
       x2="90.409752"
       y2="67.528122"
       id="linearGradient6228"
       xlink:href="#linearGradient2916"
       gradientUnits="userSpaceOnUse"
       gradientTransform="matrix(0.511504,0,0,1.80649,68.030435,-6.0981568)" />
    <linearGradient
       id="linearGradient2895">
      <stop
         id="stop2897"
         style="stop-color:#ffffff;stop-opacity:1"
         offset="0" />
      <stop
         id="stop2899"
         style="stop-color:#ffffff;stop-opacity:0"
         offset="1" />
    </linearGradient>
    <linearGradient
       id="linearGradient3140">
      <stop
         id="stop3142"
         style="stop-color:#ffffff;stop-opacity:1"
         offset="0" />
      <stop
         id="stop3144"
         style="stop-color:#ffffff;stop-opacity:0"
         offset="1" />
    </linearGradient>
    <linearGradient
       id="linearGradient2916">
      <stop
         id="stop2918"
         style="stop-color:#ffffff;stop-opacity:1"
         offset="0" />
      <stop
         id="stop2920"
         style="stop-color:#ffffff;stop-opacity:0"
         offset="1" />
    </linearGradient>
    <linearGradient
       id="linearGradient3289">
      <stop
         id="stop3291"
         style="stop-color:#ffffff;stop-opacity:1"
         offset="0" />
      <stop
         id="stop3294"
         style="stop-color:#ffffff;stop-opacity:1"
         offset="1" />
    </linearGradient>
    <linearGradient
       id="linearGradient4364">
      <stop
         style="stop-color:#ffffff;stop-opacity:1;"
         offset="0"
         id="stop4366" />
      <stop
         id="stop4368"
         offset="0.47499999"
         style="stop-color:#ffffff;stop-opacity:0.78431374;" />
      <stop
         style="stop-color:#ffffff;stop-opacity:0.39215687;"
         offset="0.84912485"
         id="stop4370" />
      <stop
         style="stop-color:#ffffff;stop-opacity:1;"
         offset="1"
         id="stop4372" />
    </linearGradient>
    <linearGradient
       id="linearGradient4445">
      <stop
         id="stop4447"
         offset="0"
         style="stop-color:#000000;stop-opacity:0;" />
      <stop
         style="stop-color:#000000;stop-opacity:0;"
         offset="0.5"
         id="stop4453" />
      <stop
         id="stop4449"
         offset="1"
         style="stop-color:#000000;stop-opacity:0.27450982;" />
    </linearGradient>
    <radialGradient
       inkscape:collect="always"
       xlink:href="#linearGradient4445"
       id="radialGradient2941"
       gradientUnits="userSpaceOnUse"
       gradientTransform="matrix(1,0,0,1.0332174,0,-5.1057841)"
       cx="11.549556"
       cy="13.65229"
       fx="11.549556"
       fy="13.65229"
       r="8.7215576" />
    <radialGradient
       inkscape:collect="always"
       xlink:href="#linearGradient4364"
       id="radialGradient2943"
       gradientUnits="userSpaceOnUse"
       gradientTransform="matrix(1.4755207,-2.6838982e-8,2.8355153e-8,1.5588749,-5.4717739,-6.6288062)"
       cx="11.481655"
       cy="10.667185"
       fx="11.481655"
       fy="10.667185"
       r="5.78125" />
    <linearGradient
       inkscape:collect="always"
       xlink:href="#linearGradient4364"
       id="linearGradient2945"
       gradientUnits="userSpaceOnUse"
       x1="8.9951181"
       y1="14.6875"
       x2="14.009747"
       y2="14.6875" />
    <linearGradient
       inkscape:collect="always"
       xlink:href="#linearGradient3140"
       id="linearGradient2947"
       gradientUnits="userSpaceOnUse"
       x1="14.009747"
       y1="23.000015"
       x2="14.009747"
       y2="19.999989" />
    <linearGradient
       inkscape:collect="always"
       xlink:href="#linearGradient3140"
       id="linearGradient2949"
       gradientUnits="userSpaceOnUse"
       x1="14.009747"
       y1="5.9999762"
       x2="14.009747"
       y2="10.000011" />
    <radialGradient
       r="6.375"
       fy="105.12477"
       fx="16.392656"
       cy="105.12477"
       cx="16.392656"
       gradientTransform="matrix(0.3652004,0.41181382,-0.72097162,0.63936447,96.364194,26.036233)"
       gradientUnits="userSpaceOnUse"
       id="radialGradient3952"
       xlink:href="#linearGradient3942"
       inkscape:collect="always" />
    <radialGradient
       gradientUnits="userSpaceOnUse"
       gradientTransform="matrix(0.32159852,-0.44669491,1.6776455,1.2078229,-141.54707,-12.385996)"
       r="6.375"
       fy="92.770393"
       fx="22.656315"
       cy="92.770393"
       cx="22.656315"
       id="radialGradient3948"
       xlink:href="#linearGradient3942"
       inkscape:collect="always" />
    <linearGradient
       y2="123"
       x2="27.75"
       y1="123"
       x1="14.3125"
       gradientTransform="translate(32,-23)"
       gradientUnits="userSpaceOnUse"
       id="linearGradient3865"
       xlink:href="#linearGradient3802"
       inkscape:collect="always" />
    <linearGradient
       gradientTransform="translate(0,-23)"
       gradientUnits="userSpaceOnUse"
       y2="123"
       x2="27.75"
       y1="123"
       x1="14.3125"
       id="linearGradient3853"
       xlink:href="#linearGradient3802"
       inkscape:collect="always" />
    <linearGradient
       id="linearGradient3802">
      <stop
         id="stop3804"
         offset="0"
         style="stop-color:#ffffff;stop-opacity:1;" />
      <stop
         style="stop-color:#ffffff;stop-opacity:0.78431374;"
         offset="0.5"
         id="stop3818" />
      <stop
         id="stop3820"
         offset="0.75"
         style="stop-color:#ffffff;stop-opacity:0.39215687;" />
      <stop
         id="stop3806"
         offset="1"
         style="stop-color:#ffffff;stop-opacity:1;" />
    </linearGradient>
    <linearGradient
       id="linearGradient3942"
       inkscape:collect="always">
      <stop
         id="stop3944"
         offset="0"
         style="stop-color:#ffffff;stop-opacity:1;" />
      <stop
         id="stop3946"
         offset="1"
         style="stop-color:#ffffff;stop-opacity:0;" />
    </linearGradient>
    <inkscape:perspective
       id="perspective2919"
       inkscape:persp3d-origin="28 : 8 : 1"
       inkscape:vp_z="56 : 12 : 1"
       inkscape:vp_y="0 : 1000 : 0"
       inkscape:vp_x="0 : 12 : 1"
       sodipodi:type="inkscape:persp3d" />
    <linearGradient
       inkscape:collect="always"
       xlink:href="#linearGradient3802"
       id="linearGradient2956"
       gradientUnits="userSpaceOnUse"
       gradientTransform="translate(0,-23)"
       x1="14.3125"
       y1="123"
       x2="27.75"
       y2="123" />
    <radialGradient
       inkscape:collect="always"
       xlink:href="#linearGradient3942"
       id="radialGradient2958"
       gradientUnits="userSpaceOnUse"
       gradientTransform="matrix(0.32159852,-0.44669491,1.6776455,1.2078229,-141.54707,-12.385996)"
       cx="22.656315"
       cy="92.770393"
       fx="22.656315"
       fy="92.770393"
       r="6.375" />
    <linearGradient
       inkscape:collect="always"
       xlink:href="#linearGradient3802"
       id="linearGradient2962"
       gradientUnits="userSpaceOnUse"
       gradientTransform="translate(32,-23)"
       x1="14.3125"
       y1="123"
       x2="27.75"
       y2="123" />
    <linearGradient
       id="linearGradient4158">
      <stop
         id="stop4160"
         offset="0"
         style="stop-color:#888888;stop-opacity:1;" />
      <stop
         id="stop4162"
         offset="1"
         style="stop-color:#232323;stop-opacity:1;" />
    </linearGradient>
    <linearGradient
       inkscape:collect="always"
       xlink:href="#linearGradient4158"
       id="linearGradient3902"
       gradientUnits="userSpaceOnUse"
       gradientTransform="translate(-235.53571,-306.00504)"
       x1="267.53571"
       y1="360.50504"
       x2="267.53571"
       y2="349.50504" />
    <linearGradient
       id="linearGradient4158-7">
      <stop
         id="stop4160-2"
         offset="0"
         style="stop-color:#888888;stop-opacity:1;" />
      <stop
         id="stop4162-2"
         offset="1"
         style="stop-color:#232323;stop-opacity:1;" />
    </linearGradient>
    <linearGradient
       inkscape:collect="always"
       xlink:href="#linearGradient3862"
       id="linearGradient4019"
       x1="27.75"
       y1="89.5"
       x2="27.8125"
       y2="110.3125"
       gradientUnits="userSpaceOnUse" />
    <radialGradient
       inkscape:collect="always"
       xlink:href="#linearGradient3942"
       id="radialGradient4026"
       gradientUnits="userSpaceOnUse"
       gradientTransform="matrix(0.32159852,-0.44669491,1.6776455,1.2078229,-86.54707,-100.38188)"
       cx="22.656315"
       cy="92.770393"
       fx="22.656315"
       fy="92.770393"
       r="6.375" />
    <linearGradient
       inkscape:collect="always"
       xlink:href="#linearGradient3802"
       id="linearGradient4029"
       gradientUnits="userSpaceOnUse"
       gradientTransform="translate(55,-110.99588)"
       x1="14.3125"
       y1="123"
       x2="27.75"
       y2="123" />
    <linearGradient
       inkscape:collect="always"
       xlink:href="#linearGradient3802"
       id="linearGradient4051"
       gradientUnits="userSpaceOnUse"
       gradientTransform="translate(55,-110.99588)"
       x1="14.3125"
       y1="123"
       x2="27.75"
       y2="123" />
    <radialGradient
       inkscape:collect="always"
       xlink:href="#linearGradient3942"
       id="radialGradient4053"
       gradientUnits="userSpaceOnUse"
       gradientTransform="matrix(0.32159852,-0.44669491,1.6776455,1.2078229,-86.54707,-100.38188)"
       cx="22.656315"
       cy="92.770393"
       fx="22.656315"
       fy="92.770393"
       r="6.375" />
    <linearGradient
       inkscape:collect="always"
       xlink:href="#linearGradient3862"
       id="linearGradient3898"
       gradientUnits="userSpaceOnUse"
       x1="21.992743"
       y1="2.9599223"
       x2="22"
       y2="22.023844" />
    <linearGradient
       inkscape:collect="always"
       xlink:href="#linearGradient4364"
       id="linearGradient3913"
       gradientUnits="userSpaceOnUse"
       gradientTransform="translate(30,-1)"
       x1="8.9951181"
       y1="14.6875"
       x2="14.009747"
       y2="14.6875" />
    <linearGradient
       inkscape:collect="always"
       xlink:href="#linearGradient3862"
       id="linearGradient3917"
       gradientUnits="userSpaceOnUse"
       x1="44.163181"
       y1="5.3308058"
       x2="44.165401"
       y2="22.978683" />
  </defs>
  <g
     style="display:none"
     id="WhiteBackgroundLayer"
     transform="translate(2.56612,-12.40703)">
    <rect
       style="opacity:0.69897964;fill:url(#linearGradient2867);fill-opacity:1;fill-rule:nonzero;stroke:none"
       id="Background"
       y="-7.9516411"
       x="3.8541794"
       ry="1.9589152"
       rx="2.1937749"
       height="104.63548"
       width="55.453815" />
  </g>
  <rect
     transform="scale(-1,1)"
     style="opacity:0;fill:#000000;fill-opacity:0.49803922;fill-rule:nonzero;stroke:none"
     id="rect4235"
     width="16"
     height="16"
     x="29.750004"
     y="110" />
  <rect
     style="opacity:0;fill:#000000;fill-opacity:0.49803922;fill-rule:nonzero;stroke:none"
     id="rect4086"
     width="16"
     height="16"
     x="-74.500008"
     y="109.625" />
  <g
     id="preferences-system-bluetooth"
     transform="translate(1.8106602,31.466252)">
    <rect
       style="opacity:0.8;fill:#000000;fill-opacity:0;stroke:none"
       id="rect3152"
       width="24"
       height="24"
       x="64"
       y="1.2695313e-07"
       inkscape:export-filename="/home/pinheiro/pics/desktoptheme/air/icons/blueactive.png"
       inkscape:export-xdpi="180"
       inkscape:export-ydpi="180" />
    <path
       sodipodi:nodetypes="ccccccccccccccccccccccccc"
       id="path241"
       d="m 76,1.54787 0,9.01875 -0.5,0.40625 -5.5,-4.59375 0,2.09375 4.25,3.53125 -4.25,3.53125 0,2.09375 5.5,-4.59375 0.5,0.40625 0,9.01875 6.75,-5.45625 L 77,12.22287 76.7,12.00606 77,11.78537 82.75,6.97287 76,1.54787 z m 1,2.8625 3.25,2.59375 -3.25,2.71875 0,-5.3125 z m 0,9.875 3.25,2.71875 -3.25,2.59375 0,-5.3125 z"
       style="font-size:medium;font-style:normal;font-variant:normal;font-weight:normal;font-stretch:normal;text-indent:0;text-align:start;text-decoration:none;line-height:normal;letter-spacing:normal;word-spacing:normal;text-transform:none;direction:ltr;block-progression:tb;writing-mode:lr-tb;text-anchor:start;color:#000000;fill:url(#linearGradient4029);fill-opacity:1;stroke:none;stroke-width:1.60000002;marker:none;visibility:visible;display:inline;overflow:visible;enable-background:accumulate;font-family:Bitstream Vera Sans;-inkscape-font-specification:Bitstream Vera Sans"
       inkscape:connector-curvature="0" />
    <path
       style="font-size:medium;font-style:normal;font-variant:normal;font-weight:normal;font-stretch:normal;text-indent:0;text-align:start;text-decoration:none;line-height:normal;letter-spacing:normal;word-spacing:normal;text-transform:none;direction:ltr;block-progression:tb;writing-mode:lr-tb;text-anchor:start;color:#000000;fill:url(#radialGradient4026);fill-opacity:1;stroke:none;stroke-width:1.60000002;marker:none;visibility:visible;display:inline;overflow:visible;enable-background:accumulate;font-family:Bitstream Vera Sans;-inkscape-font-specification:Bitstream Vera Sans"
       d="m 76,1.54787 0,9.01875 -0.5,0.40625 -5.5,-4.59375 0,2.09375 4.25,3.53125 -4.25,3.53125 0,2.09375 5.5,-4.59375 0.5,0.40625 0,9.01875 6.75,-5.45625 L 77,12.22287 76.7,12.00606 77,11.78537 82.75,6.97287 76,1.54787 z m 1,2.8625 3.25,2.59375 -3.25,2.71875 0,-5.3125 z m 0,9.875 3.25,2.71875 -3.25,2.59375 0,-5.3125 z"
       id="path3940"
       sodipodi:nodetypes="ccccccccccccccccccccccccc"
       inkscape:connector-curvature="0" />
    <path
       style="font-size:medium;font-style:normal;font-variant:normal;font-weight:normal;font-stretch:normal;text-indent:0;text-align:start;text-decoration:none;line-height:normal;letter-spacing:normal;word-spacing:normal;text-transform:none;direction:ltr;block-progression:tb;writing-mode:lr-tb;text-anchor:start;opacity:0.45;color:#000000;fill:#ffffff;fill-opacity:1;stroke:none;stroke-width:1.60000001999999997;marker:none;visibility:visible;display:inline;overflow:visible;enable-background:accumulate;font-family:Bitstream Vera Sans;-inkscape-font-specification:Bitstream Vera Sans"
       d="M 76,2.5475 76,11.56625 75.5,11.9725 70,7.37875 70,9.4725 74.25,13.00375 70,16.535 70,18.62875 75.5,14.035 76,14.44125 76,23.46 82.75,18.00375 77,13.2225 76.7,13.00569 77,12.785 82.75,7.9725 76,2.5475 z M 77,5.41 80.25,8.00375 77,10.7225 77,5.41 z m 0,9.875 3.25,2.71875 L 77,20.5975 77,15.285 z"
       id="path4009"
       sodipodi:nodetypes="ccccccccccccccccccccccccc"
       inkscape:connector-curvature="0" />
    <path
       sodipodi:nodetypes="ccccccccccccccccccccccccc"
       id="path3950"
       d="m 76,1.54787 0,9.01875 -0.5,0.40625 -5.5,-4.59375 0,2.09375 4.25,3.53125 -4.25,3.53125 0,2.09375 5.5,-4.59375 0.5,0.40625 0,9.01875 6.75,-5.45625 L 77,12.22287 76.7,12.00606 77,11.78537 82.75,6.97287 76,1.54787 z m 1,2.8625 3.25,2.59375 -3.25,2.71875 0,-5.3125 z m 0,9.875 3.25,2.71875 -3.25,2.59375 0,-5.3125 z"
       style="font-size:medium;font-style:normal;font-variant:normal;font-weight:normal;font-stretch:normal;text-indent:0;text-align:start;text-decoration:none;line-height:normal;letter-spacing:normal;word-spacing:normal;text-transform:none;direction:ltr;block-progression:tb;writing-mode:lr-tb;text-anchor:start;opacity:1;color:#000000;fill:#4a4a4a;fill-opacity:1;stroke:none;stroke-width:1.60000001999999997;marker:none;visibility:visible;display:inline;overflow:visible;enable-background:accumulate;font-family:Bitstream Vera Sans;-inkscape-font-specification:Bitstream Vera Sans"
       inkscape:connector-curvature="0" />
  </g>
  <g
     id="preferences-system-bluetooth-inactive"
     transform="translate(27.81066,31.466252)">
    <rect
       inkscape:export-ydpi="180"
       inkscape:export-xdpi="180"
       inkscape:export-filename="/home/pinheiro/pics/desktoptheme/air/icons/blueactive.png"
       y="1.2695313e-07"
       x="64"
       height="24"
       width="24"
       id="rect4041"
       style="opacity:0.8;fill:#000000;fill-opacity:0;stroke:none" />
    <path
       inkscape:connector-curvature="0"
       style="font-size:medium;font-style:normal;font-variant:normal;font-weight:normal;font-stretch:normal;text-indent:0;text-align:start;text-decoration:none;line-height:normal;letter-spacing:normal;word-spacing:normal;text-transform:none;direction:ltr;block-progression:tb;writing-mode:lr-tb;text-anchor:start;color:#000000;fill:url(#linearGradient4051);fill-opacity:1;stroke:none;stroke-width:1.60000002;marker:none;visibility:visible;display:inline;overflow:visible;enable-background:accumulate;font-family:Bitstream Vera Sans;-inkscape-font-specification:Bitstream Vera Sans"
       d="m 76,1.54787 0,9.01875 -0.5,0.40625 -5.5,-4.59375 0,2.09375 4.25,3.53125 -4.25,3.53125 0,2.09375 5.5,-4.59375 0.5,0.40625 0,9.01875 6.75,-5.45625 L 77,12.22287 76.7,12.00606 77,11.78537 82.75,6.97287 76,1.54787 z m 1,2.8625 3.25,2.59375 -3.25,2.71875 0,-5.3125 z m 0,9.875 3.25,2.71875 -3.25,2.59375 0,-5.3125 z"
       id="path4043"
       sodipodi:nodetypes="ccccccccccccccccccccccccc" />
    <path
       inkscape:connector-curvature="0"
       sodipodi:nodetypes="ccccccccccccccccccccccccc"
       id="path4045"
       d="m 76,1.54787 0,9.01875 -0.5,0.40625 -5.5,-4.59375 0,2.09375 4.25,3.53125 -4.25,3.53125 0,2.09375 5.5,-4.59375 0.5,0.40625 0,9.01875 6.75,-5.45625 L 77,12.22287 76.7,12.00606 77,11.78537 82.75,6.97287 76,1.54787 z m 1,2.8625 3.25,2.59375 -3.25,2.71875 0,-5.3125 z m 0,9.875 3.25,2.71875 -3.25,2.59375 0,-5.3125 z"
       style="font-size:medium;font-style:normal;font-variant:normal;font-weight:normal;font-stretch:normal;text-indent:0;text-align:start;text-decoration:none;line-height:normal;letter-spacing:normal;word-spacing:normal;text-transform:none;direction:ltr;block-progression:tb;writing-mode:lr-tb;text-anchor:start;color:#000000;fill:url(#radialGradient4053);fill-opacity:1;stroke:none;stroke-width:1.60000002;marker:none;visibility:visible;display:inline;overflow:visible;enable-background:accumulate;font-family:Bitstream Vera Sans;-inkscape-font-specification:Bitstream Vera Sans" />
    <path
       inkscape:connector-curvature="0"
       sodipodi:nodetypes="ccccccccccccccccccccccccc"
       id="path4047"
       d="M 76,2.5475 76,11.56625 75.5,11.9725 70,7.37875 70,9.4725 74.25,13.00375 70,16.535 70,18.62875 75.5,14.035 76,14.44125 76,23.46 82.75,18.00375 77,13.2225 76.7,13.00569 77,12.785 82.75,7.9725 76,2.5475 z M 77,5.41 80.25,8.00375 77,10.7225 77,5.41 z m 0,9.875 3.25,2.71875 L 77,20.5975 77,15.285 z"
       style="font-size:medium;font-style:normal;font-variant:normal;font-weight:normal;font-stretch:normal;text-indent:0;text-align:start;text-decoration:none;line-height:normal;letter-spacing:normal;word-spacing:normal;text-transform:none;direction:ltr;block-progression:tb;writing-mode:lr-tb;text-anchor:start;opacity:0.45;color:#000000;fill:#ffffff;fill-opacity:1;stroke:none;stroke-width:1.60000001999999997;marker:none;visibility:visible;display:inline;overflow:visible;enable-background:accumulate;font-family:Bitstream Vera Sans;-inkscape-font-specification:Bitstream Vera Sans" />
    <path
       inkscape:connector-curvature="0"
       style="font-size:medium;font-style:normal;font-variant:normal;font-weight:normal;font-stretch:normal;text-indent:0;text-align:start;text-decoration:none;line-height:normal;letter-spacing:normal;word-spacing:normal;text-transform:none;direction:ltr;block-progression:tb;writing-mode:lr-tb;text-anchor:start;opacity:1;color:#000000;fill:#787878;fill-opacity:1;stroke:none;stroke-width:1.60000001999999997;marker:none;visibility:visible;display:inline;overflow:visible;enable-background:accumulate;font-family:Bitstream Vera Sans;-inkscape-font-specification:Bitstream Vera Sans"
       d="m 76,1.54787 0,9.01875 -0.5,0.40625 -5.5,-4.59375 0,2.09375 4.25,3.53125 -4.25,3.53125 0,2.09375 5.5,-4.59375 0.5,0.40625 0,9.01875 6.75,-5.45625 L 77,12.22287 76.7,12.00606 77,11.78537 82.75,6.97287 76,1.54787 z m 1,2.8625 3.25,2.59375 -3.25,2.71875 0,-5.3125 z m 0,9.875 3.25,2.71875 -3.25,2.59375 0,-5.3125 z"
       id="path4049"
       sodipodi:nodetypes="ccccccccccccccccccccccccc" />
  </g>
  <g
     id="preferences-desktop-display-randr"
     transform="translate(1.0606602,31.466252)">
    <rect
       y="0"
       x="0"
       height="24"
       width="24"
       id="rect3113"
       style="fill:#ffffff;fill-opacity:0.00392157;fill-rule:evenodd;stroke:none" />
    <g
       transform="translate(0,-1)"
       id="g3952">
      <path
         id="path3860"
         d="M 4,4 C 2.892,4 2,4.892 2,6 l 0,11 c 0,1.108 0.892,2 2,2 l 7,0 0,2 -2,0 c -0.554,0 -1,0.446 -1,1 0,0.554 0.446,1 1,1 l 6,0 c 0.554,0 1,-0.446 1,-1 0,-0.554 -0.446,-1 -1,-1 l -2,0 0,-2 7,0 c 1.108,0 2,-0.892 2,-2 L 22,6 C 22,4.892 21.108,4 20,4 L 4,4 z M 4,6 20,6 20,17 4,17 4,6 z"
         style="opacity:0.45;fill:#ffffff;fill-opacity:1;stroke:none"
         inkscape:connector-curvature="0" />
      <path
         inkscape:connector-curvature="0"
         style="opacity:1;fill:url(#linearGradient3898);fill-opacity:1;stroke:none"
         d="M 4,3 C 2.892,3 2,3.892 2,5 l 0,11 c 0,1.108 0.892,2 2,2 l 7,0 0,2 -2,0 c -0.554,0 -1,0.446 -1,1 0,0.554 0.446,1 1,1 l 6,0 c 0.554,0 1,-0.446 1,-1 0,-0.554 -0.446,-1 -1,-1 l -2,0 0,-2 7,0 c 1.108,0 2,-0.892 2,-2 L 22,5 C 22,3.892 21.108,3 20,3 L 4,3 z M 4,5 20,5 20,16 4,16 4,5 z"
         id="rect2848" />
      <g
         id="g3942"
         transform="matrix(0.69211869,0,0,0.69211869,10.787557,-22.453043)">
        <path
           inkscape:connector-curvature="0"
           id="path4082"
           d="m 1.78126,54.12812 -1.53125,-2 1,0 0,-3 1,0 0,3 1,0 -1.46875,2 z m -4.53125,-5 -2,-1.5 2,-1.5 0,1 3,0 0,1 -3,0 0,1 z m 9,0 0,-1 -3,0 0,-1 3,0 0,-1 2,1.5 -2,1.5 z m -5,-3 0,-3 -1,0 1.5625,-2 1.4375,2 -1,0 0,3 -1,0 z"
           style="opacity:1;fill:#4a4a4a;fill-opacity:1;fill-rule:evenodd;stroke:none" />
        <path
           inkscape:connector-curvature="0"
           id="path4088"
           d="m 1.00001,43.125 -0.75,1 1,0 0,-1 -0.25,0 z m 1.25,0 0,1 1,0 -0.75,-1 -0.25,0 z m -1,3 0,1 1,0 0,-1 -1,0 z"
           style="opacity:0.45;fill:#ffffff;fill-opacity:1;fill-rule:evenodd;stroke:none" />
        <path
           inkscape:connector-curvature="0"
           id="path4090"
           d="m 0.25001,53.125 1.5625,2 1.4375,-2 -0.71875,0 -0.71875,1 -0.78125,-1 -0.78125,0 z"
           style="opacity:0.45;fill:#ffffff;fill-opacity:1;fill-rule:evenodd;stroke:none" />
        <path
           inkscape:connector-curvature="0"
           id="path4096"
           d="m -4.09019,48.12812 -0.65625,0.5 2,1.5 0,-1 -1.34375,-1 z m 1.34375,1 3,0 0,-1 -3,0 0,1 z"
           style="opacity:0.45;fill:#ffffff;fill-opacity:1;fill-rule:evenodd;stroke:none" />
        <path
           inkscape:connector-curvature="0"
           id="path4098"
           d="m 3.25356,48.12812 0,1 3,0 0,-1 -3,0 z m 3,1 0,1 2,-1.5 -0.65625,-0.5 -1.34375,1 z"
           style="opacity:0.45;fill:#ffffff;fill-opacity:1;fill-rule:evenodd;stroke:none" />
      </g>
    </g>
  </g>
  <g
     id="preferences-desktop-text-to-speech"
     transform="translate(31.685922,31.466252)">
    <rect
       style="fill:#ffffff;fill-opacity:0.00392157;fill-rule:evenodd;stroke:none"
       id="rect3883"
       width="24"
       height="24"
       x="0"
       y="0" />
    <g
       transform="matrix(0.89223545,0,0,0.89223545,-25.027771,1.7285847)"
       id="g3902">
      <path
         id="path3997"
         d="M 41.28125,1.0315 C 37.879126,1.1667983 34.80259,3.4759352 33.875,6.93775 l 0.96875,0.25 c 0.797086,-2.9851274 3.513638,-5.1875 6.75,-5.1875 3.236362,0 5.952914,2.2023726 6.75,5.1875 l 0.96875,-0.25 C 48.573982,4.1815635 46.412437,2.0200178 43.65625,1.2815 42.85737,1.0674407 42.066355,1.0002773 41.28125,1.0315 z m 0.0625,2 C 38.798177,3.1327343 36.506552,4.8787639 35.8125,7.469 l 0.96875,0.25 c 0.571792,-2.1340176 2.498092,-3.71875 4.8125,-3.71875 2.313457,0 4.239813,1.5860713 4.8125,3.71875 L 47.375,7.469 C 46.822418,5.4067367 45.218513,3.7715817 43.15625,3.219 42.558503,3.0588343 41.93119,3.0081382 41.34375,3.0315 z"
         style="opacity:0.45;fill:#ffffff;fill-opacity:1;stroke:none"
         inkscape:connector-curvature="0" />
      <path
         inkscape:connector-curvature="0"
         style="opacity:1;fill:#4a4a4a;fill-opacity:1;stroke:none"
         d="M 41.28125,0.03125 C 37.879126,0.1665483 34.80259,2.4756852 33.875,5.9375 l 0.96875,0.25 C 35.640836,3.2023726 38.357388,1 41.59375,1 c 3.236362,0 5.952914,2.2023726 6.75,5.1875 l 0.96875,-0.25 C 48.573982,3.1813135 46.412437,1.0197678 43.65625,0.28125 42.85737,0.0671907 42.066355,2.73e-5 41.28125,0.03125 z m 0.0625,2 c -2.545573,0.1012343 -4.837198,1.8472639 -5.53125,4.4375 l 0.96875,0.25 C 37.353042,4.5847324 39.279342,3 41.59375,3 c 2.313457,0 4.239813,1.5860713 4.8125,3.71875 l 0.96875,-0.25 C 46.822418,4.4064867 45.218513,2.7713317 43.15625,2.21875 42.558503,2.0585843 41.93119,2.0078882 41.34375,2.03125 z"
         id="path4389" />
      <path
         inkscape:connector-curvature="0"
         style="fill:url(#linearGradient3913);fill-opacity:1;stroke:none"
         d="m 41.59375,5.375 c -1.444862,0 -2.625,1.1801379 -2.625,2.625 0,0.817099 0.381923,1.520247 0.96875,2 L 34,10 c -0.554,0 -1,0.418125 -1,0.9375 l 0,0.125 C 33,11.581875 33.446,12 34,12 l 5,0 0,3 0,1 0,5 c 0,0.554 0.446,1 1,1 0.554,0 1,-0.446 1,-1 l 0,-4 1,0 0,4 c 0,0.554 0.446,1 1,1 0.554,0 1,-0.446 1,-1 l 0,-5 0,-4 5,0 c 0.554,0 1,-0.418125 1,-0.9375 l 0,-0.125 C 50,10.418125 49.554,10 49,10 l -5.78125,0 c 0.58686,-0.479753 0.96875,-1.1828741 0.96875,-2 0,-1.4448621 -1.148888,-2.625 -2.59375,-2.625 z m 0,2.625 c 0.552285,0 1,0.4477153 1,1 0,0.552285 -0.447715,1 -1,1 -0.552285,0 -1,-0.447715 -1,-1 0,-0.5522847 0.447715,-1 1,-1 z"
         id="rect4341"
         sodipodi:nodetypes="cscccccccccsccccsccccccccsccsssc" />
      <path
         sodipodi:type="arc"
         style="fill:#000000;fill-opacity:0.39215686;stroke:none"
         id="path4437"
         sodipodi:cx="11.5"
         sodipodi:cy="9.5"
         sodipodi:rx="0.5"
         sodipodi:ry="0.5"
         d="M 12,9.5 C 12,9.7761424 11.776142,10 11.5,10 11.223858,10 11,9.7761424 11,9.5 11,9.2238576 11.223858,9 11.5,9 11.776142,9 12,9.2238576 12,9.5 z"
         transform="matrix(2,0,0,2,18.6,-10)" />
      <path
         style="opacity:0.45;fill:#ffffff;fill-opacity:1;stroke:none"
         d="m 41.59375,6.375 c -1.444862,0 -2.625,1.1801379 -2.625,2.625 0,0.817099 0.381923,1.520247 0.96875,2 L 34,11 c -0.554,0 -1,0.418125 -1,0.9375 l 0,0.125 C 33,12.581875 33.446,13 34,13 l 5,0 0,3 0,1 0,5 c 0,0.554 0.446,1 1,1 0.554,0 1,-0.446 1,-1 l 0,-4 1,0 0,4 c 0,0.554 0.446,1 1,1 0.554,0 1,-0.446 1,-1 l 0,-5 0,-4 5,0 c 0.554,0 1,-0.418125 1,-0.9375 l 0,-0.125 C 50,11.418125 49.554,11 49,11 l -5.78125,0 c 0.58686,-0.479753 0.96875,-1.1828741 0.96875,-2 0,-1.4448621 -1.148888,-2.625 -2.59375,-2.625 z m 0,2.625 c 0.552285,0 1,0.4477153 1,1 0,0.552285 -0.447715,1 -1,1 -0.552285,0 -1,-0.447715 -1,-1 0,-0.5522847 0.447715,-1 1,-1 z"
         id="path3977"
         sodipodi:nodetypes="cscccccccccsccccsccccccccsccsssc"
         inkscape:connector-curvature="0" />
      <path
         inkscape:connector-curvature="0"
         sodipodi:nodetypes="cscccccccccsccccsccccccccsccsssc"
         id="path4465"
         d="m 41.59375,5.375 c -1.444862,0 -2.625,1.1801379 -2.625,2.625 0,0.817099 0.381923,1.520247 0.96875,2 L 34,10 c -0.554,0 -1,0.418125 -1,0.9375 l 0,0.125 C 33,11.581875 33.446,12 34,12 l 5,0 0,3 0,1 0,5 c 0,0.554 0.446,1 1,1 0.554,0 1,-0.446 1,-1 l 0,-4 1,0 0,4 c 0,0.554 0.446,1 1,1 0.554,0 1,-0.446 1,-1 l 0,-5 0,-4 5,0 c 0.554,0 1,-0.418125 1,-0.9375 l 0,-0.125 C 50,10.418125 49.554,10 49,10 l -5.78125,0 c 0.58686,-0.479753 0.96875,-1.1828741 0.96875,-2 0,-1.4448621 -1.148888,-2.625 -2.59375,-2.625 z m 0,2.625 c 0.552285,0 1,0.4477153 1,1 0,0.552285 -0.447715,1 -1,1 -0.552285,0 -1,-0.447715 -1,-1 0,-0.5522847 0.447715,-1 1,-1 z"
         style="opacity:1;fill:#4a4a4a;fill-opacity:1;stroke:none" />
      <path
         inkscape:connector-curvature="0"
         style="opacity:0;fill:url(#linearGradient3917);fill-opacity:1;stroke:none"
         d="m 41.59375,5.375 c -1.444862,0 -2.625,1.1801379 -2.625,2.625 0,0.817099 0.381923,1.520247 0.96875,2 l 3.28125,0 c 0.58686,-0.479753 0.96875,-1.1828741 0.96875,-2 0,-1.4448621 -1.148888,-2.625 -2.59375,-2.625 z m 0,2.625 c 0.552285,0 1,0.4477153 1,1 0,0.552285 -0.447715,1 -1,1 -0.552285,0 -1,-0.447715 -1,-1 0,-0.5522847 0.447715,-1 1,-1 z"
         id="path4469"
         sodipodi:nodetypes="csccsccsssc" />
    </g>
  </g>
  <rect
     style="fill:#ffffff;fill-opacity:0.00392157;fill-rule:evenodd;stroke:none"
     id="rect3919"
     width="24"
     height="24"
     x="-80.654701"
     y="107.68376" />
</svg>
