<?xml version="1.0" encoding="UTF-8" standalone="no"?>
<!-- Created with Inkscape (http://www.inkscape.org/) -->

<svg
   xmlns:dc="http://purl.org/dc/elements/1.1/"
   xmlns:cc="http://creativecommons.org/ns#"
   xmlns:rdf="http://www.w3.org/1999/02/22-rdf-syntax-ns#"
   xmlns:svg="http://www.w3.org/2000/svg"
   xmlns="http://www.w3.org/2000/svg"
   xmlns:xlink="http://www.w3.org/1999/xlink"
   xmlns:sodipodi="http://sodipodi.sourceforge.net/DTD/sodipodi-0.dtd"
   xmlns:inkscape="http://www.inkscape.org/namespaces/inkscape"
   version="1.0"
   width="128"
   height="128"
   id="svg3727"
   sodipodi:version="0.32"
   inkscape:version="0.48.3.1 r9886"
   sodipodi:docname="wallet.svg"
   inkscape:output_extension="org.inkscape.output.svgz.inkscape">
  <sodipodi:namedview
     inkscape:window-height="701"
     inkscape:window-width="1360"
     inkscape:pageshadow="2"
     inkscape:pageopacity="1"
     guidetolerance="10.0"
     gridtolerance="10"
     objecttolerance="10.0"
     borderopacity="1.0"
     bordercolor="#666666"
     pagecolor="#a2a2a2"
     id="base"
     showgrid="true"
     inkscape:zoom="5.6568542"
     inkscape:cx="55.270193"
     inkscape:cy="94.452687"
     inkscape:window-x="-2"
     inkscape:window-y="-3"
     inkscape:current-layer="svg3727"
     inkscape:window-maximized="1"
     inkscape:snap-global="true">
    <inkscape:grid
       id="grid2629"
       type="xygrid"
       empspacing="5"
       visible="true"
       enabled="true"
       snapvisiblegridlinesonly="true" />
  </sodipodi:namedview>
  <metadata
     id="metadata244">
    <rdf:RDF>
      <cc:Work
         rdf:about="">
        <dc:format>image/svg+xml</dc:format>
        <dc:type
           rdf:resource="http://purl.org/dc/dcmitype/StillImage" />
        <dc:title />
      </cc:Work>
    </rdf:RDF>
  </metadata>
  <defs
     id="defs3729">
    <linearGradient
       id="linearGradient3832">
      <stop
         style="stop-color:#000000;stop-opacity:1;"
         offset="0"
         id="stop3834" />
      <stop
         style="stop-color:#363636;stop-opacity:1;"
         offset="1"
         id="stop3836" />
    </linearGradient>
    <linearGradient
       id="linearGradient3776">
      <stop
         style="stop-color:#000000;stop-opacity:1;"
         offset="0"
         id="stop3778" />
      <stop
         style="stop-color:#363636;stop-opacity:1;"
         offset="1"
         id="stop3780" />
    </linearGradient>
    <linearGradient
       id="linearGradient4249">
      <stop
         id="stop4251"
         offset="0"
         style="stop-color:#ffffff;stop-opacity:1;" />
      <stop
         style="stop-color:#ffffff;stop-opacity:0.78431374;"
         offset="0.47000003"
         id="stop4253" />
      <stop
         id="stop4255"
         offset="0.75125003"
         style="stop-color:#ffffff;stop-opacity:0.58823532;" />
      <stop
         id="stop4257"
         offset="1"
         style="stop-color:#ffffff;stop-opacity:1;" />
    </linearGradient>
    <linearGradient
       inkscape:collect="always"
       xlink:href="#linearGradient4249"
       id="linearGradient3977"
       gradientUnits="userSpaceOnUse"
       x1="75"
       y1="98"
       x2="75"
       y2="110.125" />
    <linearGradient
       inkscape:collect="always"
       xlink:href="#linearGradient4249"
       id="linearGradient3979"
       gradientUnits="userSpaceOnUse"
       x1="42"
       y1="97"
       x2="42"
       y2="114" />
    <linearGradient
       inkscape:collect="always"
       xlink:href="#linearGradient4249"
       id="linearGradient2999"
       gradientUnits="userSpaceOnUse"
       x1="75"
       y1="98"
       x2="75"
       y2="110.125"
       gradientTransform="translate(0,-83)" />
    <linearGradient
       inkscape:collect="always"
       xlink:href="#linearGradient3776"
       id="linearGradient3782"
       x1="90"
       y1="11"
       x2="90"
       y2="28"
       gradientUnits="userSpaceOnUse" />
    <linearGradient
       inkscape:collect="always"
       xlink:href="#linearGradient3776"
       id="linearGradient3788"
       gradientUnits="userSpaceOnUse"
       x1="90"
       y1="11"
       x2="90"
       y2="28"
       gradientTransform="matrix(0.89565217,0,0,0.89565217,6.8869565,2.9217391)" />
    <linearGradient
       inkscape:collect="always"
       xlink:href="#linearGradient3776"
       id="linearGradient3794"
       gradientUnits="userSpaceOnUse"
       gradientTransform="matrix(0.89565217,0,0,0.89565217,7.3369565,46.921739)"
       x1="90"
       y1="11"
       x2="90"
       y2="28" />
    <linearGradient
       inkscape:collect="always"
       xlink:href="#linearGradient3776"
       id="linearGradient3801"
       gradientUnits="userSpaceOnUse"
       gradientTransform="matrix(0.89565217,0,0,0.89565217,7.3369565,46.921739)"
       x1="90"
       y1="11"
       x2="90"
       y2="28" />
    <linearGradient
       inkscape:collect="always"
       xlink:href="#linearGradient4249"
       id="linearGradient3812"
       gradientUnits="userSpaceOnUse"
       x1="42"
       y1="97"
       x2="42"
       y2="114"
       gradientTransform="translate(21,-42)" />
    <linearGradient
       inkscape:collect="always"
       xlink:href="#linearGradient3832"
       id="linearGradient3838"
       x1="76"
       y1="52"
       x2="76"
       y2="77"
       gradientUnits="userSpaceOnUse" />
    <linearGradient
       inkscape:collect="always"
       xlink:href="#linearGradient3832"
       id="linearGradient3846"
       gradientUnits="userSpaceOnUse"
       x1="76"
       y1="52"
       x2="76"
       y2="77" />
  </defs>
  <rect
     ry="0.21213204"
     y="71"
     x="75"
     height="24"
     width="24"
     id="rect3847"
     style="fill:#5222bd;fill-opacity:0;stroke:none" />
  <rect
     y="11"
     x="65"
     height="24"
     width="24"
     id="rect3941"
     style="opacity:0.7;fill:#000000;fill-opacity:0;stroke:none" />
  <g
     id="wallet-closed"
     transform="translate(19.366576,-40.104348)"
     inkscape:label="#g3803">
    <rect
       style="fill:#000000;fill-opacity:0.00392157;fill-rule:evenodd;stroke:none"
       id="rect3790"
       width="24"
       height="24"
       x="52"
       y="52" />
    <g
       transform="translate(-12.75,-0.8347825)"
       id="g3797">
      <path
         inkscape:connector-curvature="0"
         style="font-size:medium;font-style:normal;font-variant:normal;font-weight:normal;font-stretch:normal;text-indent:0;text-align:start;text-decoration:none;line-height:normal;letter-spacing:normal;word-spacing:normal;text-transform:none;direction:ltr;block-progression:tb;writing-mode:lr-tb;text-anchor:start;opacity:0.45;color:#000000;fill:#ffffff;fill-opacity:1;fill-rule:nonzero;stroke:none;stroke-width:2;marker:none;visibility:visible;display:inline;overflow:visible;enable-background:accumulate;font-family:Bitstream Vera Sans;-inkscape-font-specification:Bitstream Vera Sans"
         d="m 67.821467,58.565217 c -0.745721,0 -1.371467,0.625746 -1.371467,1.371468 l 0,10.691848 C 66.45,71.374253 67.075746,72 67.821467,72 l 16.065761,0 c 0.745722,0 1.371468,-0.625747 1.371468,-1.371467 l 0,-2.211142 0.419837,0 c 0.745721,0 1.371467,-0.625747 1.371467,-1.371467 l 0,-3.526631 c 0,-0.74572 -0.625746,-1.371467 -1.371467,-1.371467 l -0.419837,0 0,-2.211141 c 0,-0.745722 -0.625746,-1.371468 -1.371468,-1.371468 l -16.065761,0 z m 1.31549,2.686957 13.434782,0 0,0.895652 -2.211141,0 c -0.745722,0 -1.371468,0.625747 -1.371468,1.371467 l 0,3.526631 c 0,0.74572 0.625746,1.371467 1.371468,1.371467 l 2.211141,0 0,0.895652 -13.434782,0 0,-8.060869 z m 14.246467,3.582609 0.979619,0 0,0.895652 -0.979619,0 c 0.01606,-0.07149 0.08397,-0.121245 0.08397,-0.195924 l 0,-0.503804 c 0,-0.0747 -0.06791,-0.124433 -0.08397,-0.195924 z"
         id="path3955" />
      <path
         id="path3774"
         d="m 67.821467,57.669565 c -0.745721,0 -1.371467,0.625746 -1.371467,1.371468 l 0,10.691847 c 0,0.74572 0.625746,1.371468 1.371467,1.371468 l 16.065761,0 c 0.745722,0 1.371468,-0.625748 1.371468,-1.371468 l 0,-2.211141 0.419837,0 c 0.745721,0 1.371467,-0.625747 1.371467,-1.371467 l 0,-3.526631 c 0,-0.74572 -0.625746,-1.371467 -1.371467,-1.371467 l -0.419837,0 0,-2.211141 c 0,-0.745722 -0.625746,-1.371468 -1.371468,-1.371468 l -16.065761,0 z m 1.31549,2.686957 13.434782,0 0,0.895652 -2.211141,0 c -0.745722,0 -1.371468,0.625747 -1.371468,1.371467 l 0,3.526631 c 0,0.74572 0.625746,1.371467 1.371468,1.371467 l 2.211141,0 0,0.895652 -13.434782,0 0,-8.060869 z m 14.246467,3.582608 0.979619,0 0,0.895653 -0.979619,0 c 0.01606,-0.07149 0.08397,-0.121245 0.08397,-0.195924 l 0,-0.503805 c 0,-0.0747 -0.06791,-0.124433 -0.08397,-0.195924 z"
         style="font-size:medium;font-style:normal;font-variant:normal;font-weight:normal;font-stretch:normal;text-indent:0;text-align:start;text-decoration:none;line-height:normal;letter-spacing:normal;word-spacing:normal;text-transform:none;direction:ltr;block-progression:tb;writing-mode:lr-tb;text-anchor:start;opacity:1;color:#000000;fill:#4a4a4a;fill-opacity:1;fill-rule:nonzero;stroke:none;stroke-width:2;marker:none;visibility:visible;display:inline;overflow:visible;enable-background:accumulate;font-family:Bitstream Vera Sans;-inkscape-font-specification:Bitstream Vera Sans"
         inkscape:connector-curvature="0" />
    </g>
  </g>
  <g
     id="wallet-open"
     transform="translate(-19.786364,-34.442352)"
     inkscape:label="#g3850">
    <rect
       y="52"
       x="52"
       height="24"
       width="24"
       id="rect3848"
       style="opacity:0.6;fill:#000000;fill-opacity:0.00392157;fill-rule:evenodd;stroke:none" />
    <rect
       y="52"
       x="52"
       height="24"
       width="24"
       id="rect3939"
       style="opacity:0.7;fill:#000000;fill-opacity:0;stroke:none" />
    <g
       transform="matrix(0.93636364,0,0,0.93636364,4.072727,3.6046429)"
       id="g3840">
      <path
         id="path3830"
         d="m 55.625,54.496582 c -0.6875,0 -1.492188,0.145884 -1.78125,0.3125 -0.282756,0.170246 -0.455347,0.389407 -0.59375,0.6875 l -0.15625,0.375 C 53.07474,55.972304 53,56.048347 53,56.152832 l 0,11 c 0,0.52483 0.273019,0.95923 0.53125,1.1875 0.201257,0.1779 0.384877,0.23536 0.5625,0.3125 l 0,0.03125 10.875,6.59375 0.0625,0.03125 0.03125,0 0.0625,0.03125 0.03125,0.03125 0.03125,0.03125 c 0.163877,0.0642 0.388121,0.11938 0.65625,0.09375 0.268129,-0.0256 0.566836,-0.19839 0.75,-0.40625 0.366328,-0.41552 0.34375,-0.73938 0.34375,-1 l 0,-5.59375 6.4375,0 c 0.872664,0 1.625,-0.7529 1.625,-1.625 l 0,-10.71875 c 0,-0.872105 -0.692389,-1.65625 -1.625,-1.65625 l -17.75,0 z m 3.875,3 12.5,0 0,8 -5.0625,0 0,-2 c 0,-0.24329 -0.02766,-0.53831 -0.125,-0.875 -0.08789,-0.304 -0.302744,-0.69599 -0.75,-0.96875 l 0.03125,-0.0625 L 59.5,57.496582 z m -3.5,1.78125 8,4.8125 0,7.03125 -8,-4.96875 0,-6.875 z"
         style="font-size:medium;font-style:normal;font-variant:normal;font-weight:normal;font-stretch:normal;text-indent:0;text-align:start;text-decoration:none;line-height:normal;letter-spacing:normal;word-spacing:normal;text-transform:none;direction:ltr;block-progression:tb;writing-mode:lr-tb;text-anchor:start;opacity:0.45;color:#000000;fill:#ffffff;fill-opacity:1;fill-rule:nonzero;stroke:none;stroke-width:2;marker:none;visibility:visible;display:inline;overflow:visible;enable-background:accumulate;font-family:Bitstream Vera Sans;-inkscape-font-specification:Bitstream Vera Sans"
         inkscape:connector-curvature="0" />
      <path
         style="font-size:medium;font-style:normal;font-variant:normal;font-weight:normal;font-stretch:normal;text-indent:0;text-align:start;text-decoration:none;line-height:normal;letter-spacing:normal;word-spacing:normal;text-transform:none;direction:ltr;block-progression:tb;writing-mode:lr-tb;text-anchor:start;opacity:1;color:#000000;fill:#4a4a4a;fill-opacity:1;fill-rule:nonzero;stroke:none;stroke-width:2;marker:none;visibility:visible;display:inline;overflow:visible;enable-background:accumulate;font-family:Bitstream Vera Sans;-inkscape-font-specification:Bitstream Vera Sans"
         d="m 55.625,53.496791 c -0.6875,0 -1.492188,0.145884 -1.78125,0.3125 -0.282756,0.170246 -0.455347,0.389407 -0.59375,0.6875 l -0.15625,0.375 C 53.07474,54.972513 53,55.048556 53,55.153041 l 0,11 c 0,0.52483 0.273019,0.95923 0.53125,1.1875 0.201257,0.1779 0.384877,0.23536 0.5625,0.3125 l 0,0.03125 10.875,6.59375 0.0625,0.03125 0.03125,0 0.0625,0.03125 0.03125,0.03125 0.03125,0.03125 c 0.163877,0.0642 0.388121,0.11938 0.65625,0.09375 0.268129,-0.0256 0.566836,-0.19839 0.75,-0.40625 0.366328,-0.41552 0.34375,-0.73938 0.34375,-1 l 0,-5.59375 6.4375,0 c 0.872664,0 1.625,-0.7529 1.625,-1.625 l 0,-10.71875 c 0,-0.872105 -0.692389,-1.65625 -1.625,-1.65625 l -17.75,0 z m 3.875,3 12.5,0 0,8 -5.0625,0 0,-2 c 0,-0.24329 -0.02766,-0.53831 -0.125,-0.875 -0.08789,-0.304 -0.302744,-0.69599 -0.75,-0.96875 l 0.03125,-0.0625 L 59.5,56.496791 z m -3.5,1.78125 8,4.8125 0,7.03125 -8,-4.96875 0,-6.875 z"
         id="path3930"
         inkscape:connector-curvature="0" />
    </g>
  </g>
</svg>
